<svg width="174" height="16" viewBox="0 0 174 16" fill="none" xmlns="http://www.w3.org/2000/svg">
<path d="M7.94 2.06C9.39333 2.06 10.6067 2.23333 11.58 2.58C12.5533 2.92667 13.3267 3.4 13.9 4C14.4867 4.58667 14.9 5.26667 15.14 6.04C15.3933 6.81333 15.52 7.62667 15.52 8.48C15.52 9.33333 15.38 10.1533 15.1 10.94C14.8333 11.7267 14.4 12.4267 13.8 13.04C13.2133 13.64 12.4333 14.12 11.46 14.48C10.5 14.8267 9.32667 15 7.94 15H0.54V2.06H7.94ZM3.2 12.72H7.88C8.84 12.72 9.63333 12.6067 10.26 12.38C10.9 12.14 11.4067 11.82 11.78 11.42C12.1533 11.02 12.42 10.5667 12.58 10.06C12.74 9.55333 12.82 9.02667 12.82 8.48C12.82 7.93333 12.74 7.41333 12.58 6.92C12.42 6.42667 12.1533 5.98667 11.78 5.6C11.4067 5.21333 10.9 4.90667 10.26 4.68C9.63333 4.45333 8.84 4.34 7.88 4.34H3.2V12.72ZM23.6381 15.24C22.3848 15.24 21.2781 15.04 20.3181 14.64C19.3715 14.24 18.6315 13.66 18.0981 12.9C17.5648 12.1267 17.2981 11.18 17.2981 10.06C17.2981 8.94 17.5648 7.99333 18.0981 7.22C18.6315 6.43333 19.3715 5.84 20.3181 5.44C21.2781 5.04 22.3848 4.84 23.6381 4.84C24.8915 4.84 25.9848 5.04 26.9181 5.44C27.8648 5.84 28.6048 6.43333 29.1381 7.22C29.6715 7.99333 29.9381 8.94 29.9381 10.06C29.9381 11.18 29.6715 12.1267 29.1381 12.9C28.6048 13.66 27.8648 14.24 26.9181 14.64C25.9848 15.04 24.8915 15.24 23.6381 15.24ZM23.6381 13.24C24.3315 13.24 24.9515 13.12 25.4981 12.88C26.0581 12.6267 26.4981 12.2667 26.8181 11.8C27.1381 11.32 27.2981 10.74 27.2981 10.06C27.2981 9.38 27.1381 8.8 26.8181 8.32C26.4981 7.82667 26.0648 7.45333 25.5181 7.2C24.9715 6.94667 24.3448 6.82 23.6381 6.82C22.9448 6.82 22.3181 6.94667 21.7581 7.2C21.1981 7.45333 20.7515 7.82 20.4181 8.3C20.0981 8.78 19.9381 9.36667 19.9381 10.06C19.9381 10.74 20.0981 11.32 20.4181 11.8C20.7381 12.2667 21.1781 12.6267 21.7381 12.88C22.2981 13.12 22.9315 13.24 23.6381 13.24ZM43.6602 11.08C43.5935 11.9467 43.3135 12.6933 42.8202 13.32C42.3402 13.9467 41.6735 14.4267 40.8202 14.76C39.9668 15.08 38.9535 15.24 37.7802 15.24C36.5535 15.24 35.4535 15.0467 34.4802 14.66C33.5202 14.26 32.7602 13.68 32.2002 12.92C31.6535 12.1467 31.3802 11.1933 31.3802 10.06C31.3802 8.92667 31.6535 7.97333 32.2002 7.2C32.7602 6.42667 33.5202 5.84 34.4802 5.44C35.4535 5.04 36.5535 4.84 37.7802 4.84C38.9535 4.84 39.9602 5.00667 40.8002 5.34C41.6402 5.66 42.3002 6.12667 42.7802 6.74C43.2735 7.35333 43.5602 8.09333 43.6402 8.96H41.2602C41.0335 8.29333 40.6135 7.77333 40.0002 7.4C39.3868 7.02667 38.6468 6.84 37.7802 6.84C37.0868 6.84 36.4535 6.96 35.8802 7.2C35.3202 7.44 34.8668 7.8 34.5202 8.28C34.1868 8.74667 34.0202 9.34 34.0202 10.06C34.0202 10.7667 34.1868 11.36 34.5202 11.84C34.8535 12.3067 35.3068 12.66 35.8802 12.9C36.4535 13.1267 37.0868 13.24 37.7802 13.24C38.7135 13.24 39.4735 13.0533 40.0602 12.68C40.6602 12.3067 41.0668 11.7733 41.2802 11.08H43.6602ZM54.6311 11.7H57.1511C57.0444 12.38 56.7578 12.9867 56.2911 13.52C55.8378 14.0533 55.2178 14.4733 54.4311 14.78C53.6444 15.0867 52.6844 15.24 51.5511 15.24C50.2844 15.24 49.1644 15.04 48.1911 14.64C47.2178 14.2267 46.4578 13.6333 45.9111 12.86C45.3644 12.0867 45.0911 11.1533 45.0911 10.06C45.0911 8.96667 45.3578 8.03333 45.8911 7.26C46.4244 6.47333 47.1644 5.87333 48.1111 5.46C49.0711 5.04667 50.1911 4.84 51.4711 4.84C52.7778 4.84 53.8644 5.04667 54.7311 5.46C55.5978 5.87333 56.2378 6.5 56.6511 7.34C57.0778 8.16667 57.2578 9.22667 57.1911 10.52H47.7111C47.7778 11.0267 47.9644 11.4867 48.2711 11.9C48.5911 12.3133 49.0178 12.64 49.5511 12.88C50.0978 13.12 50.7444 13.24 51.4911 13.24C52.3178 13.24 53.0044 13.1 53.5511 12.82C54.1111 12.5267 54.4711 12.1533 54.6311 11.7ZM51.3511 6.82C50.3911 6.82 49.6111 7.03333 49.0111 7.46C48.4111 7.87333 48.0244 8.38667 47.8511 9H54.6111C54.5444 8.33333 54.2244 7.80667 53.6511 7.42C53.0911 7.02 52.3244 6.82 51.3511 6.82ZM61.7658 10.8V8.68H67.6858C68.3924 8.68 68.9524 8.49333 69.3658 8.12C69.7791 7.73333 69.9858 7.2 69.9858 6.52C69.9858 5.81333 69.7791 5.27333 69.3658 4.9C68.9524 4.52667 68.3924 4.34 67.6858 4.34H62.0858V15H59.4258V2.06H67.4458C68.1658 2.06 68.8391 2.14667 69.4658 2.32C70.1058 2.49333 70.6591 2.76 71.1258 3.12C71.6058 3.48 71.9791 3.94 72.2458 4.5C72.5124 5.06 72.6458 5.73333 72.6458 6.52C72.6458 7.29333 72.5124 7.95333 72.2458 8.5C71.9791 9.04667 71.6058 9.49333 71.1258 9.84C70.6591 10.1733 70.1058 10.42 69.4658 10.58C68.8391 10.7267 68.1658 10.8 67.4458 10.8H61.7658ZM79.3173 15.22C78.3307 15.22 77.4307 15.0067 76.6173 14.58C75.8173 14.14 75.1773 13.5333 74.6973 12.76C74.2307 11.9733 73.9973 11.0667 73.9973 10.04C73.9973 8.98667 74.2373 8.07333 74.7173 7.3C75.1973 6.52667 75.844 5.92667 76.6573 5.5C77.484 5.06 78.4173 4.84 79.4573 4.84C80.604 4.84 81.524 5.07333 82.2173 5.54C82.924 5.99333 83.4373 6.61333 83.7573 7.4C84.0773 8.18667 84.2373 9.06667 84.2373 10.04C84.2373 10.6267 84.144 11.2267 83.9573 11.84C83.7707 12.44 83.484 13 83.0973 13.52C82.7107 14.0267 82.204 14.44 81.5773 14.76C80.9507 15.0667 80.1973 15.22 79.3173 15.22ZM80.1573 13.22C80.944 13.22 81.624 13.0867 82.1973 12.82C82.7707 12.5533 83.2107 12.18 83.5173 11.7C83.824 11.22 83.9773 10.6667 83.9773 10.04C83.9773 9.36 83.8173 8.78667 83.4973 8.32C83.1907 7.84 82.7507 7.48 82.1773 7.24C81.6173 6.98667 80.944 6.86 80.1573 6.86C79.0507 6.86 78.1907 7.15333 77.5773 7.74C76.964 8.31333 76.6573 9.08 76.6573 10.04C76.6573 10.68 76.804 11.24 77.0973 11.72C77.3907 12.1867 77.7973 12.5533 78.3173 12.82C78.8507 13.0867 79.464 13.22 80.1573 13.22ZM83.9773 5.06H86.5773V15H84.1573C84.1573 15 84.1373 14.8733 84.0973 14.62C84.0707 14.3533 84.044 14.02 84.0173 13.62C83.9907 13.22 83.9773 12.8267 83.9773 12.44V5.06ZM91.9105 0.699999V2.98H88.8905V0.699999H91.9105ZM89.0905 5.06H91.6905V15H89.0905V5.06ZM105.542 5.06L100.382 10.6L96.662 15H93.482L98.862 9.18L102.382 5.06H105.542ZM93.482 5.06H96.662L100.422 9.14L105.822 15H102.642L98.782 10.66L93.482 5.06ZM111.817 15.22C110.831 15.22 109.931 15.0067 109.117 14.58C108.317 14.14 107.677 13.5333 107.197 12.76C106.731 11.9733 106.497 11.0667 106.497 10.04C106.497 8.98667 106.737 8.07333 107.217 7.3C107.697 6.52667 108.344 5.92667 109.157 5.5C109.984 5.06 110.917 4.84 111.957 4.84C113.104 4.84 114.024 5.07333 114.717 5.54C115.424 5.99333 115.937 6.61333 116.257 7.4C116.577 8.18667 116.737 9.06667 116.737 10.04C116.737 10.6267 116.644 11.2267 116.457 11.84C116.271 12.44 115.984 13 115.597 13.52C115.211 14.0267 114.704 14.44 114.077 14.76C113.451 15.0667 112.697 15.22 111.817 15.22ZM112.657 13.22C113.444 13.22 114.124 13.0867 114.697 12.82C115.271 12.5533 115.711 12.18 116.017 11.7C116.324 11.22 116.477 10.6667 116.477 10.04C116.477 9.36 116.317 8.78667 115.997 8.32C115.691 7.84 115.251 7.48 114.677 7.24C114.117 6.98667 113.444 6.86 112.657 6.86C111.551 6.86 110.691 7.15333 110.077 7.74C109.464 8.31333 109.157 9.08 109.157 10.04C109.157 10.68 109.304 11.24 109.597 11.72C109.891 12.1867 110.297 12.5533 110.817 12.82C111.351 13.0867 111.964 13.22 112.657 13.22ZM116.477 5.06H119.077V15H116.657C116.657 15 116.637 14.8733 116.597 14.62C116.571 14.3533 116.544 14.02 116.517 13.62C116.491 13.22 116.477 12.8267 116.477 12.44V5.06ZM114.397 3C113.997 3 113.644 2.94 113.337 2.82C113.031 2.7 112.744 2.56 112.477 2.4C112.211 2.22667 111.944 2.08 111.677 1.96C111.411 1.84 111.117 1.78 110.797 1.78C110.517 1.78 110.291 1.84 110.117 1.96C109.957 2.08 109.831 2.23333 109.737 2.42C109.644 2.60667 109.557 2.79333 109.477 2.98H107.637C107.744 2.48667 107.917 2.03333 108.157 1.62C108.411 1.19333 108.737 0.853333 109.137 0.599999C109.537 0.333333 110.011 0.2 110.557 0.2C110.971 0.2 111.331 0.26 111.637 0.38C111.957 0.499999 112.251 0.646665 112.517 0.819999C112.797 0.979999 113.064 1.12 113.317 1.24C113.571 1.36 113.844 1.42 114.137 1.42C114.431 1.42 114.657 1.36 114.817 1.24C114.991 1.10667 115.124 0.946666 115.217 0.76C115.324 0.573333 115.411 0.393333 115.477 0.22H117.337C117.231 0.7 117.051 1.15333 116.797 1.58C116.557 2.00667 116.237 2.35333 115.837 2.62C115.437 2.87333 114.957 3 114.397 3ZM127.29 15.24C126.037 15.24 124.93 15.04 123.97 14.64C123.024 14.24 122.284 13.66 121.75 12.9C121.217 12.1267 120.95 11.18 120.95 10.06C120.95 8.94 121.217 7.99333 121.75 7.22C122.284 6.43333 123.024 5.84 123.97 5.44C124.93 5.04 126.037 4.84 127.29 4.84C128.544 4.84 129.637 5.04 130.57 5.44C131.517 5.84 132.257 6.43333 132.79 7.22C133.324 7.99333 133.59 8.94 133.59 10.06C133.59 11.18 133.324 12.1267 132.79 12.9C132.257 13.66 131.517 14.24 130.57 14.64C129.637 15.04 128.544 15.24 127.29 15.24ZM127.29 13.24C127.984 13.24 128.604 13.12 129.15 12.88C129.71 12.6267 130.15 12.2667 130.47 11.8C130.79 11.32 130.95 10.74 130.95 10.06C130.95 9.38 130.79 8.8 130.47 8.32C130.15 7.82667 129.717 7.45333 129.17 7.2C128.624 6.94667 127.997 6.82 127.29 6.82C126.597 6.82 125.97 6.94667 125.41 7.2C124.85 7.45333 124.404 7.82 124.07 8.3C123.75 8.78 123.59 9.36667 123.59 10.06C123.59 10.74 123.75 11.32 124.07 11.8C124.39 12.2667 124.83 12.6267 125.39 12.88C125.95 13.12 126.584 13.24 127.29 13.24Z" fill="black"/>
<path d="M166.062 2.5345C166.384 1.66389 167.616 1.66389 167.938 2.53451L169.001 5.40803C169.102 5.68175 169.318 5.89756 169.592 5.99885L172.465 7.06215C173.336 7.38431 173.336 8.61569 172.465 8.93785L169.592 10.0012C169.318 10.1024 169.102 10.3182 169.001 10.592L167.938 13.4655C167.616 14.3361 166.384 14.3361 166.062 13.4655L164.999 10.592C164.898 10.3182 164.682 10.1024 164.408 10.0012L161.535 8.93785C160.664 8.61569 160.664 7.38431 161.535 7.06215L164.408 5.99885C164.682 5.89756 164.898 5.68175 164.999 5.40803L166.062 2.5345Z" fill="black"/>
</svg>
