<svg width="1280" height="56" viewBox="0 0 1280 56" fill="none" xmlns="http://www.w3.org/2000/svg">
<rect width="3031" height="56" transform="translate(-133)" fill="#F472B6"/>
<path d="M-0.937851 22.5345C-0.615694 21.6639 0.615694 21.6639 0.937852 22.5345L2.00115 25.408C2.10244 25.6818 2.31825 25.8976 2.59197 25.9988L5.4655 27.0621C6.33611 27.3843 6.33611 28.6157 5.4655 28.9379L2.59197 30.0012C2.31825 30.1024 2.10244 30.3182 2.00115 30.592L0.937851 33.4655C0.615693 34.3361 -0.615694 34.3361 -0.937852 33.4655L-2.00115 30.592C-2.10244 30.3182 -2.31825 30.1024 -2.59197 30.0012L-5.4655 28.9379C-6.33611 28.6157 -6.33611 27.3843 -5.46549 27.0621L-2.59197 25.9988C-2.31825 25.8976 -2.10244 25.6818 -2.00115 25.408L-0.937851 22.5345Z" fill="black"/>
<path d="M40.94 22.06C42.3933 22.06 43.6067 22.2333 44.58 22.58C45.5533 22.9267 46.3267 23.4 46.9 24C47.4867 24.5867 47.9 25.2667 48.14 26.04C48.3933 26.8133 48.52 27.6267 48.52 28.48C48.52 29.3333 48.38 30.1533 48.1 30.94C47.8333 31.7267 47.4 32.4267 46.8 33.04C46.2133 33.64 45.4333 34.12 44.46 34.48C43.5 34.8267 42.3267 35 40.94 35H33.54V22.06H40.94ZM36.2 32.72H40.88C41.84 32.72 42.6333 32.6067 43.26 32.38C43.9 32.14 44.4067 31.82 44.78 31.42C45.1533 31.02 45.42 30.5667 45.58 30.06C45.74 29.5533 45.82 29.0267 45.82 28.48C45.82 27.9333 45.74 27.4133 45.58 26.92C45.42 26.4267 45.1533 25.9867 44.78 25.6C44.4067 25.2133 43.9 24.9067 43.26 24.68C42.6333 24.4533 41.84 24.34 40.88 24.34H36.2V32.72ZM56.6381 35.24C55.3848 35.24 54.2781 35.04 53.3181 34.64C52.3715 34.24 51.6315 33.66 51.0981 32.9C50.5648 32.1267 50.2981 31.18 50.2981 30.06C50.2981 28.94 50.5648 27.9933 51.0981 27.22C51.6315 26.4333 52.3715 25.84 53.3181 25.44C54.2781 25.04 55.3848 24.84 56.6381 24.84C57.8915 24.84 58.9848 25.04 59.9181 25.44C60.8648 25.84 61.6048 26.4333 62.1381 27.22C62.6715 27.9933 62.9381 28.94 62.9381 30.06C62.9381 31.18 62.6715 32.1267 62.1381 32.9C61.6048 33.66 60.8648 34.24 59.9181 34.64C58.9848 35.04 57.8915 35.24 56.6381 35.24ZM56.6381 33.24C57.3315 33.24 57.9515 33.12 58.4981 32.88C59.0581 32.6267 59.4981 32.2667 59.8181 31.8C60.1381 31.32 60.2981 30.74 60.2981 30.06C60.2981 29.38 60.1381 28.8 59.8181 28.32C59.4981 27.8267 59.0648 27.4533 58.5181 27.2C57.9715 26.9467 57.3448 26.82 56.6381 26.82C55.9448 26.82 55.3181 26.9467 54.7581 27.2C54.1981 27.4533 53.7515 27.82 53.4181 28.3C53.0981 28.78 52.9381 29.3667 52.9381 30.06C52.9381 30.74 53.0981 31.32 53.4181 31.8C53.7381 32.2667 54.1781 32.6267 54.7381 32.88C55.2981 33.12 55.9315 33.24 56.6381 33.24ZM76.6602 31.08C76.5935 31.9467 76.3135 32.6933 75.8202 33.32C75.3402 33.9467 74.6735 34.4267 73.8202 34.76C72.9668 35.08 71.9535 35.24 70.7802 35.24C69.5535 35.24 68.4535 35.0467 67.4802 34.66C66.5202 34.26 65.7602 33.68 65.2002 32.92C64.6535 32.1467 64.3802 31.1933 64.3802 30.06C64.3802 28.9267 64.6535 27.9733 65.2002 27.2C65.7602 26.4267 66.5202 25.84 67.4802 25.44C68.4535 25.04 69.5535 24.84 70.7802 24.84C71.9535 24.84 72.9602 25.0067 73.8002 25.34C74.6402 25.66 75.3002 26.1267 75.7802 26.74C76.2735 27.3533 76.5602 28.0933 76.6402 28.96H74.2602C74.0335 28.2933 73.6135 27.7733 73.0002 27.4C72.3868 27.0267 71.6468 26.84 70.7802 26.84C70.0868 26.84 69.4535 26.96 68.8802 27.2C68.3202 27.44 67.8668 27.8 67.5202 28.28C67.1868 28.7467 67.0202 29.34 67.0202 30.06C67.0202 30.7667 67.1868 31.36 67.5202 31.84C67.8535 32.3067 68.3068 32.66 68.8802 32.9C69.4535 33.1267 70.0868 33.24 70.7802 33.24C71.7135 33.24 72.4735 33.0533 73.0602 32.68C73.6602 32.3067 74.0668 31.7733 74.2802 31.08H76.6602ZM87.6311 31.7H90.1511C90.0444 32.38 89.7578 32.9867 89.2911 33.52C88.8378 34.0533 88.2178 34.4733 87.4311 34.78C86.6444 35.0867 85.6844 35.24 84.5511 35.24C83.2844 35.24 82.1644 35.04 81.1911 34.64C80.2178 34.2267 79.4578 33.6333 78.9111 32.86C78.3644 32.0867 78.0911 31.1533 78.0911 30.06C78.0911 28.9667 78.3578 28.0333 78.8911 27.26C79.4244 26.4733 80.1644 25.8733 81.1111 25.46C82.0711 25.0467 83.1911 24.84 84.4711 24.84C85.7778 24.84 86.8644 25.0467 87.7311 25.46C88.5978 25.8733 89.2378 26.5 89.6511 27.34C90.0778 28.1667 90.2578 29.2267 90.1911 30.52H80.7111C80.7778 31.0267 80.9644 31.4867 81.2711 31.9C81.5911 32.3133 82.0178 32.64 82.5511 32.88C83.0978 33.12 83.7444 33.24 84.4911 33.24C85.3178 33.24 86.0044 33.1 86.5511 32.82C87.1111 32.5267 87.4711 32.1533 87.6311 31.7ZM84.3511 26.82C83.3911 26.82 82.6111 27.0333 82.0111 27.46C81.4111 27.8733 81.0244 28.3867 80.8511 29H87.6111C87.5444 28.3333 87.2244 27.8067 86.6511 27.42C86.0911 27.02 85.3244 26.82 84.3511 26.82ZM99.59 30.8V28.68H105.51C106.217 28.68 106.777 28.4933 107.19 28.12C107.603 27.7333 107.81 27.2 107.81 26.52C107.81 25.8133 107.603 25.2733 107.19 24.9C106.777 24.5267 106.217 24.34 105.51 24.34H99.91V35H97.25V22.06H105.27C105.99 22.06 106.663 22.1467 107.29 22.32C107.93 22.4933 108.483 22.76 108.95 23.12C109.43 23.48 109.803 23.94 110.07 24.5C110.337 25.06 110.47 25.7333 110.47 26.52C110.47 27.2933 110.337 27.9533 110.07 28.5C109.803 29.0467 109.43 29.4933 108.95 29.84C108.483 30.1733 107.93 30.42 107.29 30.58C106.663 30.7267 105.99 30.8 105.27 30.8H99.59ZM117.142 35.22C116.155 35.22 115.255 35.0067 114.442 34.58C113.642 34.14 113.002 33.5333 112.522 32.76C112.055 31.9733 111.822 31.0667 111.822 30.04C111.822 28.9867 112.062 28.0733 112.542 27.3C113.022 26.5267 113.668 25.9267 114.482 25.5C115.308 25.06 116.242 24.84 117.282 24.84C118.428 24.84 119.348 25.0733 120.042 25.54C120.748 25.9933 121.262 26.6133 121.582 27.4C121.902 28.1867 122.062 29.0667 122.062 30.04C122.062 30.6267 121.968 31.2267 121.782 31.84C121.595 32.44 121.308 33 120.922 33.52C120.535 34.0267 120.028 34.44 119.402 34.76C118.775 35.0667 118.022 35.22 117.142 35.22ZM117.982 33.22C118.768 33.22 119.448 33.0867 120.022 32.82C120.595 32.5533 121.035 32.18 121.342 31.7C121.648 31.22 121.802 30.6667 121.802 30.04C121.802 29.36 121.642 28.7867 121.322 28.32C121.015 27.84 120.575 27.48 120.002 27.24C119.442 26.9867 118.768 26.86 117.982 26.86C116.875 26.86 116.015 27.1533 115.402 27.74C114.788 28.3133 114.482 29.08 114.482 30.04C114.482 30.68 114.628 31.24 114.922 31.72C115.215 32.1867 115.622 32.5533 116.142 32.82C116.675 33.0867 117.288 33.22 117.982 33.22ZM121.802 25.06H124.402V35H121.982C121.982 35 121.962 34.8733 121.922 34.62C121.895 34.3533 121.868 34.02 121.842 33.62C121.815 33.22 121.802 32.8267 121.802 32.44V25.06ZM129.735 20.7V22.98H126.715V20.7H129.735ZM126.915 25.06H129.515V35H126.915V25.06ZM143.366 25.06L138.206 30.6L134.486 35H131.306L136.686 29.18L140.206 25.06H143.366ZM131.306 25.06H134.486L138.246 29.14L143.646 35H140.466L136.606 30.66L131.306 25.06ZM149.642 35.22C148.655 35.22 147.755 35.0067 146.942 34.58C146.142 34.14 145.502 33.5333 145.022 32.76C144.555 31.9733 144.322 31.0667 144.322 30.04C144.322 28.9867 144.562 28.0733 145.042 27.3C145.522 26.5267 146.168 25.9267 146.982 25.5C147.808 25.06 148.742 24.84 149.782 24.84C150.928 24.84 151.848 25.0733 152.542 25.54C153.248 25.9933 153.762 26.6133 154.082 27.4C154.402 28.1867 154.562 29.0667 154.562 30.04C154.562 30.6267 154.468 31.2267 154.282 31.84C154.095 32.44 153.808 33 153.422 33.52C153.035 34.0267 152.528 34.44 151.902 34.76C151.275 35.0667 150.522 35.22 149.642 35.22ZM150.482 33.22C151.268 33.22 151.948 33.0867 152.522 32.82C153.095 32.5533 153.535 32.18 153.842 31.7C154.148 31.22 154.302 30.6667 154.302 30.04C154.302 29.36 154.142 28.7867 153.822 28.32C153.515 27.84 153.075 27.48 152.502 27.24C151.942 26.9867 151.268 26.86 150.482 26.86C149.375 26.86 148.515 27.1533 147.902 27.74C147.288 28.3133 146.982 29.08 146.982 30.04C146.982 30.68 147.128 31.24 147.422 31.72C147.715 32.1867 148.122 32.5533 148.642 32.82C149.175 33.0867 149.788 33.22 150.482 33.22ZM154.302 25.06H156.902V35H154.482C154.482 35 154.462 34.8733 154.422 34.62C154.395 34.3533 154.368 34.02 154.342 33.62C154.315 33.22 154.302 32.8267 154.302 32.44V25.06ZM152.222 23C151.822 23 151.468 22.94 151.162 22.82C150.855 22.7 150.568 22.56 150.302 22.4C150.035 22.2267 149.768 22.08 149.502 21.96C149.235 21.84 148.942 21.78 148.622 21.78C148.342 21.78 148.115 21.84 147.942 21.96C147.782 22.08 147.655 22.2333 147.562 22.42C147.468 22.6067 147.382 22.7933 147.302 22.98H145.462C145.568 22.4867 145.742 22.0333 145.982 21.62C146.235 21.1933 146.562 20.8533 146.962 20.6C147.362 20.3333 147.835 20.2 148.382 20.2C148.795 20.2 149.155 20.26 149.462 20.38C149.782 20.5 150.075 20.6467 150.342 20.82C150.622 20.98 150.888 21.12 151.142 21.24C151.395 21.36 151.668 21.42 151.962 21.42C152.255 21.42 152.482 21.36 152.642 21.24C152.815 21.1067 152.948 20.9467 153.042 20.76C153.148 20.5733 153.235 20.3933 153.302 20.22H155.162C155.055 20.7 154.875 21.1533 154.622 21.58C154.382 22.0067 154.062 22.3533 153.662 22.62C153.262 22.8733 152.782 23 152.222 23ZM165.115 35.24C163.861 35.24 162.755 35.04 161.795 34.64C160.848 34.24 160.108 33.66 159.575 32.9C159.041 32.1267 158.775 31.18 158.775 30.06C158.775 28.94 159.041 27.9933 159.575 27.22C160.108 26.4333 160.848 25.84 161.795 25.44C162.755 25.04 163.861 24.84 165.115 24.84C166.368 24.84 167.461 25.04 168.395 25.44C169.341 25.84 170.081 26.4333 170.615 27.22C171.148 27.9933 171.415 28.94 171.415 30.06C171.415 31.18 171.148 32.1267 170.615 32.9C170.081 33.66 169.341 34.24 168.395 34.64C167.461 35.04 166.368 35.24 165.115 35.24ZM165.115 33.24C165.808 33.24 166.428 33.12 166.975 32.88C167.535 32.6267 167.975 32.2667 168.295 31.8C168.615 31.32 168.775 30.74 168.775 30.06C168.775 29.38 168.615 28.8 168.295 28.32C167.975 27.8267 167.541 27.4533 166.995 27.2C166.448 26.9467 165.821 26.82 165.115 26.82C164.421 26.82 163.795 26.9467 163.235 27.2C162.675 27.4533 162.228 27.82 161.895 28.3C161.575 28.78 161.415 29.3667 161.415 30.06C161.415 30.74 161.575 31.32 161.895 31.8C162.215 32.2667 162.655 32.6267 163.215 32.88C163.775 33.12 164.408 33.24 165.115 33.24Z" fill="black"/>
<path d="M204.062 22.5345C204.384 21.6639 205.616 21.6639 205.938 22.5345L207.001 25.408C207.102 25.6818 207.318 25.8976 207.592 25.9988L210.465 27.0621C211.336 27.3843 211.336 28.6157 210.465 28.9379L207.592 30.0012C207.318 30.1024 207.102 30.3182 207.001 30.592L205.938 33.4655C205.616 34.3361 204.384 34.3361 204.062 33.4655L202.999 30.592C202.898 30.3182 202.682 30.1024 202.408 30.0012L199.535 28.9379C198.664 28.6157 198.664 27.3843 199.535 27.0621L202.408 25.9988C202.682 25.8976 202.898 25.6818 202.999 25.408L204.062 22.5345Z" fill="black"/>
<path d="M245.94 22.06C247.393 22.06 248.607 22.2333 249.58 22.58C250.553 22.9267 251.327 23.4 251.9 24C252.487 24.5867 252.9 25.2667 253.14 26.04C253.393 26.8133 253.52 27.6267 253.52 28.48C253.52 29.3333 253.38 30.1533 253.1 30.94C252.833 31.7267 252.4 32.4267 251.8 33.04C251.213 33.64 250.433 34.12 249.46 34.48C248.5 34.8267 247.327 35 245.94 35H238.54V22.06H245.94ZM241.2 32.72H245.88C246.84 32.72 247.633 32.6067 248.26 32.38C248.9 32.14 249.407 31.82 249.78 31.42C250.153 31.02 250.42 30.5667 250.58 30.06C250.74 29.5533 250.82 29.0267 250.82 28.48C250.82 27.9333 250.74 27.4133 250.58 26.92C250.42 26.4267 250.153 25.9867 249.78 25.6C249.407 25.2133 248.9 24.9067 248.26 24.68C247.633 24.4533 246.84 24.34 245.88 24.34H241.2V32.72ZM261.638 35.24C260.385 35.24 259.278 35.04 258.318 34.64C257.371 34.24 256.631 33.66 256.098 32.9C255.565 32.1267 255.298 31.18 255.298 30.06C255.298 28.94 255.565 27.9933 256.098 27.22C256.631 26.4333 257.371 25.84 258.318 25.44C259.278 25.04 260.385 24.84 261.638 24.84C262.891 24.84 263.985 25.04 264.918 25.44C265.865 25.84 266.605 26.4333 267.138 27.22C267.671 27.9933 267.938 28.94 267.938 30.06C267.938 31.18 267.671 32.1267 267.138 32.9C266.605 33.66 265.865 34.24 264.918 34.64C263.985 35.04 262.891 35.24 261.638 35.24ZM261.638 33.24C262.331 33.24 262.951 33.12 263.498 32.88C264.058 32.6267 264.498 32.2667 264.818 31.8C265.138 31.32 265.298 30.74 265.298 30.06C265.298 29.38 265.138 28.8 264.818 28.32C264.498 27.8267 264.065 27.4533 263.518 27.2C262.971 26.9467 262.345 26.82 261.638 26.82C260.945 26.82 260.318 26.9467 259.758 27.2C259.198 27.4533 258.751 27.82 258.418 28.3C258.098 28.78 257.938 29.3667 257.938 30.06C257.938 30.74 258.098 31.32 258.418 31.8C258.738 32.2667 259.178 32.6267 259.738 32.88C260.298 33.12 260.931 33.24 261.638 33.24ZM281.66 31.08C281.593 31.9467 281.313 32.6933 280.82 33.32C280.34 33.9467 279.673 34.4267 278.82 34.76C277.967 35.08 276.953 35.24 275.78 35.24C274.553 35.24 273.453 35.0467 272.48 34.66C271.52 34.26 270.76 33.68 270.2 32.92C269.653 32.1467 269.38 31.1933 269.38 30.06C269.38 28.9267 269.653 27.9733 270.2 27.2C270.76 26.4267 271.52 25.84 272.48 25.44C273.453 25.04 274.553 24.84 275.78 24.84C276.953 24.84 277.96 25.0067 278.8 25.34C279.64 25.66 280.3 26.1267 280.78 26.74C281.273 27.3533 281.56 28.0933 281.64 28.96H279.26C279.033 28.2933 278.613 27.7733 278 27.4C277.387 27.0267 276.647 26.84 275.78 26.84C275.087 26.84 274.453 26.96 273.88 27.2C273.32 27.44 272.867 27.8 272.52 28.28C272.187 28.7467 272.02 29.34 272.02 30.06C272.02 30.7667 272.187 31.36 272.52 31.84C272.853 32.3067 273.307 32.66 273.88 32.9C274.453 33.1267 275.087 33.24 275.78 33.24C276.713 33.24 277.473 33.0533 278.06 32.68C278.66 32.3067 279.067 31.7733 279.28 31.08H281.66ZM292.631 31.7H295.151C295.044 32.38 294.758 32.9867 294.291 33.52C293.838 34.0533 293.218 34.4733 292.431 34.78C291.644 35.0867 290.684 35.24 289.551 35.24C288.284 35.24 287.164 35.04 286.191 34.64C285.218 34.2267 284.458 33.6333 283.911 32.86C283.364 32.0867 283.091 31.1533 283.091 30.06C283.091 28.9667 283.358 28.0333 283.891 27.26C284.424 26.4733 285.164 25.8733 286.111 25.46C287.071 25.0467 288.191 24.84 289.471 24.84C290.778 24.84 291.864 25.0467 292.731 25.46C293.598 25.8733 294.238 26.5 294.651 27.34C295.078 28.1667 295.258 29.2267 295.191 30.52H285.711C285.778 31.0267 285.964 31.4867 286.271 31.9C286.591 32.3133 287.018 32.64 287.551 32.88C288.098 33.12 288.744 33.24 289.491 33.24C290.318 33.24 291.004 33.1 291.551 32.82C292.111 32.5267 292.471 32.1533 292.631 31.7ZM289.351 26.82C288.391 26.82 287.611 27.0333 287.011 27.46C286.411 27.8733 286.024 28.3867 285.851 29H292.611C292.544 28.3333 292.224 27.8067 291.651 27.42C291.091 27.02 290.324 26.82 289.351 26.82ZM304.59 30.8V28.68H310.51C311.217 28.68 311.777 28.4933 312.19 28.12C312.603 27.7333 312.81 27.2 312.81 26.52C312.81 25.8133 312.603 25.2733 312.19 24.9C311.777 24.5267 311.217 24.34 310.51 24.34H304.91V35H302.25V22.06H310.27C310.99 22.06 311.663 22.1467 312.29 22.32C312.93 22.4933 313.483 22.76 313.95 23.12C314.43 23.48 314.803 23.94 315.07 24.5C315.337 25.06 315.47 25.7333 315.47 26.52C315.47 27.2933 315.337 27.9533 315.07 28.5C314.803 29.0467 314.43 29.4933 313.95 29.84C313.483 30.1733 312.93 30.42 312.29 30.58C311.663 30.7267 310.99 30.8 310.27 30.8H304.59ZM322.142 35.22C321.155 35.22 320.255 35.0067 319.442 34.58C318.642 34.14 318.002 33.5333 317.522 32.76C317.055 31.9733 316.822 31.0667 316.822 30.04C316.822 28.9867 317.062 28.0733 317.542 27.3C318.022 26.5267 318.668 25.9267 319.482 25.5C320.308 25.06 321.242 24.84 322.282 24.84C323.428 24.84 324.348 25.0733 325.042 25.54C325.748 25.9933 326.262 26.6133 326.582 27.4C326.902 28.1867 327.062 29.0667 327.062 30.04C327.062 30.6267 326.968 31.2267 326.782 31.84C326.595 32.44 326.308 33 325.922 33.52C325.535 34.0267 325.028 34.44 324.402 34.76C323.775 35.0667 323.022 35.22 322.142 35.22ZM322.982 33.22C323.768 33.22 324.448 33.0867 325.022 32.82C325.595 32.5533 326.035 32.18 326.342 31.7C326.648 31.22 326.802 30.6667 326.802 30.04C326.802 29.36 326.642 28.7867 326.322 28.32C326.015 27.84 325.575 27.48 325.002 27.24C324.442 26.9867 323.768 26.86 322.982 26.86C321.875 26.86 321.015 27.1533 320.402 27.74C319.788 28.3133 319.482 29.08 319.482 30.04C319.482 30.68 319.628 31.24 319.922 31.72C320.215 32.1867 320.622 32.5533 321.142 32.82C321.675 33.0867 322.288 33.22 322.982 33.22ZM326.802 25.06H329.402V35H326.982C326.982 35 326.962 34.8733 326.922 34.62C326.895 34.3533 326.868 34.02 326.842 33.62C326.815 33.22 326.802 32.8267 326.802 32.44V25.06ZM334.735 20.7V22.98H331.715V20.7H334.735ZM331.915 25.06H334.515V35H331.915V25.06ZM348.366 25.06L343.206 30.6L339.486 35H336.306L341.686 29.18L345.206 25.06H348.366ZM336.306 25.06H339.486L343.246 29.14L348.646 35H345.466L341.606 30.66L336.306 25.06ZM354.642 35.22C353.655 35.22 352.755 35.0067 351.942 34.58C351.142 34.14 350.502 33.5333 350.022 32.76C349.555 31.9733 349.322 31.0667 349.322 30.04C349.322 28.9867 349.562 28.0733 350.042 27.3C350.522 26.5267 351.168 25.9267 351.982 25.5C352.808 25.06 353.742 24.84 354.782 24.84C355.928 24.84 356.848 25.0733 357.542 25.54C358.248 25.9933 358.762 26.6133 359.082 27.4C359.402 28.1867 359.562 29.0667 359.562 30.04C359.562 30.6267 359.468 31.2267 359.282 31.84C359.095 32.44 358.808 33 358.422 33.52C358.035 34.0267 357.528 34.44 356.902 34.76C356.275 35.0667 355.522 35.22 354.642 35.22ZM355.482 33.22C356.268 33.22 356.948 33.0867 357.522 32.82C358.095 32.5533 358.535 32.18 358.842 31.7C359.148 31.22 359.302 30.6667 359.302 30.04C359.302 29.36 359.142 28.7867 358.822 28.32C358.515 27.84 358.075 27.48 357.502 27.24C356.942 26.9867 356.268 26.86 355.482 26.86C354.375 26.86 353.515 27.1533 352.902 27.74C352.288 28.3133 351.982 29.08 351.982 30.04C351.982 30.68 352.128 31.24 352.422 31.72C352.715 32.1867 353.122 32.5533 353.642 32.82C354.175 33.0867 354.788 33.22 355.482 33.22ZM359.302 25.06H361.902V35H359.482C359.482 35 359.462 34.8733 359.422 34.62C359.395 34.3533 359.368 34.02 359.342 33.62C359.315 33.22 359.302 32.8267 359.302 32.44V25.06ZM357.222 23C356.822 23 356.468 22.94 356.162 22.82C355.855 22.7 355.568 22.56 355.302 22.4C355.035 22.2267 354.768 22.08 354.502 21.96C354.235 21.84 353.942 21.78 353.622 21.78C353.342 21.78 353.115 21.84 352.942 21.96C352.782 22.08 352.655 22.2333 352.562 22.42C352.468 22.6067 352.382 22.7933 352.302 22.98H350.462C350.568 22.4867 350.742 22.0333 350.982 21.62C351.235 21.1933 351.562 20.8533 351.962 20.6C352.362 20.3333 352.835 20.2 353.382 20.2C353.795 20.2 354.155 20.26 354.462 20.38C354.782 20.5 355.075 20.6467 355.342 20.82C355.622 20.98 355.888 21.12 356.142 21.24C356.395 21.36 356.668 21.42 356.962 21.42C357.255 21.42 357.482 21.36 357.642 21.24C357.815 21.1067 357.948 20.9467 358.042 20.76C358.148 20.5733 358.235 20.3933 358.302 20.22H360.162C360.055 20.7 359.875 21.1533 359.622 21.58C359.382 22.0067 359.062 22.3533 358.662 22.62C358.262 22.8733 357.782 23 357.222 23ZM370.115 35.24C368.861 35.24 367.755 35.04 366.795 34.64C365.848 34.24 365.108 33.66 364.575 32.9C364.041 32.1267 363.775 31.18 363.775 30.06C363.775 28.94 364.041 27.9933 364.575 27.22C365.108 26.4333 365.848 25.84 366.795 25.44C367.755 25.04 368.861 24.84 370.115 24.84C371.368 24.84 372.461 25.04 373.395 25.44C374.341 25.84 375.081 26.4333 375.615 27.22C376.148 27.9933 376.415 28.94 376.415 30.06C376.415 31.18 376.148 32.1267 375.615 32.9C375.081 33.66 374.341 34.24 373.395 34.64C372.461 35.04 371.368 35.24 370.115 35.24ZM370.115 33.24C370.808 33.24 371.428 33.12 371.975 32.88C372.535 32.6267 372.975 32.2667 373.295 31.8C373.615 31.32 373.775 30.74 373.775 30.06C373.775 29.38 373.615 28.8 373.295 28.32C372.975 27.8267 372.541 27.4533 371.995 27.2C371.448 26.9467 370.821 26.82 370.115 26.82C369.421 26.82 368.795 26.9467 368.235 27.2C367.675 27.4533 367.228 27.82 366.895 28.3C366.575 28.78 366.415 29.3667 366.415 30.06C366.415 30.74 366.575 31.32 366.895 31.8C367.215 32.2667 367.655 32.6267 368.215 32.88C368.775 33.12 369.408 33.24 370.115 33.24Z" fill="black"/>
<path d="M409.062 22.5345C409.384 21.6639 410.616 21.6639 410.938 22.5345L412.001 25.408C412.102 25.6818 412.318 25.8976 412.592 25.9988L415.465 27.0621C416.336 27.3843 416.336 28.6157 415.465 28.9379L412.592 30.0012C412.318 30.1024 412.102 30.3182 412.001 30.592L410.938 33.4655C410.616 34.3361 409.384 34.3361 409.062 33.4655L407.999 30.592C407.898 30.3182 407.682 30.1024 407.408 30.0012L404.535 28.9379C403.664 28.6157 403.664 27.3843 404.535 27.0621L407.408 25.9988C407.682 25.8976 407.898 25.6818 407.999 25.408L409.062 22.5345Z" fill="black"/>
<path d="M450.94 22.06C452.393 22.06 453.607 22.2333 454.58 22.58C455.553 22.9267 456.327 23.4 456.9 24C457.487 24.5867 457.9 25.2667 458.14 26.04C458.393 26.8133 458.52 27.6267 458.52 28.48C458.52 29.3333 458.38 30.1533 458.1 30.94C457.833 31.7267 457.4 32.4267 456.8 33.04C456.213 33.64 455.433 34.12 454.46 34.48C453.5 34.8267 452.327 35 450.94 35H443.54V22.06H450.94ZM446.2 32.72H450.88C451.84 32.72 452.633 32.6067 453.26 32.38C453.9 32.14 454.407 31.82 454.78 31.42C455.153 31.02 455.42 30.5667 455.58 30.06C455.74 29.5533 455.82 29.0267 455.82 28.48C455.82 27.9333 455.74 27.4133 455.58 26.92C455.42 26.4267 455.153 25.9867 454.78 25.6C454.407 25.2133 453.9 24.9067 453.26 24.68C452.633 24.4533 451.84 24.34 450.88 24.34H446.2V32.72ZM466.638 35.24C465.385 35.24 464.278 35.04 463.318 34.64C462.371 34.24 461.631 33.66 461.098 32.9C460.565 32.1267 460.298 31.18 460.298 30.06C460.298 28.94 460.565 27.9933 461.098 27.22C461.631 26.4333 462.371 25.84 463.318 25.44C464.278 25.04 465.385 24.84 466.638 24.84C467.891 24.84 468.985 25.04 469.918 25.44C470.865 25.84 471.605 26.4333 472.138 27.22C472.671 27.9933 472.938 28.94 472.938 30.06C472.938 31.18 472.671 32.1267 472.138 32.9C471.605 33.66 470.865 34.24 469.918 34.64C468.985 35.04 467.891 35.24 466.638 35.24ZM466.638 33.24C467.331 33.24 467.951 33.12 468.498 32.88C469.058 32.6267 469.498 32.2667 469.818 31.8C470.138 31.32 470.298 30.74 470.298 30.06C470.298 29.38 470.138 28.8 469.818 28.32C469.498 27.8267 469.065 27.4533 468.518 27.2C467.971 26.9467 467.345 26.82 466.638 26.82C465.945 26.82 465.318 26.9467 464.758 27.2C464.198 27.4533 463.751 27.82 463.418 28.3C463.098 28.78 462.938 29.3667 462.938 30.06C462.938 30.74 463.098 31.32 463.418 31.8C463.738 32.2667 464.178 32.6267 464.738 32.88C465.298 33.12 465.931 33.24 466.638 33.24ZM486.66 31.08C486.593 31.9467 486.313 32.6933 485.82 33.32C485.34 33.9467 484.673 34.4267 483.82 34.76C482.967 35.08 481.953 35.24 480.78 35.24C479.553 35.24 478.453 35.0467 477.48 34.66C476.52 34.26 475.76 33.68 475.2 32.92C474.653 32.1467 474.38 31.1933 474.38 30.06C474.38 28.9267 474.653 27.9733 475.2 27.2C475.76 26.4267 476.52 25.84 477.48 25.44C478.453 25.04 479.553 24.84 480.78 24.84C481.953 24.84 482.96 25.0067 483.8 25.34C484.64 25.66 485.3 26.1267 485.78 26.74C486.273 27.3533 486.56 28.0933 486.64 28.96H484.26C484.033 28.2933 483.613 27.7733 483 27.4C482.387 27.0267 481.647 26.84 480.78 26.84C480.087 26.84 479.453 26.96 478.88 27.2C478.32 27.44 477.867 27.8 477.52 28.28C477.187 28.7467 477.02 29.34 477.02 30.06C477.02 30.7667 477.187 31.36 477.52 31.84C477.853 32.3067 478.307 32.66 478.88 32.9C479.453 33.1267 480.087 33.24 480.78 33.24C481.713 33.24 482.473 33.0533 483.06 32.68C483.66 32.3067 484.067 31.7733 484.28 31.08H486.66ZM497.631 31.7H500.151C500.044 32.38 499.758 32.9867 499.291 33.52C498.838 34.0533 498.218 34.4733 497.431 34.78C496.644 35.0867 495.684 35.24 494.551 35.24C493.284 35.24 492.164 35.04 491.191 34.64C490.218 34.2267 489.458 33.6333 488.911 32.86C488.364 32.0867 488.091 31.1533 488.091 30.06C488.091 28.9667 488.358 28.0333 488.891 27.26C489.424 26.4733 490.164 25.8733 491.111 25.46C492.071 25.0467 493.191 24.84 494.471 24.84C495.778 24.84 496.864 25.0467 497.731 25.46C498.598 25.8733 499.238 26.5 499.651 27.34C500.078 28.1667 500.258 29.2267 500.191 30.52H490.711C490.778 31.0267 490.964 31.4867 491.271 31.9C491.591 32.3133 492.018 32.64 492.551 32.88C493.098 33.12 493.744 33.24 494.491 33.24C495.318 33.24 496.004 33.1 496.551 32.82C497.111 32.5267 497.471 32.1533 497.631 31.7ZM494.351 26.82C493.391 26.82 492.611 27.0333 492.011 27.46C491.411 27.8733 491.024 28.3867 490.851 29H497.611C497.544 28.3333 497.224 27.8067 496.651 27.42C496.091 27.02 495.324 26.82 494.351 26.82ZM509.59 30.8V28.68H515.51C516.217 28.68 516.777 28.4933 517.19 28.12C517.603 27.7333 517.81 27.2 517.81 26.52C517.81 25.8133 517.603 25.2733 517.19 24.9C516.777 24.5267 516.217 24.34 515.51 24.34H509.91V35H507.25V22.06H515.27C515.99 22.06 516.663 22.1467 517.29 22.32C517.93 22.4933 518.483 22.76 518.95 23.12C519.43 23.48 519.803 23.94 520.07 24.5C520.337 25.06 520.47 25.7333 520.47 26.52C520.47 27.2933 520.337 27.9533 520.07 28.5C519.803 29.0467 519.43 29.4933 518.95 29.84C518.483 30.1733 517.93 30.42 517.29 30.58C516.663 30.7267 515.99 30.8 515.27 30.8H509.59ZM527.142 35.22C526.155 35.22 525.255 35.0067 524.442 34.58C523.642 34.14 523.002 33.5333 522.522 32.76C522.055 31.9733 521.822 31.0667 521.822 30.04C521.822 28.9867 522.062 28.0733 522.542 27.3C523.022 26.5267 523.668 25.9267 524.482 25.5C525.308 25.06 526.242 24.84 527.282 24.84C528.428 24.84 529.348 25.0733 530.042 25.54C530.748 25.9933 531.262 26.6133 531.582 27.4C531.902 28.1867 532.062 29.0667 532.062 30.04C532.062 30.6267 531.968 31.2267 531.782 31.84C531.595 32.44 531.308 33 530.922 33.52C530.535 34.0267 530.028 34.44 529.402 34.76C528.775 35.0667 528.022 35.22 527.142 35.22ZM527.982 33.22C528.768 33.22 529.448 33.0867 530.022 32.82C530.595 32.5533 531.035 32.18 531.342 31.7C531.648 31.22 531.802 30.6667 531.802 30.04C531.802 29.36 531.642 28.7867 531.322 28.32C531.015 27.84 530.575 27.48 530.002 27.24C529.442 26.9867 528.768 26.86 527.982 26.86C526.875 26.86 526.015 27.1533 525.402 27.74C524.788 28.3133 524.482 29.08 524.482 30.04C524.482 30.68 524.628 31.24 524.922 31.72C525.215 32.1867 525.622 32.5533 526.142 32.82C526.675 33.0867 527.288 33.22 527.982 33.22ZM531.802 25.06H534.402V35H531.982C531.982 35 531.962 34.8733 531.922 34.62C531.895 34.3533 531.868 34.02 531.842 33.62C531.815 33.22 531.802 32.8267 531.802 32.44V25.06ZM539.735 20.7V22.98H536.715V20.7H539.735ZM536.915 25.06H539.515V35H536.915V25.06ZM553.366 25.06L548.206 30.6L544.486 35H541.306L546.686 29.18L550.206 25.06H553.366ZM541.306 25.06H544.486L548.246 29.14L553.646 35H550.466L546.606 30.66L541.306 25.06ZM559.642 35.22C558.655 35.22 557.755 35.0067 556.942 34.58C556.142 34.14 555.502 33.5333 555.022 32.76C554.555 31.9733 554.322 31.0667 554.322 30.04C554.322 28.9867 554.562 28.0733 555.042 27.3C555.522 26.5267 556.168 25.9267 556.982 25.5C557.808 25.06 558.742 24.84 559.782 24.84C560.928 24.84 561.848 25.0733 562.542 25.54C563.248 25.9933 563.762 26.6133 564.082 27.4C564.402 28.1867 564.562 29.0667 564.562 30.04C564.562 30.6267 564.468 31.2267 564.282 31.84C564.095 32.44 563.808 33 563.422 33.52C563.035 34.0267 562.528 34.44 561.902 34.76C561.275 35.0667 560.522 35.22 559.642 35.22ZM560.482 33.22C561.268 33.22 561.948 33.0867 562.522 32.82C563.095 32.5533 563.535 32.18 563.842 31.7C564.148 31.22 564.302 30.6667 564.302 30.04C564.302 29.36 564.142 28.7867 563.822 28.32C563.515 27.84 563.075 27.48 562.502 27.24C561.942 26.9867 561.268 26.86 560.482 26.86C559.375 26.86 558.515 27.1533 557.902 27.74C557.288 28.3133 556.982 29.08 556.982 30.04C556.982 30.68 557.128 31.24 557.422 31.72C557.715 32.1867 558.122 32.5533 558.642 32.82C559.175 33.0867 559.788 33.22 560.482 33.22ZM564.302 25.06H566.902V35H564.482C564.482 35 564.462 34.8733 564.422 34.62C564.395 34.3533 564.368 34.02 564.342 33.62C564.315 33.22 564.302 32.8267 564.302 32.44V25.06ZM562.222 23C561.822 23 561.468 22.94 561.162 22.82C560.855 22.7 560.568 22.56 560.302 22.4C560.035 22.2267 559.768 22.08 559.502 21.96C559.235 21.84 558.942 21.78 558.622 21.78C558.342 21.78 558.115 21.84 557.942 21.96C557.782 22.08 557.655 22.2333 557.562 22.42C557.468 22.6067 557.382 22.7933 557.302 22.98H555.462C555.568 22.4867 555.742 22.0333 555.982 21.62C556.235 21.1933 556.562 20.8533 556.962 20.6C557.362 20.3333 557.835 20.2 558.382 20.2C558.795 20.2 559.155 20.26 559.462 20.38C559.782 20.5 560.075 20.6467 560.342 20.82C560.622 20.98 560.888 21.12 561.142 21.24C561.395 21.36 561.668 21.42 561.962 21.42C562.255 21.42 562.482 21.36 562.642 21.24C562.815 21.1067 562.948 20.9467 563.042 20.76C563.148 20.5733 563.235 20.3933 563.302 20.22H565.162C565.055 20.7 564.875 21.1533 564.622 21.58C564.382 22.0067 564.062 22.3533 563.662 22.62C563.262 22.8733 562.782 23 562.222 23ZM575.115 35.24C573.861 35.24 572.755 35.04 571.795 34.64C570.848 34.24 570.108 33.66 569.575 32.9C569.041 32.1267 568.775 31.18 568.775 30.06C568.775 28.94 569.041 27.9933 569.575 27.22C570.108 26.4333 570.848 25.84 571.795 25.44C572.755 25.04 573.861 24.84 575.115 24.84C576.368 24.84 577.461 25.04 578.395 25.44C579.341 25.84 580.081 26.4333 580.615 27.22C581.148 27.9933 581.415 28.94 581.415 30.06C581.415 31.18 581.148 32.1267 580.615 32.9C580.081 33.66 579.341 34.24 578.395 34.64C577.461 35.04 576.368 35.24 575.115 35.24ZM575.115 33.24C575.808 33.24 576.428 33.12 576.975 32.88C577.535 32.6267 577.975 32.2667 578.295 31.8C578.615 31.32 578.775 30.74 578.775 30.06C578.775 29.38 578.615 28.8 578.295 28.32C577.975 27.8267 577.541 27.4533 576.995 27.2C576.448 26.9467 575.821 26.82 575.115 26.82C574.421 26.82 573.795 26.9467 573.235 27.2C572.675 27.4533 572.228 27.82 571.895 28.3C571.575 28.78 571.415 29.3667 571.415 30.06C571.415 30.74 571.575 31.32 571.895 31.8C572.215 32.2667 572.655 32.6267 573.215 32.88C573.775 33.12 574.408 33.24 575.115 33.24Z" fill="black"/>
<path d="M614.062 22.5345C614.384 21.6639 615.616 21.6639 615.938 22.5345L617.001 25.408C617.102 25.6818 617.318 25.8976 617.592 25.9988L620.465 27.0621C621.336 27.3843 621.336 28.6157 620.465 28.9379L617.592 30.0012C617.318 30.1024 617.102 30.3182 617.001 30.592L615.938 33.4655C615.616 34.3361 614.384 34.3361 614.062 33.4655L612.999 30.592C612.898 30.3182 612.682 30.1024 612.408 30.0012L609.535 28.9379C608.664 28.6157 608.664 27.3843 609.535 27.0621L612.408 25.9988C612.682 25.8976 612.898 25.6818 612.999 25.408L614.062 22.5345Z" fill="black"/>
<path d="M655.94 22.06C657.393 22.06 658.607 22.2333 659.58 22.58C660.553 22.9267 661.327 23.4 661.9 24C662.487 24.5867 662.9 25.2667 663.14 26.04C663.393 26.8133 663.52 27.6267 663.52 28.48C663.52 29.3333 663.38 30.1533 663.1 30.94C662.833 31.7267 662.4 32.4267 661.8 33.04C661.213 33.64 660.433 34.12 659.46 34.48C658.5 34.8267 657.327 35 655.94 35H648.54V22.06H655.94ZM651.2 32.72H655.88C656.84 32.72 657.633 32.6067 658.26 32.38C658.9 32.14 659.407 31.82 659.78 31.42C660.153 31.02 660.42 30.5667 660.58 30.06C660.74 29.5533 660.82 29.0267 660.82 28.48C660.82 27.9333 660.74 27.4133 660.58 26.92C660.42 26.4267 660.153 25.9867 659.78 25.6C659.407 25.2133 658.9 24.9067 658.26 24.68C657.633 24.4533 656.84 24.34 655.88 24.34H651.2V32.72ZM671.638 35.24C670.385 35.24 669.278 35.04 668.318 34.64C667.371 34.24 666.631 33.66 666.098 32.9C665.565 32.1267 665.298 31.18 665.298 30.06C665.298 28.94 665.565 27.9933 666.098 27.22C666.631 26.4333 667.371 25.84 668.318 25.44C669.278 25.04 670.385 24.84 671.638 24.84C672.891 24.84 673.985 25.04 674.918 25.44C675.865 25.84 676.605 26.4333 677.138 27.22C677.671 27.9933 677.938 28.94 677.938 30.06C677.938 31.18 677.671 32.1267 677.138 32.9C676.605 33.66 675.865 34.24 674.918 34.64C673.985 35.04 672.891 35.24 671.638 35.24ZM671.638 33.24C672.331 33.24 672.951 33.12 673.498 32.88C674.058 32.6267 674.498 32.2667 674.818 31.8C675.138 31.32 675.298 30.74 675.298 30.06C675.298 29.38 675.138 28.8 674.818 28.32C674.498 27.8267 674.065 27.4533 673.518 27.2C672.971 26.9467 672.345 26.82 671.638 26.82C670.945 26.82 670.318 26.9467 669.758 27.2C669.198 27.4533 668.751 27.82 668.418 28.3C668.098 28.78 667.938 29.3667 667.938 30.06C667.938 30.74 668.098 31.32 668.418 31.8C668.738 32.2667 669.178 32.6267 669.738 32.88C670.298 33.12 670.931 33.24 671.638 33.24ZM691.66 31.08C691.593 31.9467 691.313 32.6933 690.82 33.32C690.34 33.9467 689.673 34.4267 688.82 34.76C687.967 35.08 686.953 35.24 685.78 35.24C684.553 35.24 683.453 35.0467 682.48 34.66C681.52 34.26 680.76 33.68 680.2 32.92C679.653 32.1467 679.38 31.1933 679.38 30.06C679.38 28.9267 679.653 27.9733 680.2 27.2C680.76 26.4267 681.52 25.84 682.48 25.44C683.453 25.04 684.553 24.84 685.78 24.84C686.953 24.84 687.96 25.0067 688.8 25.34C689.64 25.66 690.3 26.1267 690.78 26.74C691.273 27.3533 691.56 28.0933 691.64 28.96H689.26C689.033 28.2933 688.613 27.7733 688 27.4C687.387 27.0267 686.647 26.84 685.78 26.84C685.087 26.84 684.453 26.96 683.88 27.2C683.32 27.44 682.867 27.8 682.52 28.28C682.187 28.7467 682.02 29.34 682.02 30.06C682.02 30.7667 682.187 31.36 682.52 31.84C682.853 32.3067 683.307 32.66 683.88 32.9C684.453 33.1267 685.087 33.24 685.78 33.24C686.713 33.24 687.473 33.0533 688.06 32.68C688.66 32.3067 689.067 31.7733 689.28 31.08H691.66ZM702.631 31.7H705.151C705.044 32.38 704.758 32.9867 704.291 33.52C703.838 34.0533 703.218 34.4733 702.431 34.78C701.644 35.0867 700.684 35.24 699.551 35.24C698.284 35.24 697.164 35.04 696.191 34.64C695.218 34.2267 694.458 33.6333 693.911 32.86C693.364 32.0867 693.091 31.1533 693.091 30.06C693.091 28.9667 693.358 28.0333 693.891 27.26C694.424 26.4733 695.164 25.8733 696.111 25.46C697.071 25.0467 698.191 24.84 699.471 24.84C700.778 24.84 701.864 25.0467 702.731 25.46C703.598 25.8733 704.238 26.5 704.651 27.34C705.078 28.1667 705.258 29.2267 705.191 30.52H695.711C695.778 31.0267 695.964 31.4867 696.271 31.9C696.591 32.3133 697.018 32.64 697.551 32.88C698.098 33.12 698.744 33.24 699.491 33.24C700.318 33.24 701.004 33.1 701.551 32.82C702.111 32.5267 702.471 32.1533 702.631 31.7ZM699.351 26.82C698.391 26.82 697.611 27.0333 697.011 27.46C696.411 27.8733 696.024 28.3867 695.851 29H702.611C702.544 28.3333 702.224 27.8067 701.651 27.42C701.091 27.02 700.324 26.82 699.351 26.82ZM714.59 30.8V28.68H720.51C721.217 28.68 721.777 28.4933 722.19 28.12C722.603 27.7333 722.81 27.2 722.81 26.52C722.81 25.8133 722.603 25.2733 722.19 24.9C721.777 24.5267 721.217 24.34 720.51 24.34H714.91V35H712.25V22.06H720.27C720.99 22.06 721.663 22.1467 722.29 22.32C722.93 22.4933 723.483 22.76 723.95 23.12C724.43 23.48 724.803 23.94 725.07 24.5C725.337 25.06 725.47 25.7333 725.47 26.52C725.47 27.2933 725.337 27.9533 725.07 28.5C724.803 29.0467 724.43 29.4933 723.95 29.84C723.483 30.1733 722.93 30.42 722.29 30.58C721.663 30.7267 720.99 30.8 720.27 30.8H714.59ZM732.142 35.22C731.155 35.22 730.255 35.0067 729.442 34.58C728.642 34.14 728.002 33.5333 727.522 32.76C727.055 31.9733 726.822 31.0667 726.822 30.04C726.822 28.9867 727.062 28.0733 727.542 27.3C728.022 26.5267 728.668 25.9267 729.482 25.5C730.308 25.06 731.242 24.84 732.282 24.84C733.428 24.84 734.348 25.0733 735.042 25.54C735.748 25.9933 736.262 26.6133 736.582 27.4C736.902 28.1867 737.062 29.0667 737.062 30.04C737.062 30.6267 736.968 31.2267 736.782 31.84C736.595 32.44 736.308 33 735.922 33.52C735.535 34.0267 735.028 34.44 734.402 34.76C733.775 35.0667 733.022 35.22 732.142 35.22ZM732.982 33.22C733.768 33.22 734.448 33.0867 735.022 32.82C735.595 32.5533 736.035 32.18 736.342 31.7C736.648 31.22 736.802 30.6667 736.802 30.04C736.802 29.36 736.642 28.7867 736.322 28.32C736.015 27.84 735.575 27.48 735.002 27.24C734.442 26.9867 733.768 26.86 732.982 26.86C731.875 26.86 731.015 27.1533 730.402 27.74C729.788 28.3133 729.482 29.08 729.482 30.04C729.482 30.68 729.628 31.24 729.922 31.72C730.215 32.1867 730.622 32.5533 731.142 32.82C731.675 33.0867 732.288 33.22 732.982 33.22ZM736.802 25.06H739.402V35H736.982C736.982 35 736.962 34.8733 736.922 34.62C736.895 34.3533 736.868 34.02 736.842 33.62C736.815 33.22 736.802 32.8267 736.802 32.44V25.06ZM744.735 20.7V22.98H741.715V20.7H744.735ZM741.915 25.06H744.515V35H741.915V25.06ZM758.366 25.06L753.206 30.6L749.486 35H746.306L751.686 29.18L755.206 25.06H758.366ZM746.306 25.06H749.486L753.246 29.14L758.646 35H755.466L751.606 30.66L746.306 25.06ZM764.642 35.22C763.655 35.22 762.755 35.0067 761.942 34.58C761.142 34.14 760.502 33.5333 760.022 32.76C759.555 31.9733 759.322 31.0667 759.322 30.04C759.322 28.9867 759.562 28.0733 760.042 27.3C760.522 26.5267 761.168 25.9267 761.982 25.5C762.808 25.06 763.742 24.84 764.782 24.84C765.928 24.84 766.848 25.0733 767.542 25.54C768.248 25.9933 768.762 26.6133 769.082 27.4C769.402 28.1867 769.562 29.0667 769.562 30.04C769.562 30.6267 769.468 31.2267 769.282 31.84C769.095 32.44 768.808 33 768.422 33.52C768.035 34.0267 767.528 34.44 766.902 34.76C766.275 35.0667 765.522 35.22 764.642 35.22ZM765.482 33.22C766.268 33.22 766.948 33.0867 767.522 32.82C768.095 32.5533 768.535 32.18 768.842 31.7C769.148 31.22 769.302 30.6667 769.302 30.04C769.302 29.36 769.142 28.7867 768.822 28.32C768.515 27.84 768.075 27.48 767.502 27.24C766.942 26.9867 766.268 26.86 765.482 26.86C764.375 26.86 763.515 27.1533 762.902 27.74C762.288 28.3133 761.982 29.08 761.982 30.04C761.982 30.68 762.128 31.24 762.422 31.72C762.715 32.1867 763.122 32.5533 763.642 32.82C764.175 33.0867 764.788 33.22 765.482 33.22ZM769.302 25.06H771.902V35H769.482C769.482 35 769.462 34.8733 769.422 34.62C769.395 34.3533 769.368 34.02 769.342 33.62C769.315 33.22 769.302 32.8267 769.302 32.44V25.06ZM767.222 23C766.822 23 766.468 22.94 766.162 22.82C765.855 22.7 765.568 22.56 765.302 22.4C765.035 22.2267 764.768 22.08 764.502 21.96C764.235 21.84 763.942 21.78 763.622 21.78C763.342 21.78 763.115 21.84 762.942 21.96C762.782 22.08 762.655 22.2333 762.562 22.42C762.468 22.6067 762.382 22.7933 762.302 22.98H760.462C760.568 22.4867 760.742 22.0333 760.982 21.62C761.235 21.1933 761.562 20.8533 761.962 20.6C762.362 20.3333 762.835 20.2 763.382 20.2C763.795 20.2 764.155 20.26 764.462 20.38C764.782 20.5 765.075 20.6467 765.342 20.82C765.622 20.98 765.888 21.12 766.142 21.24C766.395 21.36 766.668 21.42 766.962 21.42C767.255 21.42 767.482 21.36 767.642 21.24C767.815 21.1067 767.948 20.9467 768.042 20.76C768.148 20.5733 768.235 20.3933 768.302 20.22H770.162C770.055 20.7 769.875 21.1533 769.622 21.58C769.382 22.0067 769.062 22.3533 768.662 22.62C768.262 22.8733 767.782 23 767.222 23ZM780.115 35.24C778.861 35.24 777.755 35.04 776.795 34.64C775.848 34.24 775.108 33.66 774.575 32.9C774.041 32.1267 773.775 31.18 773.775 30.06C773.775 28.94 774.041 27.9933 774.575 27.22C775.108 26.4333 775.848 25.84 776.795 25.44C777.755 25.04 778.861 24.84 780.115 24.84C781.368 24.84 782.461 25.04 783.395 25.44C784.341 25.84 785.081 26.4333 785.615 27.22C786.148 27.9933 786.415 28.94 786.415 30.06C786.415 31.18 786.148 32.1267 785.615 32.9C785.081 33.66 784.341 34.24 783.395 34.64C782.461 35.04 781.368 35.24 780.115 35.24ZM780.115 33.24C780.808 33.24 781.428 33.12 781.975 32.88C782.535 32.6267 782.975 32.2667 783.295 31.8C783.615 31.32 783.775 30.74 783.775 30.06C783.775 29.38 783.615 28.8 783.295 28.32C782.975 27.8267 782.541 27.4533 781.995 27.2C781.448 26.9467 780.821 26.82 780.115 26.82C779.421 26.82 778.795 26.9467 778.235 27.2C777.675 27.4533 777.228 27.82 776.895 28.3C776.575 28.78 776.415 29.3667 776.415 30.06C776.415 30.74 776.575 31.32 776.895 31.8C777.215 32.2667 777.655 32.6267 778.215 32.88C778.775 33.12 779.408 33.24 780.115 33.24Z" fill="black"/>
<path d="M819.062 22.5345C819.384 21.6639 820.616 21.6639 820.938 22.5345L822.001 25.408C822.102 25.6818 822.318 25.8976 822.592 25.9988L825.465 27.0621C826.336 27.3843 826.336 28.6157 825.465 28.9379L822.592 30.0012C822.318 30.1024 822.102 30.3182 822.001 30.592L820.938 33.4655C820.616 34.3361 819.384 34.3361 819.062 33.4655L817.999 30.592C817.898 30.3182 817.682 30.1024 817.408 30.0012L814.535 28.9379C813.664 28.6157 813.664 27.3843 814.535 27.0621L817.408 25.9988C817.682 25.8976 817.898 25.6818 817.999 25.408L819.062 22.5345Z" fill="black"/>
<path d="M860.94 22.06C862.393 22.06 863.607 22.2333 864.58 22.58C865.553 22.9267 866.327 23.4 866.9 24C867.487 24.5867 867.9 25.2667 868.14 26.04C868.393 26.8133 868.52 27.6267 868.52 28.48C868.52 29.3333 868.38 30.1533 868.1 30.94C867.833 31.7267 867.4 32.4267 866.8 33.04C866.213 33.64 865.433 34.12 864.46 34.48C863.5 34.8267 862.327 35 860.94 35H853.54V22.06H860.94ZM856.2 32.72H860.88C861.84 32.72 862.633 32.6067 863.26 32.38C863.9 32.14 864.407 31.82 864.78 31.42C865.153 31.02 865.42 30.5667 865.58 30.06C865.74 29.5533 865.82 29.0267 865.82 28.48C865.82 27.9333 865.74 27.4133 865.58 26.92C865.42 26.4267 865.153 25.9867 864.78 25.6C864.407 25.2133 863.9 24.9067 863.26 24.68C862.633 24.4533 861.84 24.34 860.88 24.34H856.2V32.72ZM876.638 35.24C875.385 35.24 874.278 35.04 873.318 34.64C872.371 34.24 871.631 33.66 871.098 32.9C870.565 32.1267 870.298 31.18 870.298 30.06C870.298 28.94 870.565 27.9933 871.098 27.22C871.631 26.4333 872.371 25.84 873.318 25.44C874.278 25.04 875.385 24.84 876.638 24.84C877.891 24.84 878.985 25.04 879.918 25.44C880.865 25.84 881.605 26.4333 882.138 27.22C882.671 27.9933 882.938 28.94 882.938 30.06C882.938 31.18 882.671 32.1267 882.138 32.9C881.605 33.66 880.865 34.24 879.918 34.64C878.985 35.04 877.891 35.24 876.638 35.24ZM876.638 33.24C877.331 33.24 877.951 33.12 878.498 32.88C879.058 32.6267 879.498 32.2667 879.818 31.8C880.138 31.32 880.298 30.74 880.298 30.06C880.298 29.38 880.138 28.8 879.818 28.32C879.498 27.8267 879.065 27.4533 878.518 27.2C877.971 26.9467 877.345 26.82 876.638 26.82C875.945 26.82 875.318 26.9467 874.758 27.2C874.198 27.4533 873.751 27.82 873.418 28.3C873.098 28.78 872.938 29.3667 872.938 30.06C872.938 30.74 873.098 31.32 873.418 31.8C873.738 32.2667 874.178 32.6267 874.738 32.88C875.298 33.12 875.931 33.24 876.638 33.24ZM896.66 31.08C896.593 31.9467 896.313 32.6933 895.82 33.32C895.34 33.9467 894.673 34.4267 893.82 34.76C892.967 35.08 891.953 35.24 890.78 35.24C889.553 35.24 888.453 35.0467 887.48 34.66C886.52 34.26 885.76 33.68 885.2 32.92C884.653 32.1467 884.38 31.1933 884.38 30.06C884.38 28.9267 884.653 27.9733 885.2 27.2C885.76 26.4267 886.52 25.84 887.48 25.44C888.453 25.04 889.553 24.84 890.78 24.84C891.953 24.84 892.96 25.0067 893.8 25.34C894.64 25.66 895.3 26.1267 895.78 26.74C896.273 27.3533 896.56 28.0933 896.64 28.96H894.26C894.033 28.2933 893.613 27.7733 893 27.4C892.387 27.0267 891.647 26.84 890.78 26.84C890.087 26.84 889.453 26.96 888.88 27.2C888.32 27.44 887.867 27.8 887.52 28.28C887.187 28.7467 887.02 29.34 887.02 30.06C887.02 30.7667 887.187 31.36 887.52 31.84C887.853 32.3067 888.307 32.66 888.88 32.9C889.453 33.1267 890.087 33.24 890.78 33.24C891.713 33.24 892.473 33.0533 893.06 32.68C893.66 32.3067 894.067 31.7733 894.28 31.08H896.66ZM907.631 31.7H910.151C910.044 32.38 909.758 32.9867 909.291 33.52C908.838 34.0533 908.218 34.4733 907.431 34.78C906.644 35.0867 905.684 35.24 904.551 35.24C903.284 35.24 902.164 35.04 901.191 34.64C900.218 34.2267 899.458 33.6333 898.911 32.86C898.364 32.0867 898.091 31.1533 898.091 30.06C898.091 28.9667 898.358 28.0333 898.891 27.26C899.424 26.4733 900.164 25.8733 901.111 25.46C902.071 25.0467 903.191 24.84 904.471 24.84C905.778 24.84 906.864 25.0467 907.731 25.46C908.598 25.8733 909.238 26.5 909.651 27.34C910.078 28.1667 910.258 29.2267 910.191 30.52H900.711C900.778 31.0267 900.964 31.4867 901.271 31.9C901.591 32.3133 902.018 32.64 902.551 32.88C903.098 33.12 903.744 33.24 904.491 33.24C905.318 33.24 906.004 33.1 906.551 32.82C907.111 32.5267 907.471 32.1533 907.631 31.7ZM904.351 26.82C903.391 26.82 902.611 27.0333 902.011 27.46C901.411 27.8733 901.024 28.3867 900.851 29H907.611C907.544 28.3333 907.224 27.8067 906.651 27.42C906.091 27.02 905.324 26.82 904.351 26.82ZM919.59 30.8V28.68H925.51C926.217 28.68 926.777 28.4933 927.19 28.12C927.603 27.7333 927.81 27.2 927.81 26.52C927.81 25.8133 927.603 25.2733 927.19 24.9C926.777 24.5267 926.217 24.34 925.51 24.34H919.91V35H917.25V22.06H925.27C925.99 22.06 926.663 22.1467 927.29 22.32C927.93 22.4933 928.483 22.76 928.95 23.12C929.43 23.48 929.803 23.94 930.07 24.5C930.337 25.06 930.47 25.7333 930.47 26.52C930.47 27.2933 930.337 27.9533 930.07 28.5C929.803 29.0467 929.43 29.4933 928.95 29.84C928.483 30.1733 927.93 30.42 927.29 30.58C926.663 30.7267 925.99 30.8 925.27 30.8H919.59ZM937.142 35.22C936.155 35.22 935.255 35.0067 934.442 34.58C933.642 34.14 933.002 33.5333 932.522 32.76C932.055 31.9733 931.822 31.0667 931.822 30.04C931.822 28.9867 932.062 28.0733 932.542 27.3C933.022 26.5267 933.668 25.9267 934.482 25.5C935.308 25.06 936.242 24.84 937.282 24.84C938.428 24.84 939.348 25.0733 940.042 25.54C940.748 25.9933 941.262 26.6133 941.582 27.4C941.902 28.1867 942.062 29.0667 942.062 30.04C942.062 30.6267 941.968 31.2267 941.782 31.84C941.595 32.44 941.308 33 940.922 33.52C940.535 34.0267 940.028 34.44 939.402 34.76C938.775 35.0667 938.022 35.22 937.142 35.22ZM937.982 33.22C938.768 33.22 939.448 33.0867 940.022 32.82C940.595 32.5533 941.035 32.18 941.342 31.7C941.648 31.22 941.802 30.6667 941.802 30.04C941.802 29.36 941.642 28.7867 941.322 28.32C941.015 27.84 940.575 27.48 940.002 27.24C939.442 26.9867 938.768 26.86 937.982 26.86C936.875 26.86 936.015 27.1533 935.402 27.74C934.788 28.3133 934.482 29.08 934.482 30.04C934.482 30.68 934.628 31.24 934.922 31.72C935.215 32.1867 935.622 32.5533 936.142 32.82C936.675 33.0867 937.288 33.22 937.982 33.22ZM941.802 25.06H944.402V35H941.982C941.982 35 941.962 34.8733 941.922 34.62C941.895 34.3533 941.868 34.02 941.842 33.62C941.815 33.22 941.802 32.8267 941.802 32.44V25.06ZM949.735 20.7V22.98H946.715V20.7H949.735ZM946.915 25.06H949.515V35H946.915V25.06ZM963.366 25.06L958.206 30.6L954.486 35H951.306L956.686 29.18L960.206 25.06H963.366ZM951.306 25.06H954.486L958.246 29.14L963.646 35H960.466L956.606 30.66L951.306 25.06ZM969.642 35.22C968.655 35.22 967.755 35.0067 966.942 34.58C966.142 34.14 965.502 33.5333 965.022 32.76C964.555 31.9733 964.322 31.0667 964.322 30.04C964.322 28.9867 964.562 28.0733 965.042 27.3C965.522 26.5267 966.168 25.9267 966.982 25.5C967.808 25.06 968.742 24.84 969.782 24.84C970.928 24.84 971.848 25.0733 972.542 25.54C973.248 25.9933 973.762 26.6133 974.082 27.4C974.402 28.1867 974.562 29.0667 974.562 30.04C974.562 30.6267 974.468 31.2267 974.282 31.84C974.095 32.44 973.808 33 973.422 33.52C973.035 34.0267 972.528 34.44 971.902 34.76C971.275 35.0667 970.522 35.22 969.642 35.22ZM970.482 33.22C971.268 33.22 971.948 33.0867 972.522 32.82C973.095 32.5533 973.535 32.18 973.842 31.7C974.148 31.22 974.302 30.6667 974.302 30.04C974.302 29.36 974.142 28.7867 973.822 28.32C973.515 27.84 973.075 27.48 972.502 27.24C971.942 26.9867 971.268 26.86 970.482 26.86C969.375 26.86 968.515 27.1533 967.902 27.74C967.288 28.3133 966.982 29.08 966.982 30.04C966.982 30.68 967.128 31.24 967.422 31.72C967.715 32.1867 968.122 32.5533 968.642 32.82C969.175 33.0867 969.788 33.22 970.482 33.22ZM974.302 25.06H976.902V35H974.482C974.482 35 974.462 34.8733 974.422 34.62C974.395 34.3533 974.368 34.02 974.342 33.62C974.315 33.22 974.302 32.8267 974.302 32.44V25.06ZM972.222 23C971.822 23 971.468 22.94 971.162 22.82C970.855 22.7 970.568 22.56 970.302 22.4C970.035 22.2267 969.768 22.08 969.502 21.96C969.235 21.84 968.942 21.78 968.622 21.78C968.342 21.78 968.115 21.84 967.942 21.96C967.782 22.08 967.655 22.2333 967.562 22.42C967.468 22.6067 967.382 22.7933 967.302 22.98H965.462C965.568 22.4867 965.742 22.0333 965.982 21.62C966.235 21.1933 966.562 20.8533 966.962 20.6C967.362 20.3333 967.835 20.2 968.382 20.2C968.795 20.2 969.155 20.26 969.462 20.38C969.782 20.5 970.075 20.6467 970.342 20.82C970.622 20.98 970.888 21.12 971.142 21.24C971.395 21.36 971.668 21.42 971.962 21.42C972.255 21.42 972.482 21.36 972.642 21.24C972.815 21.1067 972.948 20.9467 973.042 20.76C973.148 20.5733 973.235 20.3933 973.302 20.22H975.162C975.055 20.7 974.875 21.1533 974.622 21.58C974.382 22.0067 974.062 22.3533 973.662 22.62C973.262 22.8733 972.782 23 972.222 23ZM985.115 35.24C983.861 35.24 982.755 35.04 981.795 34.64C980.848 34.24 980.108 33.66 979.575 32.9C979.041 32.1267 978.775 31.18 978.775 30.06C978.775 28.94 979.041 27.9933 979.575 27.22C980.108 26.4333 980.848 25.84 981.795 25.44C982.755 25.04 983.861 24.84 985.115 24.84C986.368 24.84 987.461 25.04 988.395 25.44C989.341 25.84 990.081 26.4333 990.615 27.22C991.148 27.9933 991.415 28.94 991.415 30.06C991.415 31.18 991.148 32.1267 990.615 32.9C990.081 33.66 989.341 34.24 988.395 34.64C987.461 35.04 986.368 35.24 985.115 35.24ZM985.115 33.24C985.808 33.24 986.428 33.12 986.975 32.88C987.535 32.6267 987.975 32.2667 988.295 31.8C988.615 31.32 988.775 30.74 988.775 30.06C988.775 29.38 988.615 28.8 988.295 28.32C987.975 27.8267 987.541 27.4533 986.995 27.2C986.448 26.9467 985.821 26.82 985.115 26.82C984.421 26.82 983.795 26.9467 983.235 27.2C982.675 27.4533 982.228 27.82 981.895 28.3C981.575 28.78 981.415 29.3667 981.415 30.06C981.415 30.74 981.575 31.32 981.895 31.8C982.215 32.2667 982.655 32.6267 983.215 32.88C983.775 33.12 984.408 33.24 985.115 33.24Z" fill="black"/>
<path d="M1024.06 22.5345C1024.38 21.6639 1025.62 21.6639 1025.94 22.5345L1027 25.408C1027.1 25.6818 1027.32 25.8976 1027.59 25.9988L1030.47 27.0621C1031.34 27.3843 1031.34 28.6157 1030.47 28.9379L1027.59 30.0012C1027.32 30.1024 1027.1 30.3182 1027 30.592L1025.94 33.4655C1025.62 34.3361 1024.38 34.3361 1024.06 33.4655L1023 30.592C1022.9 30.3182 1022.68 30.1024 1022.41 30.0012L1019.53 28.9379C1018.66 28.6157 1018.66 27.3843 1019.53 27.0621L1022.41 25.9988C1022.68 25.8976 1022.9 25.6818 1023 25.408L1024.06 22.5345Z" fill="black"/>
<path d="M1065.94 22.06C1067.39 22.06 1068.61 22.2333 1069.58 22.58C1070.55 22.9267 1071.33 23.4 1071.9 24C1072.49 24.5867 1072.9 25.2667 1073.14 26.04C1073.39 26.8133 1073.52 27.6267 1073.52 28.48C1073.52 29.3333 1073.38 30.1533 1073.1 30.94C1072.83 31.7267 1072.4 32.4267 1071.8 33.04C1071.21 33.64 1070.43 34.12 1069.46 34.48C1068.5 34.8267 1067.33 35 1065.94 35H1058.54V22.06H1065.94ZM1061.2 32.72H1065.88C1066.84 32.72 1067.63 32.6067 1068.26 32.38C1068.9 32.14 1069.41 31.82 1069.78 31.42C1070.15 31.02 1070.42 30.5667 1070.58 30.06C1070.74 29.5533 1070.82 29.0267 1070.82 28.48C1070.82 27.9333 1070.74 27.4133 1070.58 26.92C1070.42 26.4267 1070.15 25.9867 1069.78 25.6C1069.41 25.2133 1068.9 24.9067 1068.26 24.68C1067.63 24.4533 1066.84 24.34 1065.88 24.34H1061.2V32.72ZM1081.64 35.24C1080.38 35.24 1079.28 35.04 1078.32 34.64C1077.37 34.24 1076.63 33.66 1076.1 32.9C1075.56 32.1267 1075.3 31.18 1075.3 30.06C1075.3 28.94 1075.56 27.9933 1076.1 27.22C1076.63 26.4333 1077.37 25.84 1078.32 25.44C1079.28 25.04 1080.38 24.84 1081.64 24.84C1082.89 24.84 1083.98 25.04 1084.92 25.44C1085.86 25.84 1086.6 26.4333 1087.14 27.22C1087.67 27.9933 1087.94 28.94 1087.94 30.06C1087.94 31.18 1087.67 32.1267 1087.14 32.9C1086.6 33.66 1085.86 34.24 1084.92 34.64C1083.98 35.04 1082.89 35.24 1081.64 35.24ZM1081.64 33.24C1082.33 33.24 1082.95 33.12 1083.5 32.88C1084.06 32.6267 1084.5 32.2667 1084.82 31.8C1085.14 31.32 1085.3 30.74 1085.3 30.06C1085.3 29.38 1085.14 28.8 1084.82 28.32C1084.5 27.8267 1084.06 27.4533 1083.52 27.2C1082.97 26.9467 1082.34 26.82 1081.64 26.82C1080.94 26.82 1080.32 26.9467 1079.76 27.2C1079.2 27.4533 1078.75 27.82 1078.42 28.3C1078.1 28.78 1077.94 29.3667 1077.94 30.06C1077.94 30.74 1078.1 31.32 1078.42 31.8C1078.74 32.2667 1079.18 32.6267 1079.74 32.88C1080.3 33.12 1080.93 33.24 1081.64 33.24ZM1101.66 31.08C1101.59 31.9467 1101.31 32.6933 1100.82 33.32C1100.34 33.9467 1099.67 34.4267 1098.82 34.76C1097.97 35.08 1096.95 35.24 1095.78 35.24C1094.55 35.24 1093.45 35.0467 1092.48 34.66C1091.52 34.26 1090.76 33.68 1090.2 32.92C1089.65 32.1467 1089.38 31.1933 1089.38 30.06C1089.38 28.9267 1089.65 27.9733 1090.2 27.2C1090.76 26.4267 1091.52 25.84 1092.48 25.44C1093.45 25.04 1094.55 24.84 1095.78 24.84C1096.95 24.84 1097.96 25.0067 1098.8 25.34C1099.64 25.66 1100.3 26.1267 1100.78 26.74C1101.27 27.3533 1101.56 28.0933 1101.64 28.96H1099.26C1099.03 28.2933 1098.61 27.7733 1098 27.4C1097.39 27.0267 1096.65 26.84 1095.78 26.84C1095.09 26.84 1094.45 26.96 1093.88 27.2C1093.32 27.44 1092.87 27.8 1092.52 28.28C1092.19 28.7467 1092.02 29.34 1092.02 30.06C1092.02 30.7667 1092.19 31.36 1092.52 31.84C1092.85 32.3067 1093.31 32.66 1093.88 32.9C1094.45 33.1267 1095.09 33.24 1095.78 33.24C1096.71 33.24 1097.47 33.0533 1098.06 32.68C1098.66 32.3067 1099.07 31.7733 1099.28 31.08H1101.66ZM1112.63 31.7H1115.15C1115.04 32.38 1114.76 32.9867 1114.29 33.52C1113.84 34.0533 1113.22 34.4733 1112.43 34.78C1111.64 35.0867 1110.68 35.24 1109.55 35.24C1108.28 35.24 1107.16 35.04 1106.19 34.64C1105.22 34.2267 1104.46 33.6333 1103.91 32.86C1103.36 32.0867 1103.09 31.1533 1103.09 30.06C1103.09 28.9667 1103.36 28.0333 1103.89 27.26C1104.42 26.4733 1105.16 25.8733 1106.11 25.46C1107.07 25.0467 1108.19 24.84 1109.47 24.84C1110.78 24.84 1111.86 25.0467 1112.73 25.46C1113.6 25.8733 1114.24 26.5 1114.65 27.34C1115.08 28.1667 1115.26 29.2267 1115.19 30.52H1105.71C1105.78 31.0267 1105.96 31.4867 1106.27 31.9C1106.59 32.3133 1107.02 32.64 1107.55 32.88C1108.1 33.12 1108.74 33.24 1109.49 33.24C1110.32 33.24 1111 33.1 1111.55 32.82C1112.11 32.5267 1112.47 32.1533 1112.63 31.7ZM1109.35 26.82C1108.39 26.82 1107.61 27.0333 1107.01 27.46C1106.41 27.8733 1106.02 28.3867 1105.85 29H1112.61C1112.54 28.3333 1112.22 27.8067 1111.65 27.42C1111.09 27.02 1110.32 26.82 1109.35 26.82ZM1124.59 30.8V28.68H1130.51C1131.22 28.68 1131.78 28.4933 1132.19 28.12C1132.6 27.7333 1132.81 27.2 1132.81 26.52C1132.81 25.8133 1132.6 25.2733 1132.19 24.9C1131.78 24.5267 1131.22 24.34 1130.51 24.34H1124.91V35H1122.25V22.06H1130.27C1130.99 22.06 1131.66 22.1467 1132.29 22.32C1132.93 22.4933 1133.48 22.76 1133.95 23.12C1134.43 23.48 1134.8 23.94 1135.07 24.5C1135.34 25.06 1135.47 25.7333 1135.47 26.52C1135.47 27.2933 1135.34 27.9533 1135.07 28.5C1134.8 29.0467 1134.43 29.4933 1133.95 29.84C1133.48 30.1733 1132.93 30.42 1132.29 30.58C1131.66 30.7267 1130.99 30.8 1130.27 30.8H1124.59ZM1142.14 35.22C1141.15 35.22 1140.25 35.0067 1139.44 34.58C1138.64 34.14 1138 33.5333 1137.52 32.76C1137.05 31.9733 1136.82 31.0667 1136.82 30.04C1136.82 28.9867 1137.06 28.0733 1137.54 27.3C1138.02 26.5267 1138.67 25.9267 1139.48 25.5C1140.31 25.06 1141.24 24.84 1142.28 24.84C1143.43 24.84 1144.35 25.0733 1145.04 25.54C1145.75 25.9933 1146.26 26.6133 1146.58 27.4C1146.9 28.1867 1147.06 29.0667 1147.06 30.04C1147.06 30.6267 1146.97 31.2267 1146.78 31.84C1146.59 32.44 1146.31 33 1145.92 33.52C1145.53 34.0267 1145.03 34.44 1144.4 34.76C1143.77 35.0667 1143.02 35.22 1142.14 35.22ZM1142.98 33.22C1143.77 33.22 1144.45 33.0867 1145.02 32.82C1145.59 32.5533 1146.03 32.18 1146.34 31.7C1146.65 31.22 1146.8 30.6667 1146.8 30.04C1146.8 29.36 1146.64 28.7867 1146.32 28.32C1146.01 27.84 1145.57 27.48 1145 27.24C1144.44 26.9867 1143.77 26.86 1142.98 26.86C1141.87 26.86 1141.01 27.1533 1140.4 27.74C1139.79 28.3133 1139.48 29.08 1139.48 30.04C1139.48 30.68 1139.63 31.24 1139.92 31.72C1140.21 32.1867 1140.62 32.5533 1141.14 32.82C1141.67 33.0867 1142.29 33.22 1142.98 33.22ZM1146.8 25.06H1149.4V35H1146.98C1146.98 35 1146.96 34.8733 1146.92 34.62C1146.89 34.3533 1146.87 34.02 1146.84 33.62C1146.81 33.22 1146.8 32.8267 1146.8 32.44V25.06ZM1154.73 20.7V22.98H1151.71V20.7H1154.73ZM1151.91 25.06H1154.51V35H1151.91V25.06ZM1168.37 25.06L1163.21 30.6L1159.49 35H1156.31L1161.69 29.18L1165.21 25.06H1168.37ZM1156.31 25.06H1159.49L1163.25 29.14L1168.65 35H1165.47L1161.61 30.66L1156.31 25.06ZM1174.64 35.22C1173.65 35.22 1172.75 35.0067 1171.94 34.58C1171.14 34.14 1170.5 33.5333 1170.02 32.76C1169.55 31.9733 1169.32 31.0667 1169.32 30.04C1169.32 28.9867 1169.56 28.0733 1170.04 27.3C1170.52 26.5267 1171.17 25.9267 1171.98 25.5C1172.81 25.06 1173.74 24.84 1174.78 24.84C1175.93 24.84 1176.85 25.0733 1177.54 25.54C1178.25 25.9933 1178.76 26.6133 1179.08 27.4C1179.4 28.1867 1179.56 29.0667 1179.56 30.04C1179.56 30.6267 1179.47 31.2267 1179.28 31.84C1179.09 32.44 1178.81 33 1178.42 33.52C1178.03 34.0267 1177.53 34.44 1176.9 34.76C1176.27 35.0667 1175.52 35.22 1174.64 35.22ZM1175.48 33.22C1176.27 33.22 1176.95 33.0867 1177.52 32.82C1178.09 32.5533 1178.53 32.18 1178.84 31.7C1179.15 31.22 1179.3 30.6667 1179.3 30.04C1179.3 29.36 1179.14 28.7867 1178.82 28.32C1178.51 27.84 1178.07 27.48 1177.5 27.24C1176.94 26.9867 1176.27 26.86 1175.48 26.86C1174.37 26.86 1173.51 27.1533 1172.9 27.74C1172.29 28.3133 1171.98 29.08 1171.98 30.04C1171.98 30.68 1172.13 31.24 1172.42 31.72C1172.71 32.1867 1173.12 32.5533 1173.64 32.82C1174.17 33.0867 1174.79 33.22 1175.48 33.22ZM1179.3 25.06H1181.9V35H1179.48C1179.48 35 1179.46 34.8733 1179.42 34.62C1179.39 34.3533 1179.37 34.02 1179.34 33.62C1179.31 33.22 1179.3 32.8267 1179.3 32.44V25.06ZM1177.22 23C1176.82 23 1176.47 22.94 1176.16 22.82C1175.85 22.7 1175.57 22.56 1175.3 22.4C1175.03 22.2267 1174.77 22.08 1174.5 21.96C1174.23 21.84 1173.94 21.78 1173.62 21.78C1173.34 21.78 1173.11 21.84 1172.94 21.96C1172.78 22.08 1172.65 22.2333 1172.56 22.42C1172.47 22.6067 1172.38 22.7933 1172.3 22.98H1170.46C1170.57 22.4867 1170.74 22.0333 1170.98 21.62C1171.23 21.1933 1171.56 20.8533 1171.96 20.6C1172.36 20.3333 1172.83 20.2 1173.38 20.2C1173.79 20.2 1174.15 20.26 1174.46 20.38C1174.78 20.5 1175.07 20.6467 1175.34 20.82C1175.62 20.98 1175.89 21.12 1176.14 21.24C1176.39 21.36 1176.67 21.42 1176.96 21.42C1177.25 21.42 1177.48 21.36 1177.64 21.24C1177.81 21.1067 1177.95 20.9467 1178.04 20.76C1178.15 20.5733 1178.23 20.3933 1178.3 20.22H1180.16C1180.05 20.7 1179.87 21.1533 1179.62 21.58C1179.38 22.0067 1179.06 22.3533 1178.66 22.62C1178.26 22.8733 1177.78 23 1177.22 23ZM1190.11 35.24C1188.86 35.24 1187.75 35.04 1186.79 34.64C1185.85 34.24 1185.11 33.66 1184.57 32.9C1184.04 32.1267 1183.77 31.18 1183.77 30.06C1183.77 28.94 1184.04 27.9933 1184.57 27.22C1185.11 26.4333 1185.85 25.84 1186.79 25.44C1187.75 25.04 1188.86 24.84 1190.11 24.84C1191.37 24.84 1192.46 25.04 1193.39 25.44C1194.34 25.84 1195.08 26.4333 1195.61 27.22C1196.15 27.9933 1196.41 28.94 1196.41 30.06C1196.41 31.18 1196.15 32.1267 1195.61 32.9C1195.08 33.66 1194.34 34.24 1193.39 34.64C1192.46 35.04 1191.37 35.24 1190.11 35.24ZM1190.11 33.24C1190.81 33.24 1191.43 33.12 1191.97 32.88C1192.53 32.6267 1192.97 32.2667 1193.29 31.8C1193.61 31.32 1193.77 30.74 1193.77 30.06C1193.77 29.38 1193.61 28.8 1193.29 28.32C1192.97 27.8267 1192.54 27.4533 1191.99 27.2C1191.45 26.9467 1190.82 26.82 1190.11 26.82C1189.42 26.82 1188.79 26.9467 1188.23 27.2C1187.67 27.4533 1187.23 27.82 1186.89 28.3C1186.57 28.78 1186.41 29.3667 1186.41 30.06C1186.41 30.74 1186.57 31.32 1186.89 31.8C1187.21 32.2667 1187.65 32.6267 1188.21 32.88C1188.77 33.12 1189.41 33.24 1190.11 33.24Z" fill="black"/>
<path d="M1229.06 22.5345C1229.38 21.6639 1230.62 21.6639 1230.94 22.5345L1232 25.408C1232.1 25.6818 1232.32 25.8976 1232.59 25.9988L1235.47 27.0621C1236.34 27.3843 1236.34 28.6157 1235.47 28.9379L1232.59 30.0012C1232.32 30.1024 1232.1 30.3182 1232 30.592L1230.94 33.4655C1230.62 34.3361 1229.38 34.3361 1229.06 33.4655L1228 30.592C1227.9 30.3182 1227.68 30.1024 1227.41 30.0012L1224.53 28.9379C1223.66 28.6157 1223.66 27.3843 1224.53 27.0621L1227.41 25.9988C1227.68 25.8976 1227.9 25.6818 1228 25.408L1229.06 22.5345Z" fill="black"/>
<path d="M1270.94 22.06C1272.39 22.06 1273.61 22.2333 1274.58 22.58C1275.55 22.9267 1276.33 23.4 1276.9 24C1277.49 24.5867 1277.9 25.2667 1278.14 26.04C1278.39 26.8133 1278.52 27.6267 1278.52 28.48C1278.52 29.3333 1278.38 30.1533 1278.1 30.94C1277.83 31.7267 1277.4 32.4267 1276.8 33.04C1276.21 33.64 1275.43 34.12 1274.46 34.48C1273.5 34.8267 1272.33 35 1270.94 35H1263.54V22.06H1270.94ZM1266.2 32.72H1270.88C1271.84 32.72 1272.63 32.6067 1273.26 32.38C1273.9 32.14 1274.41 31.82 1274.78 31.42C1275.15 31.02 1275.42 30.5667 1275.58 30.06C1275.74 29.5533 1275.82 29.0267 1275.82 28.48C1275.82 27.9333 1275.74 27.4133 1275.58 26.92C1275.42 26.4267 1275.15 25.9867 1274.78 25.6C1274.41 25.2133 1273.9 24.9067 1273.26 24.68C1272.63 24.4533 1271.84 24.34 1270.88 24.34H1266.2V32.72ZM1286.64 35.24C1285.38 35.24 1284.28 35.04 1283.32 34.64C1282.37 34.24 1281.63 33.66 1281.1 32.9C1280.56 32.1267 1280.3 31.18 1280.3 30.06C1280.3 28.94 1280.56 27.9933 1281.1 27.22C1281.63 26.4333 1282.37 25.84 1283.32 25.44C1284.28 25.04 1285.38 24.84 1286.64 24.84C1287.89 24.84 1288.98 25.04 1289.92 25.44C1290.86 25.84 1291.6 26.4333 1292.14 27.22C1292.67 27.9933 1292.94 28.94 1292.94 30.06C1292.94 31.18 1292.67 32.1267 1292.14 32.9C1291.6 33.66 1290.86 34.24 1289.92 34.64C1288.98 35.04 1287.89 35.24 1286.64 35.24ZM1286.64 33.24C1287.33 33.24 1287.95 33.12 1288.5 32.88C1289.06 32.6267 1289.5 32.2667 1289.82 31.8C1290.14 31.32 1290.3 30.74 1290.3 30.06C1290.3 29.38 1290.14 28.8 1289.82 28.32C1289.5 27.8267 1289.06 27.4533 1288.52 27.2C1287.97 26.9467 1287.34 26.82 1286.64 26.82C1285.94 26.82 1285.32 26.9467 1284.76 27.2C1284.2 27.4533 1283.75 27.82 1283.42 28.3C1283.1 28.78 1282.94 29.3667 1282.94 30.06C1282.94 30.74 1283.1 31.32 1283.42 31.8C1283.74 32.2667 1284.18 32.6267 1284.74 32.88C1285.3 33.12 1285.93 33.24 1286.64 33.24ZM1306.66 31.08C1306.59 31.9467 1306.31 32.6933 1305.82 33.32C1305.34 33.9467 1304.67 34.4267 1303.82 34.76C1302.97 35.08 1301.95 35.24 1300.78 35.24C1299.55 35.24 1298.45 35.0467 1297.48 34.66C1296.52 34.26 1295.76 33.68 1295.2 32.92C1294.65 32.1467 1294.38 31.1933 1294.38 30.06C1294.38 28.9267 1294.65 27.9733 1295.2 27.2C1295.76 26.4267 1296.52 25.84 1297.48 25.44C1298.45 25.04 1299.55 24.84 1300.78 24.84C1301.95 24.84 1302.96 25.0067 1303.8 25.34C1304.64 25.66 1305.3 26.1267 1305.78 26.74C1306.27 27.3533 1306.56 28.0933 1306.64 28.96H1304.26C1304.03 28.2933 1303.61 27.7733 1303 27.4C1302.39 27.0267 1301.65 26.84 1300.78 26.84C1300.09 26.84 1299.45 26.96 1298.88 27.2C1298.32 27.44 1297.87 27.8 1297.52 28.28C1297.19 28.7467 1297.02 29.34 1297.02 30.06C1297.02 30.7667 1297.19 31.36 1297.52 31.84C1297.85 32.3067 1298.31 32.66 1298.88 32.9C1299.45 33.1267 1300.09 33.24 1300.78 33.24C1301.71 33.24 1302.47 33.0533 1303.06 32.68C1303.66 32.3067 1304.07 31.7733 1304.28 31.08H1306.66ZM1317.63 31.7H1320.15C1320.04 32.38 1319.76 32.9867 1319.29 33.52C1318.84 34.0533 1318.22 34.4733 1317.43 34.78C1316.64 35.0867 1315.68 35.24 1314.55 35.24C1313.28 35.24 1312.16 35.04 1311.19 34.64C1310.22 34.2267 1309.46 33.6333 1308.91 32.86C1308.36 32.0867 1308.09 31.1533 1308.09 30.06C1308.09 28.9667 1308.36 28.0333 1308.89 27.26C1309.42 26.4733 1310.16 25.8733 1311.11 25.46C1312.07 25.0467 1313.19 24.84 1314.47 24.84C1315.78 24.84 1316.86 25.0467 1317.73 25.46C1318.6 25.8733 1319.24 26.5 1319.65 27.34C1320.08 28.1667 1320.26 29.2267 1320.19 30.52H1310.71C1310.78 31.0267 1310.96 31.4867 1311.27 31.9C1311.59 32.3133 1312.02 32.64 1312.55 32.88C1313.1 33.12 1313.74 33.24 1314.49 33.24C1315.32 33.24 1316 33.1 1316.55 32.82C1317.11 32.5267 1317.47 32.1533 1317.63 31.7ZM1314.35 26.82C1313.39 26.82 1312.61 27.0333 1312.01 27.46C1311.41 27.8733 1311.02 28.3867 1310.85 29H1317.61C1317.54 28.3333 1317.22 27.8067 1316.65 27.42C1316.09 27.02 1315.32 26.82 1314.35 26.82ZM1329.59 30.8V28.68H1335.51C1336.22 28.68 1336.78 28.4933 1337.19 28.12C1337.6 27.7333 1337.81 27.2 1337.81 26.52C1337.81 25.8133 1337.6 25.2733 1337.19 24.9C1336.78 24.5267 1336.22 24.34 1335.51 24.34H1329.91V35H1327.25V22.06H1335.27C1335.99 22.06 1336.66 22.1467 1337.29 22.32C1337.93 22.4933 1338.48 22.76 1338.95 23.12C1339.43 23.48 1339.8 23.94 1340.07 24.5C1340.34 25.06 1340.47 25.7333 1340.47 26.52C1340.47 27.2933 1340.34 27.9533 1340.07 28.5C1339.8 29.0467 1339.43 29.4933 1338.95 29.84C1338.48 30.1733 1337.93 30.42 1337.29 30.58C1336.66 30.7267 1335.99 30.8 1335.27 30.8H1329.59ZM1347.14 35.22C1346.15 35.22 1345.25 35.0067 1344.44 34.58C1343.64 34.14 1343 33.5333 1342.52 32.76C1342.05 31.9733 1341.82 31.0667 1341.82 30.04C1341.82 28.9867 1342.06 28.0733 1342.54 27.3C1343.02 26.5267 1343.67 25.9267 1344.48 25.5C1345.31 25.06 1346.24 24.84 1347.28 24.84C1348.43 24.84 1349.35 25.0733 1350.04 25.54C1350.75 25.9933 1351.26 26.6133 1351.58 27.4C1351.9 28.1867 1352.06 29.0667 1352.06 30.04C1352.06 30.6267 1351.97 31.2267 1351.78 31.84C1351.59 32.44 1351.31 33 1350.92 33.52C1350.53 34.0267 1350.03 34.44 1349.4 34.76C1348.77 35.0667 1348.02 35.22 1347.14 35.22ZM1347.98 33.22C1348.77 33.22 1349.45 33.0867 1350.02 32.82C1350.59 32.5533 1351.03 32.18 1351.34 31.7C1351.65 31.22 1351.8 30.6667 1351.8 30.04C1351.8 29.36 1351.64 28.7867 1351.32 28.32C1351.01 27.84 1350.57 27.48 1350 27.24C1349.44 26.9867 1348.77 26.86 1347.98 26.86C1346.87 26.86 1346.01 27.1533 1345.4 27.74C1344.79 28.3133 1344.48 29.08 1344.48 30.04C1344.48 30.68 1344.63 31.24 1344.92 31.72C1345.21 32.1867 1345.62 32.5533 1346.14 32.82C1346.67 33.0867 1347.29 33.22 1347.98 33.22ZM1351.8 25.06H1354.4V35H1351.98C1351.98 35 1351.96 34.8733 1351.92 34.62C1351.89 34.3533 1351.87 34.02 1351.84 33.62C1351.81 33.22 1351.8 32.8267 1351.8 32.44V25.06ZM1359.73 20.7V22.98H1356.71V20.7H1359.73ZM1356.91 25.06H1359.51V35H1356.91V25.06ZM1373.37 25.06L1368.21 30.6L1364.49 35H1361.31L1366.69 29.18L1370.21 25.06H1373.37ZM1361.31 25.06H1364.49L1368.25 29.14L1373.65 35H1370.47L1366.61 30.66L1361.31 25.06ZM1379.64 35.22C1378.65 35.22 1377.75 35.0067 1376.94 34.58C1376.14 34.14 1375.5 33.5333 1375.02 32.76C1374.55 31.9733 1374.32 31.0667 1374.32 30.04C1374.32 28.9867 1374.56 28.0733 1375.04 27.3C1375.52 26.5267 1376.17 25.9267 1376.98 25.5C1377.81 25.06 1378.74 24.84 1379.78 24.84C1380.93 24.84 1381.85 25.0733 1382.54 25.54C1383.25 25.9933 1383.76 26.6133 1384.08 27.4C1384.4 28.1867 1384.56 29.0667 1384.56 30.04C1384.56 30.6267 1384.47 31.2267 1384.28 31.84C1384.09 32.44 1383.81 33 1383.42 33.52C1383.03 34.0267 1382.53 34.44 1381.9 34.76C1381.27 35.0667 1380.52 35.22 1379.64 35.22ZM1380.48 33.22C1381.27 33.22 1381.95 33.0867 1382.52 32.82C1383.09 32.5533 1383.53 32.18 1383.84 31.7C1384.15 31.22 1384.3 30.6667 1384.3 30.04C1384.3 29.36 1384.14 28.7867 1383.82 28.32C1383.51 27.84 1383.07 27.48 1382.5 27.24C1381.94 26.9867 1381.27 26.86 1380.48 26.86C1379.37 26.86 1378.51 27.1533 1377.9 27.74C1377.29 28.3133 1376.98 29.08 1376.98 30.04C1376.98 30.68 1377.13 31.24 1377.42 31.72C1377.71 32.1867 1378.12 32.5533 1378.64 32.82C1379.17 33.0867 1379.79 33.22 1380.48 33.22ZM1384.3 25.06H1386.9V35H1384.48C1384.48 35 1384.46 34.8733 1384.42 34.62C1384.39 34.3533 1384.37 34.02 1384.34 33.62C1384.31 33.22 1384.3 32.8267 1384.3 32.44V25.06ZM1382.22 23C1381.82 23 1381.47 22.94 1381.16 22.82C1380.85 22.7 1380.57 22.56 1380.3 22.4C1380.03 22.2267 1379.77 22.08 1379.5 21.96C1379.23 21.84 1378.94 21.78 1378.62 21.78C1378.34 21.78 1378.11 21.84 1377.94 21.96C1377.78 22.08 1377.65 22.2333 1377.56 22.42C1377.47 22.6067 1377.38 22.7933 1377.3 22.98H1375.46C1375.57 22.4867 1375.74 22.0333 1375.98 21.62C1376.23 21.1933 1376.56 20.8533 1376.96 20.6C1377.36 20.3333 1377.83 20.2 1378.38 20.2C1378.79 20.2 1379.15 20.26 1379.46 20.38C1379.78 20.5 1380.07 20.6467 1380.34 20.82C1380.62 20.98 1380.89 21.12 1381.14 21.24C1381.39 21.36 1381.67 21.42 1381.96 21.42C1382.25 21.42 1382.48 21.36 1382.64 21.24C1382.81 21.1067 1382.95 20.9467 1383.04 20.76C1383.15 20.5733 1383.23 20.3933 1383.3 20.22H1385.16C1385.05 20.7 1384.87 21.1533 1384.62 21.58C1384.38 22.0067 1384.06 22.3533 1383.66 22.62C1383.26 22.8733 1382.78 23 1382.22 23ZM1395.11 35.24C1393.86 35.24 1392.75 35.04 1391.79 34.64C1390.85 34.24 1390.11 33.66 1389.57 32.9C1389.04 32.1267 1388.77 31.18 1388.77 30.06C1388.77 28.94 1389.04 27.9933 1389.57 27.22C1390.11 26.4333 1390.85 25.84 1391.79 25.44C1392.75 25.04 1393.86 24.84 1395.11 24.84C1396.37 24.84 1397.46 25.04 1398.39 25.44C1399.34 25.84 1400.08 26.4333 1400.61 27.22C1401.15 27.9933 1401.41 28.94 1401.41 30.06C1401.41 31.18 1401.15 32.1267 1400.61 32.9C1400.08 33.66 1399.34 34.24 1398.39 34.64C1397.46 35.04 1396.37 35.24 1395.11 35.24ZM1395.11 33.24C1395.81 33.24 1396.43 33.12 1396.97 32.88C1397.53 32.6267 1397.97 32.2667 1398.29 31.8C1398.61 31.32 1398.77 30.74 1398.77 30.06C1398.77 29.38 1398.61 28.8 1398.29 28.32C1397.97 27.8267 1397.54 27.4533 1396.99 27.2C1396.45 26.9467 1395.82 26.82 1395.11 26.82C1394.42 26.82 1393.79 26.9467 1393.23 27.2C1392.67 27.4533 1392.23 27.82 1391.89 28.3C1391.57 28.78 1391.41 29.3667 1391.41 30.06C1391.41 30.74 1391.57 31.32 1391.89 31.8C1392.21 32.2667 1392.65 32.6267 1393.21 32.88C1393.77 33.12 1394.41 33.24 1395.11 33.24Z" fill="black"/>
</svg>
