<svg width="1280" height="56" viewBox="0 0 1280 56" fill="none" xmlns="http://www.w3.org/2000/svg">
<g clip-path="url(#clip0_3119_1545)">
<rect width="3247" height="56" transform="translate(-1917)" fill="#F472B6"/>
<path d="M-64.06 22.06C-62.6067 22.06 -61.3933 22.2333 -60.42 22.58C-59.4467 22.9267 -58.6733 23.4 -58.1 24C-57.5133 24.5867 -57.1 25.2667 -56.86 26.04C-56.6067 26.8133 -56.48 27.6267 -56.48 28.48C-56.48 29.3333 -56.62 30.1533 -56.9 30.94C-57.1667 31.7267 -57.6 32.4267 -58.2 33.04C-58.7867 33.64 -59.5667 34.12 -60.54 34.48C-61.5 34.8267 -62.6733 35 -64.06 35H-71.46V22.06H-64.06ZM-68.8 32.72H-64.12C-63.16 32.72 -62.3667 32.6067 -61.74 32.38C-61.1 32.14 -60.5933 31.82 -60.22 31.42C-59.8467 31.02 -59.58 30.5667 -59.42 30.06C-59.26 29.5533 -59.18 29.0267 -59.18 28.48C-59.18 27.9333 -59.26 27.4133 -59.42 26.92C-59.58 26.4267 -59.8467 25.9867 -60.22 25.6C-60.5933 25.2133 -61.1 24.9067 -61.74 24.68C-62.3667 24.4533 -63.16 24.34 -64.12 24.34H-68.8V32.72ZM-48.3619 35.24C-49.6152 35.24 -50.7219 35.04 -51.6819 34.64C-52.6285 34.24 -53.3685 33.66 -53.9019 32.9C-54.4352 32.1267 -54.7019 31.18 -54.7019 30.06C-54.7019 28.94 -54.4352 27.9933 -53.9019 27.22C-53.3685 26.4333 -52.6285 25.84 -51.6819 25.44C-50.7219 25.04 -49.6152 24.84 -48.3619 24.84C-47.1085 24.84 -46.0152 25.04 -45.0819 25.44C-44.1352 25.84 -43.3952 26.4333 -42.8619 27.22C-42.3285 27.9933 -42.0619 28.94 -42.0619 30.06C-42.0619 31.18 -42.3285 32.1267 -42.8619 32.9C-43.3952 33.66 -44.1352 34.24 -45.0819 34.64C-46.0152 35.04 -47.1085 35.24 -48.3619 35.24ZM-48.3619 33.24C-47.6685 33.24 -47.0485 33.12 -46.5019 32.88C-45.9419 32.6267 -45.5019 32.2667 -45.1819 31.8C-44.8619 31.32 -44.7019 30.74 -44.7019 30.06C-44.7019 29.38 -44.8619 28.8 -45.1819 28.32C-45.5019 27.8267 -45.9352 27.4533 -46.4819 27.2C-47.0285 26.9467 -47.6552 26.82 -48.3619 26.82C-49.0552 26.82 -49.6819 26.9467 -50.2419 27.2C-50.8019 27.4533 -51.2485 27.82 -51.5819 28.3C-51.9019 28.78 -52.0619 29.3667 -52.0619 30.06C-52.0619 30.74 -51.9019 31.32 -51.5819 31.8C-51.2619 32.2667 -50.8219 32.6267 -50.2619 32.88C-49.7019 33.12 -49.0685 33.24 -48.3619 33.24ZM-28.3398 31.08C-28.4065 31.9467 -28.6865 32.6933 -29.1798 33.32C-29.6598 33.9467 -30.3265 34.4267 -31.1798 34.76C-32.0332 35.08 -33.0465 35.24 -34.2198 35.24C-35.4465 35.24 -36.5465 35.0467 -37.5198 34.66C-38.4798 34.26 -39.2398 33.68 -39.7998 32.92C-40.3465 32.1467 -40.6198 31.1933 -40.6198 30.06C-40.6198 28.9267 -40.3465 27.9733 -39.7998 27.2C-39.2398 26.4267 -38.4798 25.84 -37.5198 25.44C-36.5465 25.04 -35.4465 24.84 -34.2198 24.84C-33.0465 24.84 -32.0398 25.0067 -31.1998 25.34C-30.3598 25.66 -29.6998 26.1267 -29.2198 26.74C-28.7265 27.3533 -28.4398 28.0933 -28.3598 28.96H-30.7398C-30.9665 28.2933 -31.3865 27.7733 -31.9998 27.4C-32.6132 27.0267 -33.3532 26.84 -34.2198 26.84C-34.9132 26.84 -35.5465 26.96 -36.1198 27.2C-36.6798 27.44 -37.1332 27.8 -37.4798 28.28C-37.8132 28.7467 -37.9798 29.34 -37.9798 30.06C-37.9798 30.7667 -37.8132 31.36 -37.4798 31.84C-37.1465 32.3067 -36.6932 32.66 -36.1198 32.9C-35.5465 33.1267 -34.9132 33.24 -34.2198 33.24C-33.2865 33.24 -32.5265 33.0533 -31.9398 32.68C-31.3398 32.3067 -30.9332 31.7733 -30.7198 31.08H-28.3398ZM-17.3689 31.7H-14.8489C-14.9556 32.38 -15.2422 32.9867 -15.7089 33.52C-16.1622 34.0533 -16.7822 34.4733 -17.5689 34.78C-18.3556 35.0867 -19.3156 35.24 -20.4489 35.24C-21.7156 35.24 -22.8356 35.04 -23.8089 34.64C-24.7822 34.2267 -25.5422 33.6333 -26.0889 32.86C-26.6356 32.0867 -26.9089 31.1533 -26.9089 30.06C-26.9089 28.9667 -26.6422 28.0333 -26.1089 27.26C-25.5756 26.4733 -24.8356 25.8733 -23.8889 25.46C-22.9289 25.0467 -21.8089 24.84 -20.5289 24.84C-19.2222 24.84 -18.1356 25.0467 -17.2689 25.46C-16.4022 25.8733 -15.7622 26.5 -15.3489 27.34C-14.9222 28.1667 -14.7422 29.2267 -14.8089 30.52H-24.2889C-24.2222 31.0267 -24.0356 31.4867 -23.7289 31.9C-23.4089 32.3133 -22.9822 32.64 -22.4489 32.88C-21.9022 33.12 -21.2556 33.24 -20.5089 33.24C-19.6822 33.24 -18.9956 33.1 -18.4489 32.82C-17.8889 32.5267 -17.5289 32.1533 -17.3689 31.7ZM-20.6489 26.82C-21.6089 26.82 -22.3889 27.0333 -22.9889 27.46C-23.5889 27.8733 -23.9756 28.3867 -24.1489 29H-17.3889C-17.4556 28.3333 -17.7756 27.8067 -18.3489 27.42C-18.9089 27.02 -19.6756 26.82 -20.6489 26.82ZM-5.41 30.8V28.68H0.510001C1.21667 28.68 1.77667 28.4933 2.19 28.12C2.60333 27.7333 2.81 27.2 2.81 26.52C2.81 25.8133 2.60333 25.2733 2.19 24.9C1.77667 24.5267 1.21667 24.34 0.510001 24.34H-5.09V35H-7.75V22.06H0.27C0.99 22.06 1.66333 22.1467 2.29 22.32C2.93 22.4933 3.48333 22.76 3.95 23.12C4.43 23.48 4.80333 23.94 5.07 24.5C5.33667 25.06 5.47 25.7333 5.47 26.52C5.47 27.2933 5.33667 27.9533 5.07 28.5C4.80333 29.0467 4.43 29.4933 3.95 29.84C3.48333 30.1733 2.93 30.42 2.29 30.58C1.66333 30.7267 0.99 30.8 0.27 30.8H-5.41ZM12.1416 35.22C11.1549 35.22 10.2549 35.0067 9.44156 34.58C8.64156 34.14 8.00156 33.5333 7.52156 32.76C7.0549 31.9733 6.82156 31.0667 6.82156 30.04C6.82156 28.9867 7.06156 28.0733 7.54156 27.3C8.02156 26.5267 8.66823 25.9267 9.48156 25.5C10.3082 25.06 11.2416 24.84 12.2816 24.84C13.4282 24.84 14.3482 25.0733 15.0416 25.54C15.7482 25.9933 16.2616 26.6133 16.5816 27.4C16.9016 28.1867 17.0616 29.0667 17.0616 30.04C17.0616 30.6267 16.9682 31.2267 16.7816 31.84C16.5949 32.44 16.3082 33 15.9216 33.52C15.5349 34.0267 15.0282 34.44 14.4016 34.76C13.7749 35.0667 13.0216 35.22 12.1416 35.22ZM12.9816 33.22C13.7682 33.22 14.4482 33.0867 15.0216 32.82C15.5949 32.5533 16.0349 32.18 16.3416 31.7C16.6482 31.22 16.8016 30.6667 16.8016 30.04C16.8016 29.36 16.6416 28.7867 16.3216 28.32C16.0149 27.84 15.5749 27.48 15.0016 27.24C14.4416 26.9867 13.7682 26.86 12.9816 26.86C11.8749 26.86 11.0149 27.1533 10.4016 27.74C9.78823 28.3133 9.48156 29.08 9.48156 30.04C9.48156 30.68 9.62823 31.24 9.92156 31.72C10.2149 32.1867 10.6216 32.5533 11.1416 32.82C11.6749 33.0867 12.2882 33.22 12.9816 33.22ZM16.8016 25.06H19.4016V35H16.9816C16.9816 35 16.9616 34.8733 16.9216 34.62C16.8949 34.3533 16.8682 34.02 16.8416 33.62C16.8149 33.22 16.8016 32.8267 16.8016 32.44V25.06ZM24.7347 20.7V22.98H21.7147V20.7H24.7347ZM21.9147 25.06H24.5147V35H21.9147V25.06ZM38.3663 25.06L33.2063 30.6L29.4863 35H26.3063L31.6863 29.18L35.2063 25.06H38.3663ZM26.3063 25.06H29.4863L33.2463 29.14L38.6463 35H35.4663L31.6063 30.66L26.3063 25.06ZM44.6416 35.22C43.6549 35.22 42.7549 35.0067 41.9416 34.58C41.1416 34.14 40.5016 33.5333 40.0216 32.76C39.5549 31.9733 39.3216 31.0667 39.3216 30.04C39.3216 28.9867 39.5616 28.0733 40.0416 27.3C40.5216 26.5267 41.1682 25.9267 41.9816 25.5C42.8082 25.06 43.7416 24.84 44.7816 24.84C45.9282 24.84 46.8482 25.0733 47.5416 25.54C48.2482 25.9933 48.7616 26.6133 49.0816 27.4C49.4016 28.1867 49.5616 29.0667 49.5616 30.04C49.5616 30.6267 49.4682 31.2267 49.2816 31.84C49.0949 32.44 48.8082 33 48.4216 33.52C48.0349 34.0267 47.5282 34.44 46.9016 34.76C46.2749 35.0667 45.5216 35.22 44.6416 35.22ZM45.4816 33.22C46.2682 33.22 46.9482 33.0867 47.5216 32.82C48.0949 32.5533 48.5349 32.18 48.8416 31.7C49.1482 31.22 49.3016 30.6667 49.3016 30.04C49.3016 29.36 49.1416 28.7867 48.8216 28.32C48.5149 27.84 48.0749 27.48 47.5016 27.24C46.9416 26.9867 46.2682 26.86 45.4816 26.86C44.3749 26.86 43.5149 27.1533 42.9016 27.74C42.2882 28.3133 41.9816 29.08 41.9816 30.04C41.9816 30.68 42.1282 31.24 42.4216 31.72C42.7149 32.1867 43.1216 32.5533 43.6416 32.82C44.1749 33.0867 44.7882 33.22 45.4816 33.22ZM49.3016 25.06H51.9016V35H49.4816C49.4816 35 49.4616 34.8733 49.4216 34.62C49.3949 34.3533 49.3682 34.02 49.3416 33.62C49.3149 33.22 49.3016 32.8267 49.3016 32.44V25.06ZM47.2216 23C46.8216 23 46.4682 22.94 46.1616 22.82C45.8549 22.7 45.5682 22.56 45.3016 22.4C45.0349 22.2267 44.7682 22.08 44.5016 21.96C44.2349 21.84 43.9416 21.78 43.6216 21.78C43.3416 21.78 43.1149 21.84 42.9416 21.96C42.7816 22.08 42.6549 22.2333 42.5616 22.42C42.4682 22.6067 42.3816 22.7933 42.3016 22.98H40.4616C40.5682 22.4867 40.7416 22.0333 40.9816 21.62C41.2349 21.1933 41.5616 20.8533 41.9616 20.6C42.3616 20.3333 42.8349 20.2 43.3816 20.2C43.7949 20.2 44.1549 20.26 44.4616 20.38C44.7816 20.5 45.0749 20.6467 45.3416 20.82C45.6216 20.98 45.8882 21.12 46.1416 21.24C46.3949 21.36 46.6682 21.42 46.9616 21.42C47.2549 21.42 47.4816 21.36 47.6416 21.24C47.8149 21.1067 47.9482 20.9467 48.0416 20.76C48.1482 20.5733 48.2349 20.3933 48.3016 20.22H50.1616C50.0549 20.7 49.8749 21.1533 49.6216 21.58C49.3816 22.0067 49.0616 22.3533 48.6616 22.62C48.2616 22.8733 47.7816 23 47.2216 23ZM60.1147 35.24C58.8614 35.24 57.7547 35.04 56.7947 34.64C55.848 34.24 55.108 33.66 54.5747 32.9C54.0414 32.1267 53.7747 31.18 53.7747 30.06C53.7747 28.94 54.0414 27.9933 54.5747 27.22C55.108 26.4333 55.848 25.84 56.7947 25.44C57.7547 25.04 58.8614 24.84 60.1147 24.84C61.368 24.84 62.4614 25.04 63.3947 25.44C64.3414 25.84 65.0814 26.4333 65.6147 27.22C66.148 27.9933 66.4147 28.94 66.4147 30.06C66.4147 31.18 66.148 32.1267 65.6147 32.9C65.0814 33.66 64.3414 34.24 63.3947 34.64C62.4614 35.04 61.368 35.24 60.1147 35.24ZM60.1147 33.24C60.808 33.24 61.428 33.12 61.9747 32.88C62.5347 32.6267 62.9747 32.2667 63.2947 31.8C63.6147 31.32 63.7747 30.74 63.7747 30.06C63.7747 29.38 63.6147 28.8 63.2947 28.32C62.9747 27.8267 62.5414 27.4533 61.9947 27.2C61.448 26.9467 60.8214 26.82 60.1147 26.82C59.4214 26.82 58.7947 26.9467 58.2347 27.2C57.6747 27.4533 57.228 27.82 56.8947 28.3C56.5747 28.78 56.4147 29.3667 56.4147 30.06C56.4147 30.74 56.5747 31.32 56.8947 31.8C57.2147 32.2667 57.6547 32.6267 58.2147 32.88C58.7747 33.12 59.408 33.24 60.1147 33.24Z" fill="black"/>
<path d="M99.0621 22.5345C99.3843 21.6639 100.616 21.6639 100.938 22.5345L102.001 25.408C102.102 25.6818 102.318 25.8976 102.592 25.9988L105.465 27.0621C106.336 27.3843 106.336 28.6157 105.465 28.9379L102.592 30.0012C102.318 30.1024 102.102 30.3182 102.001 30.592L100.938 33.4655C100.616 34.3361 99.3843 34.3361 99.0621 33.4655L97.9988 30.592C97.8976 30.3182 97.6818 30.1024 97.408 30.0012L94.5345 28.9379C93.6639 28.6157 93.6639 27.3843 94.5345 27.0621L97.408 25.9988C97.6818 25.8976 97.8976 25.6818 97.9988 25.408L99.0621 22.5345Z" fill="black"/>
<path d="M140.94 22.06C142.393 22.06 143.607 22.2333 144.58 22.58C145.553 22.9267 146.327 23.4 146.9 24C147.487 24.5867 147.9 25.2667 148.14 26.04C148.393 26.8133 148.52 27.6267 148.52 28.48C148.52 29.3333 148.38 30.1533 148.1 30.94C147.833 31.7267 147.4 32.4267 146.8 33.04C146.213 33.64 145.433 34.12 144.46 34.48C143.5 34.8267 142.327 35 140.94 35H133.54V22.06H140.94ZM136.2 32.72H140.88C141.84 32.72 142.633 32.6067 143.26 32.38C143.9 32.14 144.407 31.82 144.78 31.42C145.153 31.02 145.42 30.5667 145.58 30.06C145.74 29.5533 145.82 29.0267 145.82 28.48C145.82 27.9333 145.74 27.4133 145.58 26.92C145.42 26.4267 145.153 25.9867 144.78 25.6C144.407 25.2133 143.9 24.9067 143.26 24.68C142.633 24.4533 141.84 24.34 140.88 24.34H136.2V32.72ZM156.638 35.24C155.385 35.24 154.278 35.04 153.318 34.64C152.371 34.24 151.631 33.66 151.098 32.9C150.565 32.1267 150.298 31.18 150.298 30.06C150.298 28.94 150.565 27.9933 151.098 27.22C151.631 26.4333 152.371 25.84 153.318 25.44C154.278 25.04 155.385 24.84 156.638 24.84C157.891 24.84 158.985 25.04 159.918 25.44C160.865 25.84 161.605 26.4333 162.138 27.22C162.671 27.9933 162.938 28.94 162.938 30.06C162.938 31.18 162.671 32.1267 162.138 32.9C161.605 33.66 160.865 34.24 159.918 34.64C158.985 35.04 157.891 35.24 156.638 35.24ZM156.638 33.24C157.331 33.24 157.951 33.12 158.498 32.88C159.058 32.6267 159.498 32.2667 159.818 31.8C160.138 31.32 160.298 30.74 160.298 30.06C160.298 29.38 160.138 28.8 159.818 28.32C159.498 27.8267 159.065 27.4533 158.518 27.2C157.971 26.9467 157.345 26.82 156.638 26.82C155.945 26.82 155.318 26.9467 154.758 27.2C154.198 27.4533 153.751 27.82 153.418 28.3C153.098 28.78 152.938 29.3667 152.938 30.06C152.938 30.74 153.098 31.32 153.418 31.8C153.738 32.2667 154.178 32.6267 154.738 32.88C155.298 33.12 155.931 33.24 156.638 33.24ZM176.66 31.08C176.593 31.9467 176.313 32.6933 175.82 33.32C175.34 33.9467 174.673 34.4267 173.82 34.76C172.967 35.08 171.953 35.24 170.78 35.24C169.553 35.24 168.453 35.0467 167.48 34.66C166.52 34.26 165.76 33.68 165.2 32.92C164.653 32.1467 164.38 31.1933 164.38 30.06C164.38 28.9267 164.653 27.9733 165.2 27.2C165.76 26.4267 166.52 25.84 167.48 25.44C168.453 25.04 169.553 24.84 170.78 24.84C171.953 24.84 172.96 25.0067 173.8 25.34C174.64 25.66 175.3 26.1267 175.78 26.74C176.273 27.3533 176.56 28.0933 176.64 28.96H174.26C174.033 28.2933 173.613 27.7733 173 27.4C172.387 27.0267 171.647 26.84 170.78 26.84C170.087 26.84 169.453 26.96 168.88 27.2C168.32 27.44 167.867 27.8 167.52 28.28C167.187 28.7467 167.02 29.34 167.02 30.06C167.02 30.7667 167.187 31.36 167.52 31.84C167.853 32.3067 168.307 32.66 168.88 32.9C169.453 33.1267 170.087 33.24 170.78 33.24C171.713 33.24 172.473 33.0533 173.06 32.68C173.66 32.3067 174.067 31.7733 174.28 31.08H176.66ZM187.631 31.7H190.151C190.044 32.38 189.758 32.9867 189.291 33.52C188.838 34.0533 188.218 34.4733 187.431 34.78C186.644 35.0867 185.684 35.24 184.551 35.24C183.284 35.24 182.164 35.04 181.191 34.64C180.218 34.2267 179.458 33.6333 178.911 32.86C178.364 32.0867 178.091 31.1533 178.091 30.06C178.091 28.9667 178.358 28.0333 178.891 27.26C179.424 26.4733 180.164 25.8733 181.111 25.46C182.071 25.0467 183.191 24.84 184.471 24.84C185.778 24.84 186.864 25.0467 187.731 25.46C188.598 25.8733 189.238 26.5 189.651 27.34C190.078 28.1667 190.258 29.2267 190.191 30.52H180.711C180.778 31.0267 180.964 31.4867 181.271 31.9C181.591 32.3133 182.018 32.64 182.551 32.88C183.098 33.12 183.744 33.24 184.491 33.24C185.318 33.24 186.004 33.1 186.551 32.82C187.111 32.5267 187.471 32.1533 187.631 31.7ZM184.351 26.82C183.391 26.82 182.611 27.0333 182.011 27.46C181.411 27.8733 181.024 28.3867 180.851 29H187.611C187.544 28.3333 187.224 27.8067 186.651 27.42C186.091 27.02 185.324 26.82 184.351 26.82ZM199.59 30.8V28.68H205.51C206.217 28.68 206.777 28.4933 207.19 28.12C207.603 27.7333 207.81 27.2 207.81 26.52C207.81 25.8133 207.603 25.2733 207.19 24.9C206.777 24.5267 206.217 24.34 205.51 24.34H199.91V35H197.25V22.06H205.27C205.99 22.06 206.663 22.1467 207.29 22.32C207.93 22.4933 208.483 22.76 208.95 23.12C209.43 23.48 209.803 23.94 210.07 24.5C210.337 25.06 210.47 25.7333 210.47 26.52C210.47 27.2933 210.337 27.9533 210.07 28.5C209.803 29.0467 209.43 29.4933 208.95 29.84C208.483 30.1733 207.93 30.42 207.29 30.58C206.663 30.7267 205.99 30.8 205.27 30.8H199.59ZM217.142 35.22C216.155 35.22 215.255 35.0067 214.442 34.58C213.642 34.14 213.002 33.5333 212.522 32.76C212.055 31.9733 211.822 31.0667 211.822 30.04C211.822 28.9867 212.062 28.0733 212.542 27.3C213.022 26.5267 213.668 25.9267 214.482 25.5C215.308 25.06 216.242 24.84 217.282 24.84C218.428 24.84 219.348 25.0733 220.042 25.54C220.748 25.9933 221.262 26.6133 221.582 27.4C221.902 28.1867 222.062 29.0667 222.062 30.04C222.062 30.6267 221.968 31.2267 221.782 31.84C221.595 32.44 221.308 33 220.922 33.52C220.535 34.0267 220.028 34.44 219.402 34.76C218.775 35.0667 218.022 35.22 217.142 35.22ZM217.982 33.22C218.768 33.22 219.448 33.0867 220.022 32.82C220.595 32.5533 221.035 32.18 221.342 31.7C221.648 31.22 221.802 30.6667 221.802 30.04C221.802 29.36 221.642 28.7867 221.322 28.32C221.015 27.84 220.575 27.48 220.002 27.24C219.442 26.9867 218.768 26.86 217.982 26.86C216.875 26.86 216.015 27.1533 215.402 27.74C214.788 28.3133 214.482 29.08 214.482 30.04C214.482 30.68 214.628 31.24 214.922 31.72C215.215 32.1867 215.622 32.5533 216.142 32.82C216.675 33.0867 217.288 33.22 217.982 33.22ZM221.802 25.06H224.402V35H221.982C221.982 35 221.962 34.8733 221.922 34.62C221.895 34.3533 221.868 34.02 221.842 33.62C221.815 33.22 221.802 32.8267 221.802 32.44V25.06ZM229.735 20.7V22.98H226.715V20.7H229.735ZM226.915 25.06H229.515V35H226.915V25.06ZM243.366 25.06L238.206 30.6L234.486 35H231.306L236.686 29.18L240.206 25.06H243.366ZM231.306 25.06H234.486L238.246 29.14L243.646 35H240.466L236.606 30.66L231.306 25.06ZM249.642 35.22C248.655 35.22 247.755 35.0067 246.942 34.58C246.142 34.14 245.502 33.5333 245.022 32.76C244.555 31.9733 244.322 31.0667 244.322 30.04C244.322 28.9867 244.562 28.0733 245.042 27.3C245.522 26.5267 246.168 25.9267 246.982 25.5C247.808 25.06 248.742 24.84 249.782 24.84C250.928 24.84 251.848 25.0733 252.542 25.54C253.248 25.9933 253.762 26.6133 254.082 27.4C254.402 28.1867 254.562 29.0667 254.562 30.04C254.562 30.6267 254.468 31.2267 254.282 31.84C254.095 32.44 253.808 33 253.422 33.52C253.035 34.0267 252.528 34.44 251.902 34.76C251.275 35.0667 250.522 35.22 249.642 35.22ZM250.482 33.22C251.268 33.22 251.948 33.0867 252.522 32.82C253.095 32.5533 253.535 32.18 253.842 31.7C254.148 31.22 254.302 30.6667 254.302 30.04C254.302 29.36 254.142 28.7867 253.822 28.32C253.515 27.84 253.075 27.48 252.502 27.24C251.942 26.9867 251.268 26.86 250.482 26.86C249.375 26.86 248.515 27.1533 247.902 27.74C247.288 28.3133 246.982 29.08 246.982 30.04C246.982 30.68 247.128 31.24 247.422 31.72C247.715 32.1867 248.122 32.5533 248.642 32.82C249.175 33.0867 249.788 33.22 250.482 33.22ZM254.302 25.06H256.902V35H254.482C254.482 35 254.462 34.8733 254.422 34.62C254.395 34.3533 254.368 34.02 254.342 33.62C254.315 33.22 254.302 32.8267 254.302 32.44V25.06ZM252.222 23C251.822 23 251.468 22.94 251.162 22.82C250.855 22.7 250.568 22.56 250.302 22.4C250.035 22.2267 249.768 22.08 249.502 21.96C249.235 21.84 248.942 21.78 248.622 21.78C248.342 21.78 248.115 21.84 247.942 21.96C247.782 22.08 247.655 22.2333 247.562 22.42C247.468 22.6067 247.382 22.7933 247.302 22.98H245.462C245.568 22.4867 245.742 22.0333 245.982 21.62C246.235 21.1933 246.562 20.8533 246.962 20.6C247.362 20.3333 247.835 20.2 248.382 20.2C248.795 20.2 249.155 20.26 249.462 20.38C249.782 20.5 250.075 20.6467 250.342 20.82C250.622 20.98 250.888 21.12 251.142 21.24C251.395 21.36 251.668 21.42 251.962 21.42C252.255 21.42 252.482 21.36 252.642 21.24C252.815 21.1067 252.948 20.9467 253.042 20.76C253.148 20.5733 253.235 20.3933 253.302 20.22H255.162C255.055 20.7 254.875 21.1533 254.622 21.58C254.382 22.0067 254.062 22.3533 253.662 22.62C253.262 22.8733 252.782 23 252.222 23ZM265.115 35.24C263.861 35.24 262.755 35.04 261.795 34.64C260.848 34.24 260.108 33.66 259.575 32.9C259.041 32.1267 258.775 31.18 258.775 30.06C258.775 28.94 259.041 27.9933 259.575 27.22C260.108 26.4333 260.848 25.84 261.795 25.44C262.755 25.04 263.861 24.84 265.115 24.84C266.368 24.84 267.461 25.04 268.395 25.44C269.341 25.84 270.081 26.4333 270.615 27.22C271.148 27.9933 271.415 28.94 271.415 30.06C271.415 31.18 271.148 32.1267 270.615 32.9C270.081 33.66 269.341 34.24 268.395 34.64C267.461 35.04 266.368 35.24 265.115 35.24ZM265.115 33.24C265.808 33.24 266.428 33.12 266.975 32.88C267.535 32.6267 267.975 32.2667 268.295 31.8C268.615 31.32 268.775 30.74 268.775 30.06C268.775 29.38 268.615 28.8 268.295 28.32C267.975 27.8267 267.541 27.4533 266.995 27.2C266.448 26.9467 265.821 26.82 265.115 26.82C264.421 26.82 263.795 26.9467 263.235 27.2C262.675 27.4533 262.228 27.82 261.895 28.3C261.575 28.78 261.415 29.3667 261.415 30.06C261.415 30.74 261.575 31.32 261.895 31.8C262.215 32.2667 262.655 32.6267 263.215 32.88C263.775 33.12 264.408 33.24 265.115 33.24Z" fill="black"/>
<path d="M304.062 22.5345C304.384 21.6639 305.616 21.6639 305.938 22.5345L307.001 25.408C307.102 25.6818 307.318 25.8976 307.592 25.9988L310.465 27.0621C311.336 27.3843 311.336 28.6157 310.465 28.9379L307.592 30.0012C307.318 30.1024 307.102 30.3182 307.001 30.592L305.938 33.4655C305.616 34.3361 304.384 34.3361 304.062 33.4655L302.999 30.592C302.898 30.3182 302.682 30.1024 302.408 30.0012L299.535 28.9379C298.664 28.6157 298.664 27.3843 299.535 27.0621L302.408 25.9988C302.682 25.8976 302.898 25.6818 302.999 25.408L304.062 22.5345Z" fill="black"/>
<path d="M345.94 22.06C347.393 22.06 348.607 22.2333 349.58 22.58C350.553 22.9267 351.327 23.4 351.9 24C352.487 24.5867 352.9 25.2667 353.14 26.04C353.393 26.8133 353.52 27.6267 353.52 28.48C353.52 29.3333 353.38 30.1533 353.1 30.94C352.833 31.7267 352.4 32.4267 351.8 33.04C351.213 33.64 350.433 34.12 349.46 34.48C348.5 34.8267 347.327 35 345.94 35H338.54V22.06H345.94ZM341.2 32.72H345.88C346.84 32.72 347.633 32.6067 348.26 32.38C348.9 32.14 349.407 31.82 349.78 31.42C350.153 31.02 350.42 30.5667 350.58 30.06C350.74 29.5533 350.82 29.0267 350.82 28.48C350.82 27.9333 350.74 27.4133 350.58 26.92C350.42 26.4267 350.153 25.9867 349.78 25.6C349.407 25.2133 348.9 24.9067 348.26 24.68C347.633 24.4533 346.84 24.34 345.88 24.34H341.2V32.72ZM361.638 35.24C360.385 35.24 359.278 35.04 358.318 34.64C357.371 34.24 356.631 33.66 356.098 32.9C355.565 32.1267 355.298 31.18 355.298 30.06C355.298 28.94 355.565 27.9933 356.098 27.22C356.631 26.4333 357.371 25.84 358.318 25.44C359.278 25.04 360.385 24.84 361.638 24.84C362.891 24.84 363.985 25.04 364.918 25.44C365.865 25.84 366.605 26.4333 367.138 27.22C367.671 27.9933 367.938 28.94 367.938 30.06C367.938 31.18 367.671 32.1267 367.138 32.9C366.605 33.66 365.865 34.24 364.918 34.64C363.985 35.04 362.891 35.24 361.638 35.24ZM361.638 33.24C362.331 33.24 362.951 33.12 363.498 32.88C364.058 32.6267 364.498 32.2667 364.818 31.8C365.138 31.32 365.298 30.74 365.298 30.06C365.298 29.38 365.138 28.8 364.818 28.32C364.498 27.8267 364.065 27.4533 363.518 27.2C362.971 26.9467 362.345 26.82 361.638 26.82C360.945 26.82 360.318 26.9467 359.758 27.2C359.198 27.4533 358.751 27.82 358.418 28.3C358.098 28.78 357.938 29.3667 357.938 30.06C357.938 30.74 358.098 31.32 358.418 31.8C358.738 32.2667 359.178 32.6267 359.738 32.88C360.298 33.12 360.931 33.24 361.638 33.24ZM381.66 31.08C381.593 31.9467 381.313 32.6933 380.82 33.32C380.34 33.9467 379.673 34.4267 378.82 34.76C377.967 35.08 376.953 35.24 375.78 35.24C374.553 35.24 373.453 35.0467 372.48 34.66C371.52 34.26 370.76 33.68 370.2 32.92C369.653 32.1467 369.38 31.1933 369.38 30.06C369.38 28.9267 369.653 27.9733 370.2 27.2C370.76 26.4267 371.52 25.84 372.48 25.44C373.453 25.04 374.553 24.84 375.78 24.84C376.953 24.84 377.96 25.0067 378.8 25.34C379.64 25.66 380.3 26.1267 380.78 26.74C381.273 27.3533 381.56 28.0933 381.64 28.96H379.26C379.033 28.2933 378.613 27.7733 378 27.4C377.387 27.0267 376.647 26.84 375.78 26.84C375.087 26.84 374.453 26.96 373.88 27.2C373.32 27.44 372.867 27.8 372.52 28.28C372.187 28.7467 372.02 29.34 372.02 30.06C372.02 30.7667 372.187 31.36 372.52 31.84C372.853 32.3067 373.307 32.66 373.88 32.9C374.453 33.1267 375.087 33.24 375.78 33.24C376.713 33.24 377.473 33.0533 378.06 32.68C378.66 32.3067 379.067 31.7733 379.28 31.08H381.66ZM392.631 31.7H395.151C395.044 32.38 394.758 32.9867 394.291 33.52C393.838 34.0533 393.218 34.4733 392.431 34.78C391.644 35.0867 390.684 35.24 389.551 35.24C388.284 35.24 387.164 35.04 386.191 34.64C385.218 34.2267 384.458 33.6333 383.911 32.86C383.364 32.0867 383.091 31.1533 383.091 30.06C383.091 28.9667 383.358 28.0333 383.891 27.26C384.424 26.4733 385.164 25.8733 386.111 25.46C387.071 25.0467 388.191 24.84 389.471 24.84C390.778 24.84 391.864 25.0467 392.731 25.46C393.598 25.8733 394.238 26.5 394.651 27.34C395.078 28.1667 395.258 29.2267 395.191 30.52H385.711C385.778 31.0267 385.964 31.4867 386.271 31.9C386.591 32.3133 387.018 32.64 387.551 32.88C388.098 33.12 388.744 33.24 389.491 33.24C390.318 33.24 391.004 33.1 391.551 32.82C392.111 32.5267 392.471 32.1533 392.631 31.7ZM389.351 26.82C388.391 26.82 387.611 27.0333 387.011 27.46C386.411 27.8733 386.024 28.3867 385.851 29H392.611C392.544 28.3333 392.224 27.8067 391.651 27.42C391.091 27.02 390.324 26.82 389.351 26.82ZM404.59 30.8V28.68H410.51C411.217 28.68 411.777 28.4933 412.19 28.12C412.603 27.7333 412.81 27.2 412.81 26.52C412.81 25.8133 412.603 25.2733 412.19 24.9C411.777 24.5267 411.217 24.34 410.51 24.34H404.91V35H402.25V22.06H410.27C410.99 22.06 411.663 22.1467 412.29 22.32C412.93 22.4933 413.483 22.76 413.95 23.12C414.43 23.48 414.803 23.94 415.07 24.5C415.337 25.06 415.47 25.7333 415.47 26.52C415.47 27.2933 415.337 27.9533 415.07 28.5C414.803 29.0467 414.43 29.4933 413.95 29.84C413.483 30.1733 412.93 30.42 412.29 30.58C411.663 30.7267 410.99 30.8 410.27 30.8H404.59ZM422.142 35.22C421.155 35.22 420.255 35.0067 419.442 34.58C418.642 34.14 418.002 33.5333 417.522 32.76C417.055 31.9733 416.822 31.0667 416.822 30.04C416.822 28.9867 417.062 28.0733 417.542 27.3C418.022 26.5267 418.668 25.9267 419.482 25.5C420.308 25.06 421.242 24.84 422.282 24.84C423.428 24.84 424.348 25.0733 425.042 25.54C425.748 25.9933 426.262 26.6133 426.582 27.4C426.902 28.1867 427.062 29.0667 427.062 30.04C427.062 30.6267 426.968 31.2267 426.782 31.84C426.595 32.44 426.308 33 425.922 33.52C425.535 34.0267 425.028 34.44 424.402 34.76C423.775 35.0667 423.022 35.22 422.142 35.22ZM422.982 33.22C423.768 33.22 424.448 33.0867 425.022 32.82C425.595 32.5533 426.035 32.18 426.342 31.7C426.648 31.22 426.802 30.6667 426.802 30.04C426.802 29.36 426.642 28.7867 426.322 28.32C426.015 27.84 425.575 27.48 425.002 27.24C424.442 26.9867 423.768 26.86 422.982 26.86C421.875 26.86 421.015 27.1533 420.402 27.74C419.788 28.3133 419.482 29.08 419.482 30.04C419.482 30.68 419.628 31.24 419.922 31.72C420.215 32.1867 420.622 32.5533 421.142 32.82C421.675 33.0867 422.288 33.22 422.982 33.22ZM426.802 25.06H429.402V35H426.982C426.982 35 426.962 34.8733 426.922 34.62C426.895 34.3533 426.868 34.02 426.842 33.62C426.815 33.22 426.802 32.8267 426.802 32.44V25.06ZM434.735 20.7V22.98H431.715V20.7H434.735ZM431.915 25.06H434.515V35H431.915V25.06ZM448.366 25.06L443.206 30.6L439.486 35H436.306L441.686 29.18L445.206 25.06H448.366ZM436.306 25.06H439.486L443.246 29.14L448.646 35H445.466L441.606 30.66L436.306 25.06ZM454.642 35.22C453.655 35.22 452.755 35.0067 451.942 34.58C451.142 34.14 450.502 33.5333 450.022 32.76C449.555 31.9733 449.322 31.0667 449.322 30.04C449.322 28.9867 449.562 28.0733 450.042 27.3C450.522 26.5267 451.168 25.9267 451.982 25.5C452.808 25.06 453.742 24.84 454.782 24.84C455.928 24.84 456.848 25.0733 457.542 25.54C458.248 25.9933 458.762 26.6133 459.082 27.4C459.402 28.1867 459.562 29.0667 459.562 30.04C459.562 30.6267 459.468 31.2267 459.282 31.84C459.095 32.44 458.808 33 458.422 33.52C458.035 34.0267 457.528 34.44 456.902 34.76C456.275 35.0667 455.522 35.22 454.642 35.22ZM455.482 33.22C456.268 33.22 456.948 33.0867 457.522 32.82C458.095 32.5533 458.535 32.18 458.842 31.7C459.148 31.22 459.302 30.6667 459.302 30.04C459.302 29.36 459.142 28.7867 458.822 28.32C458.515 27.84 458.075 27.48 457.502 27.24C456.942 26.9867 456.268 26.86 455.482 26.86C454.375 26.86 453.515 27.1533 452.902 27.74C452.288 28.3133 451.982 29.08 451.982 30.04C451.982 30.68 452.128 31.24 452.422 31.72C452.715 32.1867 453.122 32.5533 453.642 32.82C454.175 33.0867 454.788 33.22 455.482 33.22ZM459.302 25.06H461.902V35H459.482C459.482 35 459.462 34.8733 459.422 34.62C459.395 34.3533 459.368 34.02 459.342 33.62C459.315 33.22 459.302 32.8267 459.302 32.44V25.06ZM457.222 23C456.822 23 456.468 22.94 456.162 22.82C455.855 22.7 455.568 22.56 455.302 22.4C455.035 22.2267 454.768 22.08 454.502 21.96C454.235 21.84 453.942 21.78 453.622 21.78C453.342 21.78 453.115 21.84 452.942 21.96C452.782 22.08 452.655 22.2333 452.562 22.42C452.468 22.6067 452.382 22.7933 452.302 22.98H450.462C450.568 22.4867 450.742 22.0333 450.982 21.62C451.235 21.1933 451.562 20.8533 451.962 20.6C452.362 20.3333 452.835 20.2 453.382 20.2C453.795 20.2 454.155 20.26 454.462 20.38C454.782 20.5 455.075 20.6467 455.342 20.82C455.622 20.98 455.888 21.12 456.142 21.24C456.395 21.36 456.668 21.42 456.962 21.42C457.255 21.42 457.482 21.36 457.642 21.24C457.815 21.1067 457.948 20.9467 458.042 20.76C458.148 20.5733 458.235 20.3933 458.302 20.22H460.162C460.055 20.7 459.875 21.1533 459.622 21.58C459.382 22.0067 459.062 22.3533 458.662 22.62C458.262 22.8733 457.782 23 457.222 23ZM470.115 35.24C468.861 35.24 467.755 35.04 466.795 34.64C465.848 34.24 465.108 33.66 464.575 32.9C464.041 32.1267 463.775 31.18 463.775 30.06C463.775 28.94 464.041 27.9933 464.575 27.22C465.108 26.4333 465.848 25.84 466.795 25.44C467.755 25.04 468.861 24.84 470.115 24.84C471.368 24.84 472.461 25.04 473.395 25.44C474.341 25.84 475.081 26.4333 475.615 27.22C476.148 27.9933 476.415 28.94 476.415 30.06C476.415 31.18 476.148 32.1267 475.615 32.9C475.081 33.66 474.341 34.24 473.395 34.64C472.461 35.04 471.368 35.24 470.115 35.24ZM470.115 33.24C470.808 33.24 471.428 33.12 471.975 32.88C472.535 32.6267 472.975 32.2667 473.295 31.8C473.615 31.32 473.775 30.74 473.775 30.06C473.775 29.38 473.615 28.8 473.295 28.32C472.975 27.8267 472.541 27.4533 471.995 27.2C471.448 26.9467 470.821 26.82 470.115 26.82C469.421 26.82 468.795 26.9467 468.235 27.2C467.675 27.4533 467.228 27.82 466.895 28.3C466.575 28.78 466.415 29.3667 466.415 30.06C466.415 30.74 466.575 31.32 466.895 31.8C467.215 32.2667 467.655 32.6267 468.215 32.88C468.775 33.12 469.408 33.24 470.115 33.24Z" fill="black"/>
<path d="M509.062 22.5345C509.384 21.6639 510.616 21.6639 510.938 22.5345L512.001 25.408C512.102 25.6818 512.318 25.8976 512.592 25.9988L515.465 27.0621C516.336 27.3843 516.336 28.6157 515.465 28.9379L512.592 30.0012C512.318 30.1024 512.102 30.3182 512.001 30.592L510.938 33.4655C510.616 34.3361 509.384 34.3361 509.062 33.4655L507.999 30.592C507.898 30.3182 507.682 30.1024 507.408 30.0012L504.535 28.9379C503.664 28.6157 503.664 27.3843 504.535 27.0621L507.408 25.9988C507.682 25.8976 507.898 25.6818 507.999 25.408L509.062 22.5345Z" fill="black"/>
<path d="M550.94 22.06C552.393 22.06 553.607 22.2333 554.58 22.58C555.553 22.9267 556.327 23.4 556.9 24C557.487 24.5867 557.9 25.2667 558.14 26.04C558.393 26.8133 558.52 27.6267 558.52 28.48C558.52 29.3333 558.38 30.1533 558.1 30.94C557.833 31.7267 557.4 32.4267 556.8 33.04C556.213 33.64 555.433 34.12 554.46 34.48C553.5 34.8267 552.327 35 550.94 35H543.54V22.06H550.94ZM546.2 32.72H550.88C551.84 32.72 552.633 32.6067 553.26 32.38C553.9 32.14 554.407 31.82 554.78 31.42C555.153 31.02 555.42 30.5667 555.58 30.06C555.74 29.5533 555.82 29.0267 555.82 28.48C555.82 27.9333 555.74 27.4133 555.58 26.92C555.42 26.4267 555.153 25.9867 554.78 25.6C554.407 25.2133 553.9 24.9067 553.26 24.68C552.633 24.4533 551.84 24.34 550.88 24.34H546.2V32.72ZM566.638 35.24C565.385 35.24 564.278 35.04 563.318 34.64C562.371 34.24 561.631 33.66 561.098 32.9C560.565 32.1267 560.298 31.18 560.298 30.06C560.298 28.94 560.565 27.9933 561.098 27.22C561.631 26.4333 562.371 25.84 563.318 25.44C564.278 25.04 565.385 24.84 566.638 24.84C567.891 24.84 568.985 25.04 569.918 25.44C570.865 25.84 571.605 26.4333 572.138 27.22C572.671 27.9933 572.938 28.94 572.938 30.06C572.938 31.18 572.671 32.1267 572.138 32.9C571.605 33.66 570.865 34.24 569.918 34.64C568.985 35.04 567.891 35.24 566.638 35.24ZM566.638 33.24C567.331 33.24 567.951 33.12 568.498 32.88C569.058 32.6267 569.498 32.2667 569.818 31.8C570.138 31.32 570.298 30.74 570.298 30.06C570.298 29.38 570.138 28.8 569.818 28.32C569.498 27.8267 569.065 27.4533 568.518 27.2C567.971 26.9467 567.345 26.82 566.638 26.82C565.945 26.82 565.318 26.9467 564.758 27.2C564.198 27.4533 563.751 27.82 563.418 28.3C563.098 28.78 562.938 29.3667 562.938 30.06C562.938 30.74 563.098 31.32 563.418 31.8C563.738 32.2667 564.178 32.6267 564.738 32.88C565.298 33.12 565.931 33.24 566.638 33.24ZM586.66 31.08C586.593 31.9467 586.313 32.6933 585.82 33.32C585.34 33.9467 584.673 34.4267 583.82 34.76C582.967 35.08 581.953 35.24 580.78 35.24C579.553 35.24 578.453 35.0467 577.48 34.66C576.52 34.26 575.76 33.68 575.2 32.92C574.653 32.1467 574.38 31.1933 574.38 30.06C574.38 28.9267 574.653 27.9733 575.2 27.2C575.76 26.4267 576.52 25.84 577.48 25.44C578.453 25.04 579.553 24.84 580.78 24.84C581.953 24.84 582.96 25.0067 583.8 25.34C584.64 25.66 585.3 26.1267 585.78 26.74C586.273 27.3533 586.56 28.0933 586.64 28.96H584.26C584.033 28.2933 583.613 27.7733 583 27.4C582.387 27.0267 581.647 26.84 580.78 26.84C580.087 26.84 579.453 26.96 578.88 27.2C578.32 27.44 577.867 27.8 577.52 28.28C577.187 28.7467 577.02 29.34 577.02 30.06C577.02 30.7667 577.187 31.36 577.52 31.84C577.853 32.3067 578.307 32.66 578.88 32.9C579.453 33.1267 580.087 33.24 580.78 33.24C581.713 33.24 582.473 33.0533 583.06 32.68C583.66 32.3067 584.067 31.7733 584.28 31.08H586.66ZM597.631 31.7H600.151C600.044 32.38 599.758 32.9867 599.291 33.52C598.838 34.0533 598.218 34.4733 597.431 34.78C596.644 35.0867 595.684 35.24 594.551 35.24C593.284 35.24 592.164 35.04 591.191 34.64C590.218 34.2267 589.458 33.6333 588.911 32.86C588.364 32.0867 588.091 31.1533 588.091 30.06C588.091 28.9667 588.358 28.0333 588.891 27.26C589.424 26.4733 590.164 25.8733 591.111 25.46C592.071 25.0467 593.191 24.84 594.471 24.84C595.778 24.84 596.864 25.0467 597.731 25.46C598.598 25.8733 599.238 26.5 599.651 27.34C600.078 28.1667 600.258 29.2267 600.191 30.52H590.711C590.778 31.0267 590.964 31.4867 591.271 31.9C591.591 32.3133 592.018 32.64 592.551 32.88C593.098 33.12 593.744 33.24 594.491 33.24C595.318 33.24 596.004 33.1 596.551 32.82C597.111 32.5267 597.471 32.1533 597.631 31.7ZM594.351 26.82C593.391 26.82 592.611 27.0333 592.011 27.46C591.411 27.8733 591.024 28.3867 590.851 29H597.611C597.544 28.3333 597.224 27.8067 596.651 27.42C596.091 27.02 595.324 26.82 594.351 26.82ZM609.59 30.8V28.68H615.51C616.217 28.68 616.777 28.4933 617.19 28.12C617.603 27.7333 617.81 27.2 617.81 26.52C617.81 25.8133 617.603 25.2733 617.19 24.9C616.777 24.5267 616.217 24.34 615.51 24.34H609.91V35H607.25V22.06H615.27C615.99 22.06 616.663 22.1467 617.29 22.32C617.93 22.4933 618.483 22.76 618.95 23.12C619.43 23.48 619.803 23.94 620.07 24.5C620.337 25.06 620.47 25.7333 620.47 26.52C620.47 27.2933 620.337 27.9533 620.07 28.5C619.803 29.0467 619.43 29.4933 618.95 29.84C618.483 30.1733 617.93 30.42 617.29 30.58C616.663 30.7267 615.99 30.8 615.27 30.8H609.59ZM627.142 35.22C626.155 35.22 625.255 35.0067 624.442 34.58C623.642 34.14 623.002 33.5333 622.522 32.76C622.055 31.9733 621.822 31.0667 621.822 30.04C621.822 28.9867 622.062 28.0733 622.542 27.3C623.022 26.5267 623.668 25.9267 624.482 25.5C625.308 25.06 626.242 24.84 627.282 24.84C628.428 24.84 629.348 25.0733 630.042 25.54C630.748 25.9933 631.262 26.6133 631.582 27.4C631.902 28.1867 632.062 29.0667 632.062 30.04C632.062 30.6267 631.968 31.2267 631.782 31.84C631.595 32.44 631.308 33 630.922 33.52C630.535 34.0267 630.028 34.44 629.402 34.76C628.775 35.0667 628.022 35.22 627.142 35.22ZM627.982 33.22C628.768 33.22 629.448 33.0867 630.022 32.82C630.595 32.5533 631.035 32.18 631.342 31.7C631.648 31.22 631.802 30.6667 631.802 30.04C631.802 29.36 631.642 28.7867 631.322 28.32C631.015 27.84 630.575 27.48 630.002 27.24C629.442 26.9867 628.768 26.86 627.982 26.86C626.875 26.86 626.015 27.1533 625.402 27.74C624.788 28.3133 624.482 29.08 624.482 30.04C624.482 30.68 624.628 31.24 624.922 31.72C625.215 32.1867 625.622 32.5533 626.142 32.82C626.675 33.0867 627.288 33.22 627.982 33.22ZM631.802 25.06H634.402V35H631.982C631.982 35 631.962 34.8733 631.922 34.62C631.895 34.3533 631.868 34.02 631.842 33.62C631.815 33.22 631.802 32.8267 631.802 32.44V25.06ZM639.735 20.7V22.98H636.715V20.7H639.735ZM636.915 25.06H639.515V35H636.915V25.06ZM653.366 25.06L648.206 30.6L644.486 35H641.306L646.686 29.18L650.206 25.06H653.366ZM641.306 25.06H644.486L648.246 29.14L653.646 35H650.466L646.606 30.66L641.306 25.06ZM659.642 35.22C658.655 35.22 657.755 35.0067 656.942 34.58C656.142 34.14 655.502 33.5333 655.022 32.76C654.555 31.9733 654.322 31.0667 654.322 30.04C654.322 28.9867 654.562 28.0733 655.042 27.3C655.522 26.5267 656.168 25.9267 656.982 25.5C657.808 25.06 658.742 24.84 659.782 24.84C660.928 24.84 661.848 25.0733 662.542 25.54C663.248 25.9933 663.762 26.6133 664.082 27.4C664.402 28.1867 664.562 29.0667 664.562 30.04C664.562 30.6267 664.468 31.2267 664.282 31.84C664.095 32.44 663.808 33 663.422 33.52C663.035 34.0267 662.528 34.44 661.902 34.76C661.275 35.0667 660.522 35.22 659.642 35.22ZM660.482 33.22C661.268 33.22 661.948 33.0867 662.522 32.82C663.095 32.5533 663.535 32.18 663.842 31.7C664.148 31.22 664.302 30.6667 664.302 30.04C664.302 29.36 664.142 28.7867 663.822 28.32C663.515 27.84 663.075 27.48 662.502 27.24C661.942 26.9867 661.268 26.86 660.482 26.86C659.375 26.86 658.515 27.1533 657.902 27.74C657.288 28.3133 656.982 29.08 656.982 30.04C656.982 30.68 657.128 31.24 657.422 31.72C657.715 32.1867 658.122 32.5533 658.642 32.82C659.175 33.0867 659.788 33.22 660.482 33.22ZM664.302 25.06H666.902V35H664.482C664.482 35 664.462 34.8733 664.422 34.62C664.395 34.3533 664.368 34.02 664.342 33.62C664.315 33.22 664.302 32.8267 664.302 32.44V25.06ZM662.222 23C661.822 23 661.468 22.94 661.162 22.82C660.855 22.7 660.568 22.56 660.302 22.4C660.035 22.2267 659.768 22.08 659.502 21.96C659.235 21.84 658.942 21.78 658.622 21.78C658.342 21.78 658.115 21.84 657.942 21.96C657.782 22.08 657.655 22.2333 657.562 22.42C657.468 22.6067 657.382 22.7933 657.302 22.98H655.462C655.568 22.4867 655.742 22.0333 655.982 21.62C656.235 21.1933 656.562 20.8533 656.962 20.6C657.362 20.3333 657.835 20.2 658.382 20.2C658.795 20.2 659.155 20.26 659.462 20.38C659.782 20.5 660.075 20.6467 660.342 20.82C660.622 20.98 660.888 21.12 661.142 21.24C661.395 21.36 661.668 21.42 661.962 21.42C662.255 21.42 662.482 21.36 662.642 21.24C662.815 21.1067 662.948 20.9467 663.042 20.76C663.148 20.5733 663.235 20.3933 663.302 20.22H665.162C665.055 20.7 664.875 21.1533 664.622 21.58C664.382 22.0067 664.062 22.3533 663.662 22.62C663.262 22.8733 662.782 23 662.222 23ZM675.115 35.24C673.861 35.24 672.755 35.04 671.795 34.64C670.848 34.24 670.108 33.66 669.575 32.9C669.041 32.1267 668.775 31.18 668.775 30.06C668.775 28.94 669.041 27.9933 669.575 27.22C670.108 26.4333 670.848 25.84 671.795 25.44C672.755 25.04 673.861 24.84 675.115 24.84C676.368 24.84 677.461 25.04 678.395 25.44C679.341 25.84 680.081 26.4333 680.615 27.22C681.148 27.9933 681.415 28.94 681.415 30.06C681.415 31.18 681.148 32.1267 680.615 32.9C680.081 33.66 679.341 34.24 678.395 34.64C677.461 35.04 676.368 35.24 675.115 35.24ZM675.115 33.24C675.808 33.24 676.428 33.12 676.975 32.88C677.535 32.6267 677.975 32.2667 678.295 31.8C678.615 31.32 678.775 30.74 678.775 30.06C678.775 29.38 678.615 28.8 678.295 28.32C677.975 27.8267 677.541 27.4533 676.995 27.2C676.448 26.9467 675.821 26.82 675.115 26.82C674.421 26.82 673.795 26.9467 673.235 27.2C672.675 27.4533 672.228 27.82 671.895 28.3C671.575 28.78 671.415 29.3667 671.415 30.06C671.415 30.74 671.575 31.32 671.895 31.8C672.215 32.2667 672.655 32.6267 673.215 32.88C673.775 33.12 674.408 33.24 675.115 33.24Z" fill="black"/>
<path d="M714.062 22.5345C714.384 21.6639 715.616 21.6639 715.938 22.5345L717.001 25.408C717.102 25.6818 717.318 25.8976 717.592 25.9988L720.465 27.0621C721.336 27.3843 721.336 28.6157 720.465 28.9379L717.592 30.0012C717.318 30.1024 717.102 30.3182 717.001 30.592L715.938 33.4655C715.616 34.3361 714.384 34.3361 714.062 33.4655L712.999 30.592C712.898 30.3182 712.682 30.1024 712.408 30.0012L709.535 28.9379C708.664 28.6157 708.664 27.3843 709.535 27.0621L712.408 25.9988C712.682 25.8976 712.898 25.6818 712.999 25.408L714.062 22.5345Z" fill="black"/>
<path d="M755.94 22.06C757.393 22.06 758.607 22.2333 759.58 22.58C760.553 22.9267 761.327 23.4 761.9 24C762.487 24.5867 762.9 25.2667 763.14 26.04C763.393 26.8133 763.52 27.6267 763.52 28.48C763.52 29.3333 763.38 30.1533 763.1 30.94C762.833 31.7267 762.4 32.4267 761.8 33.04C761.213 33.64 760.433 34.12 759.46 34.48C758.5 34.8267 757.327 35 755.94 35H748.54V22.06H755.94ZM751.2 32.72H755.88C756.84 32.72 757.633 32.6067 758.26 32.38C758.9 32.14 759.407 31.82 759.78 31.42C760.153 31.02 760.42 30.5667 760.58 30.06C760.74 29.5533 760.82 29.0267 760.82 28.48C760.82 27.9333 760.74 27.4133 760.58 26.92C760.42 26.4267 760.153 25.9867 759.78 25.6C759.407 25.2133 758.9 24.9067 758.26 24.68C757.633 24.4533 756.84 24.34 755.88 24.34H751.2V32.72ZM771.638 35.24C770.385 35.24 769.278 35.04 768.318 34.64C767.371 34.24 766.631 33.66 766.098 32.9C765.565 32.1267 765.298 31.18 765.298 30.06C765.298 28.94 765.565 27.9933 766.098 27.22C766.631 26.4333 767.371 25.84 768.318 25.44C769.278 25.04 770.385 24.84 771.638 24.84C772.891 24.84 773.985 25.04 774.918 25.44C775.865 25.84 776.605 26.4333 777.138 27.22C777.671 27.9933 777.938 28.94 777.938 30.06C777.938 31.18 777.671 32.1267 777.138 32.9C776.605 33.66 775.865 34.24 774.918 34.64C773.985 35.04 772.891 35.24 771.638 35.24ZM771.638 33.24C772.331 33.24 772.951 33.12 773.498 32.88C774.058 32.6267 774.498 32.2667 774.818 31.8C775.138 31.32 775.298 30.74 775.298 30.06C775.298 29.38 775.138 28.8 774.818 28.32C774.498 27.8267 774.065 27.4533 773.518 27.2C772.971 26.9467 772.345 26.82 771.638 26.82C770.945 26.82 770.318 26.9467 769.758 27.2C769.198 27.4533 768.751 27.82 768.418 28.3C768.098 28.78 767.938 29.3667 767.938 30.06C767.938 30.74 768.098 31.32 768.418 31.8C768.738 32.2667 769.178 32.6267 769.738 32.88C770.298 33.12 770.931 33.24 771.638 33.24ZM791.66 31.08C791.593 31.9467 791.313 32.6933 790.82 33.32C790.34 33.9467 789.673 34.4267 788.82 34.76C787.967 35.08 786.953 35.24 785.78 35.24C784.553 35.24 783.453 35.0467 782.48 34.66C781.52 34.26 780.76 33.68 780.2 32.92C779.653 32.1467 779.38 31.1933 779.38 30.06C779.38 28.9267 779.653 27.9733 780.2 27.2C780.76 26.4267 781.52 25.84 782.48 25.44C783.453 25.04 784.553 24.84 785.78 24.84C786.953 24.84 787.96 25.0067 788.8 25.34C789.64 25.66 790.3 26.1267 790.78 26.74C791.273 27.3533 791.56 28.0933 791.64 28.96H789.26C789.033 28.2933 788.613 27.7733 788 27.4C787.387 27.0267 786.647 26.84 785.78 26.84C785.087 26.84 784.453 26.96 783.88 27.2C783.32 27.44 782.867 27.8 782.52 28.28C782.187 28.7467 782.02 29.34 782.02 30.06C782.02 30.7667 782.187 31.36 782.52 31.84C782.853 32.3067 783.307 32.66 783.88 32.9C784.453 33.1267 785.087 33.24 785.78 33.24C786.713 33.24 787.473 33.0533 788.06 32.68C788.66 32.3067 789.067 31.7733 789.28 31.08H791.66ZM802.631 31.7H805.151C805.044 32.38 804.758 32.9867 804.291 33.52C803.838 34.0533 803.218 34.4733 802.431 34.78C801.644 35.0867 800.684 35.24 799.551 35.24C798.284 35.24 797.164 35.04 796.191 34.64C795.218 34.2267 794.458 33.6333 793.911 32.86C793.364 32.0867 793.091 31.1533 793.091 30.06C793.091 28.9667 793.358 28.0333 793.891 27.26C794.424 26.4733 795.164 25.8733 796.111 25.46C797.071 25.0467 798.191 24.84 799.471 24.84C800.778 24.84 801.864 25.0467 802.731 25.46C803.598 25.8733 804.238 26.5 804.651 27.34C805.078 28.1667 805.258 29.2267 805.191 30.52H795.711C795.778 31.0267 795.964 31.4867 796.271 31.9C796.591 32.3133 797.018 32.64 797.551 32.88C798.098 33.12 798.744 33.24 799.491 33.24C800.318 33.24 801.004 33.1 801.551 32.82C802.111 32.5267 802.471 32.1533 802.631 31.7ZM799.351 26.82C798.391 26.82 797.611 27.0333 797.011 27.46C796.411 27.8733 796.024 28.3867 795.851 29H802.611C802.544 28.3333 802.224 27.8067 801.651 27.42C801.091 27.02 800.324 26.82 799.351 26.82ZM814.59 30.8V28.68H820.51C821.217 28.68 821.777 28.4933 822.19 28.12C822.603 27.7333 822.81 27.2 822.81 26.52C822.81 25.8133 822.603 25.2733 822.19 24.9C821.777 24.5267 821.217 24.34 820.51 24.34H814.91V35H812.25V22.06H820.27C820.99 22.06 821.663 22.1467 822.29 22.32C822.93 22.4933 823.483 22.76 823.95 23.12C824.43 23.48 824.803 23.94 825.07 24.5C825.337 25.06 825.47 25.7333 825.47 26.52C825.47 27.2933 825.337 27.9533 825.07 28.5C824.803 29.0467 824.43 29.4933 823.95 29.84C823.483 30.1733 822.93 30.42 822.29 30.58C821.663 30.7267 820.99 30.8 820.27 30.8H814.59ZM832.142 35.22C831.155 35.22 830.255 35.0067 829.442 34.58C828.642 34.14 828.002 33.5333 827.522 32.76C827.055 31.9733 826.822 31.0667 826.822 30.04C826.822 28.9867 827.062 28.0733 827.542 27.3C828.022 26.5267 828.668 25.9267 829.482 25.5C830.308 25.06 831.242 24.84 832.282 24.84C833.428 24.84 834.348 25.0733 835.042 25.54C835.748 25.9933 836.262 26.6133 836.582 27.4C836.902 28.1867 837.062 29.0667 837.062 30.04C837.062 30.6267 836.968 31.2267 836.782 31.84C836.595 32.44 836.308 33 835.922 33.52C835.535 34.0267 835.028 34.44 834.402 34.76C833.775 35.0667 833.022 35.22 832.142 35.22ZM832.982 33.22C833.768 33.22 834.448 33.0867 835.022 32.82C835.595 32.5533 836.035 32.18 836.342 31.7C836.648 31.22 836.802 30.6667 836.802 30.04C836.802 29.36 836.642 28.7867 836.322 28.32C836.015 27.84 835.575 27.48 835.002 27.24C834.442 26.9867 833.768 26.86 832.982 26.86C831.875 26.86 831.015 27.1533 830.402 27.74C829.788 28.3133 829.482 29.08 829.482 30.04C829.482 30.68 829.628 31.24 829.922 31.72C830.215 32.1867 830.622 32.5533 831.142 32.82C831.675 33.0867 832.288 33.22 832.982 33.22ZM836.802 25.06H839.402V35H836.982C836.982 35 836.962 34.8733 836.922 34.62C836.895 34.3533 836.868 34.02 836.842 33.62C836.815 33.22 836.802 32.8267 836.802 32.44V25.06ZM844.735 20.7V22.98H841.715V20.7H844.735ZM841.915 25.06H844.515V35H841.915V25.06ZM858.366 25.06L853.206 30.6L849.486 35H846.306L851.686 29.18L855.206 25.06H858.366ZM846.306 25.06H849.486L853.246 29.14L858.646 35H855.466L851.606 30.66L846.306 25.06ZM864.642 35.22C863.655 35.22 862.755 35.0067 861.942 34.58C861.142 34.14 860.502 33.5333 860.022 32.76C859.555 31.9733 859.322 31.0667 859.322 30.04C859.322 28.9867 859.562 28.0733 860.042 27.3C860.522 26.5267 861.168 25.9267 861.982 25.5C862.808 25.06 863.742 24.84 864.782 24.84C865.928 24.84 866.848 25.0733 867.542 25.54C868.248 25.9933 868.762 26.6133 869.082 27.4C869.402 28.1867 869.562 29.0667 869.562 30.04C869.562 30.6267 869.468 31.2267 869.282 31.84C869.095 32.44 868.808 33 868.422 33.52C868.035 34.0267 867.528 34.44 866.902 34.76C866.275 35.0667 865.522 35.22 864.642 35.22ZM865.482 33.22C866.268 33.22 866.948 33.0867 867.522 32.82C868.095 32.5533 868.535 32.18 868.842 31.7C869.148 31.22 869.302 30.6667 869.302 30.04C869.302 29.36 869.142 28.7867 868.822 28.32C868.515 27.84 868.075 27.48 867.502 27.24C866.942 26.9867 866.268 26.86 865.482 26.86C864.375 26.86 863.515 27.1533 862.902 27.74C862.288 28.3133 861.982 29.08 861.982 30.04C861.982 30.68 862.128 31.24 862.422 31.72C862.715 32.1867 863.122 32.5533 863.642 32.82C864.175 33.0867 864.788 33.22 865.482 33.22ZM869.302 25.06H871.902V35H869.482C869.482 35 869.462 34.8733 869.422 34.62C869.395 34.3533 869.368 34.02 869.342 33.62C869.315 33.22 869.302 32.8267 869.302 32.44V25.06ZM867.222 23C866.822 23 866.468 22.94 866.162 22.82C865.855 22.7 865.568 22.56 865.302 22.4C865.035 22.2267 864.768 22.08 864.502 21.96C864.235 21.84 863.942 21.78 863.622 21.78C863.342 21.78 863.115 21.84 862.942 21.96C862.782 22.08 862.655 22.2333 862.562 22.42C862.468 22.6067 862.382 22.7933 862.302 22.98H860.462C860.568 22.4867 860.742 22.0333 860.982 21.62C861.235 21.1933 861.562 20.8533 861.962 20.6C862.362 20.3333 862.835 20.2 863.382 20.2C863.795 20.2 864.155 20.26 864.462 20.38C864.782 20.5 865.075 20.6467 865.342 20.82C865.622 20.98 865.888 21.12 866.142 21.24C866.395 21.36 866.668 21.42 866.962 21.42C867.255 21.42 867.482 21.36 867.642 21.24C867.815 21.1067 867.948 20.9467 868.042 20.76C868.148 20.5733 868.235 20.3933 868.302 20.22H870.162C870.055 20.7 869.875 21.1533 869.622 21.58C869.382 22.0067 869.062 22.3533 868.662 22.62C868.262 22.8733 867.782 23 867.222 23ZM880.115 35.24C878.861 35.24 877.755 35.04 876.795 34.64C875.848 34.24 875.108 33.66 874.575 32.9C874.041 32.1267 873.775 31.18 873.775 30.06C873.775 28.94 874.041 27.9933 874.575 27.22C875.108 26.4333 875.848 25.84 876.795 25.44C877.755 25.04 878.861 24.84 880.115 24.84C881.368 24.84 882.461 25.04 883.395 25.44C884.341 25.84 885.081 26.4333 885.615 27.22C886.148 27.9933 886.415 28.94 886.415 30.06C886.415 31.18 886.148 32.1267 885.615 32.9C885.081 33.66 884.341 34.24 883.395 34.64C882.461 35.04 881.368 35.24 880.115 35.24ZM880.115 33.24C880.808 33.24 881.428 33.12 881.975 32.88C882.535 32.6267 882.975 32.2667 883.295 31.8C883.615 31.32 883.775 30.74 883.775 30.06C883.775 29.38 883.615 28.8 883.295 28.32C882.975 27.8267 882.541 27.4533 881.995 27.2C881.448 26.9467 880.821 26.82 880.115 26.82C879.421 26.82 878.795 26.9467 878.235 27.2C877.675 27.4533 877.228 27.82 876.895 28.3C876.575 28.78 876.415 29.3667 876.415 30.06C876.415 30.74 876.575 31.32 876.895 31.8C877.215 32.2667 877.655 32.6267 878.215 32.88C878.775 33.12 879.408 33.24 880.115 33.24Z" fill="black"/>
<path d="M919.062 22.5345C919.384 21.6639 920.616 21.6639 920.938 22.5345L922.001 25.408C922.102 25.6818 922.318 25.8976 922.592 25.9988L925.465 27.0621C926.336 27.3843 926.336 28.6157 925.465 28.9379L922.592 30.0012C922.318 30.1024 922.102 30.3182 922.001 30.592L920.938 33.4655C920.616 34.3361 919.384 34.3361 919.062 33.4655L917.999 30.592C917.898 30.3182 917.682 30.1024 917.408 30.0012L914.535 28.9379C913.664 28.6157 913.664 27.3843 914.535 27.0621L917.408 25.9988C917.682 25.8976 917.898 25.6818 917.999 25.408L919.062 22.5345Z" fill="black"/>
<path d="M960.94 22.06C962.393 22.06 963.607 22.2333 964.58 22.58C965.553 22.9267 966.327 23.4 966.9 24C967.487 24.5867 967.9 25.2667 968.14 26.04C968.393 26.8133 968.52 27.6267 968.52 28.48C968.52 29.3333 968.38 30.1533 968.1 30.94C967.833 31.7267 967.4 32.4267 966.8 33.04C966.213 33.64 965.433 34.12 964.46 34.48C963.5 34.8267 962.327 35 960.94 35H953.54V22.06H960.94ZM956.2 32.72H960.88C961.84 32.72 962.633 32.6067 963.26 32.38C963.9 32.14 964.407 31.82 964.78 31.42C965.153 31.02 965.42 30.5667 965.58 30.06C965.74 29.5533 965.82 29.0267 965.82 28.48C965.82 27.9333 965.74 27.4133 965.58 26.92C965.42 26.4267 965.153 25.9867 964.78 25.6C964.407 25.2133 963.9 24.9067 963.26 24.68C962.633 24.4533 961.84 24.34 960.88 24.34H956.2V32.72ZM976.638 35.24C975.385 35.24 974.278 35.04 973.318 34.64C972.371 34.24 971.631 33.66 971.098 32.9C970.565 32.1267 970.298 31.18 970.298 30.06C970.298 28.94 970.565 27.9933 971.098 27.22C971.631 26.4333 972.371 25.84 973.318 25.44C974.278 25.04 975.385 24.84 976.638 24.84C977.891 24.84 978.985 25.04 979.918 25.44C980.865 25.84 981.605 26.4333 982.138 27.22C982.671 27.9933 982.938 28.94 982.938 30.06C982.938 31.18 982.671 32.1267 982.138 32.9C981.605 33.66 980.865 34.24 979.918 34.64C978.985 35.04 977.891 35.24 976.638 35.24ZM976.638 33.24C977.331 33.24 977.951 33.12 978.498 32.88C979.058 32.6267 979.498 32.2667 979.818 31.8C980.138 31.32 980.298 30.74 980.298 30.06C980.298 29.38 980.138 28.8 979.818 28.32C979.498 27.8267 979.065 27.4533 978.518 27.2C977.971 26.9467 977.345 26.82 976.638 26.82C975.945 26.82 975.318 26.9467 974.758 27.2C974.198 27.4533 973.751 27.82 973.418 28.3C973.098 28.78 972.938 29.3667 972.938 30.06C972.938 30.74 973.098 31.32 973.418 31.8C973.738 32.2667 974.178 32.6267 974.738 32.88C975.298 33.12 975.931 33.24 976.638 33.24ZM996.66 31.08C996.593 31.9467 996.313 32.6933 995.82 33.32C995.34 33.9467 994.673 34.4267 993.82 34.76C992.967 35.08 991.953 35.24 990.78 35.24C989.553 35.24 988.453 35.0467 987.48 34.66C986.52 34.26 985.76 33.68 985.2 32.92C984.653 32.1467 984.38 31.1933 984.38 30.06C984.38 28.9267 984.653 27.9733 985.2 27.2C985.76 26.4267 986.52 25.84 987.48 25.44C988.453 25.04 989.553 24.84 990.78 24.84C991.953 24.84 992.96 25.0067 993.8 25.34C994.64 25.66 995.3 26.1267 995.78 26.74C996.273 27.3533 996.56 28.0933 996.64 28.96H994.26C994.033 28.2933 993.613 27.7733 993 27.4C992.387 27.0267 991.647 26.84 990.78 26.84C990.087 26.84 989.453 26.96 988.88 27.2C988.32 27.44 987.867 27.8 987.52 28.28C987.187 28.7467 987.02 29.34 987.02 30.06C987.02 30.7667 987.187 31.36 987.52 31.84C987.853 32.3067 988.307 32.66 988.88 32.9C989.453 33.1267 990.087 33.24 990.78 33.24C991.713 33.24 992.473 33.0533 993.06 32.68C993.66 32.3067 994.067 31.7733 994.28 31.08H996.66ZM1007.63 31.7H1010.15C1010.04 32.38 1009.76 32.9867 1009.29 33.52C1008.84 34.0533 1008.22 34.4733 1007.43 34.78C1006.64 35.0867 1005.68 35.24 1004.55 35.24C1003.28 35.24 1002.16 35.04 1001.19 34.64C1000.22 34.2267 999.458 33.6333 998.911 32.86C998.364 32.0867 998.091 31.1533 998.091 30.06C998.091 28.9667 998.358 28.0333 998.891 27.26C999.424 26.4733 1000.16 25.8733 1001.11 25.46C1002.07 25.0467 1003.19 24.84 1004.47 24.84C1005.78 24.84 1006.86 25.0467 1007.73 25.46C1008.6 25.8733 1009.24 26.5 1009.65 27.34C1010.08 28.1667 1010.26 29.2267 1010.19 30.52H1000.71C1000.78 31.0267 1000.96 31.4867 1001.27 31.9C1001.59 32.3133 1002.02 32.64 1002.55 32.88C1003.1 33.12 1003.74 33.24 1004.49 33.24C1005.32 33.24 1006 33.1 1006.55 32.82C1007.11 32.5267 1007.47 32.1533 1007.63 31.7ZM1004.35 26.82C1003.39 26.82 1002.61 27.0333 1002.01 27.46C1001.41 27.8733 1001.02 28.3867 1000.85 29H1007.61C1007.54 28.3333 1007.22 27.8067 1006.65 27.42C1006.09 27.02 1005.32 26.82 1004.35 26.82ZM1019.59 30.8V28.68H1025.51C1026.22 28.68 1026.78 28.4933 1027.19 28.12C1027.6 27.7333 1027.81 27.2 1027.81 26.52C1027.81 25.8133 1027.6 25.2733 1027.19 24.9C1026.78 24.5267 1026.22 24.34 1025.51 24.34H1019.91V35H1017.25V22.06H1025.27C1025.99 22.06 1026.66 22.1467 1027.29 22.32C1027.93 22.4933 1028.48 22.76 1028.95 23.12C1029.43 23.48 1029.8 23.94 1030.07 24.5C1030.34 25.06 1030.47 25.7333 1030.47 26.52C1030.47 27.2933 1030.34 27.9533 1030.07 28.5C1029.8 29.0467 1029.43 29.4933 1028.95 29.84C1028.48 30.1733 1027.93 30.42 1027.29 30.58C1026.66 30.7267 1025.99 30.8 1025.27 30.8H1019.59ZM1037.14 35.22C1036.15 35.22 1035.25 35.0067 1034.44 34.58C1033.64 34.14 1033 33.5333 1032.52 32.76C1032.05 31.9733 1031.82 31.0667 1031.82 30.04C1031.82 28.9867 1032.06 28.0733 1032.54 27.3C1033.02 26.5267 1033.67 25.9267 1034.48 25.5C1035.31 25.06 1036.24 24.84 1037.28 24.84C1038.43 24.84 1039.35 25.0733 1040.04 25.54C1040.75 25.9933 1041.26 26.6133 1041.58 27.4C1041.9 28.1867 1042.06 29.0667 1042.06 30.04C1042.06 30.6267 1041.97 31.2267 1041.78 31.84C1041.59 32.44 1041.31 33 1040.92 33.52C1040.53 34.0267 1040.03 34.44 1039.4 34.76C1038.77 35.0667 1038.02 35.22 1037.14 35.22ZM1037.98 33.22C1038.77 33.22 1039.45 33.0867 1040.02 32.82C1040.59 32.5533 1041.03 32.18 1041.34 31.7C1041.65 31.22 1041.8 30.6667 1041.8 30.04C1041.8 29.36 1041.64 28.7867 1041.32 28.32C1041.01 27.84 1040.57 27.48 1040 27.24C1039.44 26.9867 1038.77 26.86 1037.98 26.86C1036.87 26.86 1036.01 27.1533 1035.4 27.74C1034.79 28.3133 1034.48 29.08 1034.48 30.04C1034.48 30.68 1034.63 31.24 1034.92 31.72C1035.21 32.1867 1035.62 32.5533 1036.14 32.82C1036.67 33.0867 1037.29 33.22 1037.98 33.22ZM1041.8 25.06H1044.4V35H1041.98C1041.98 35 1041.96 34.8733 1041.92 34.62C1041.89 34.3533 1041.87 34.02 1041.84 33.62C1041.81 33.22 1041.8 32.8267 1041.8 32.44V25.06ZM1049.73 20.7V22.98H1046.71V20.7H1049.73ZM1046.91 25.06H1049.51V35H1046.91V25.06ZM1063.37 25.06L1058.21 30.6L1054.49 35H1051.31L1056.69 29.18L1060.21 25.06H1063.37ZM1051.31 25.06H1054.49L1058.25 29.14L1063.65 35H1060.47L1056.61 30.66L1051.31 25.06ZM1069.64 35.22C1068.65 35.22 1067.75 35.0067 1066.94 34.58C1066.14 34.14 1065.5 33.5333 1065.02 32.76C1064.55 31.9733 1064.32 31.0667 1064.32 30.04C1064.32 28.9867 1064.56 28.0733 1065.04 27.3C1065.52 26.5267 1066.17 25.9267 1066.98 25.5C1067.81 25.06 1068.74 24.84 1069.78 24.84C1070.93 24.84 1071.85 25.0733 1072.54 25.54C1073.25 25.9933 1073.76 26.6133 1074.08 27.4C1074.4 28.1867 1074.56 29.0667 1074.56 30.04C1074.56 30.6267 1074.47 31.2267 1074.28 31.84C1074.09 32.44 1073.81 33 1073.42 33.52C1073.03 34.0267 1072.53 34.44 1071.9 34.76C1071.27 35.0667 1070.52 35.22 1069.64 35.22ZM1070.48 33.22C1071.27 33.22 1071.95 33.0867 1072.52 32.82C1073.09 32.5533 1073.53 32.18 1073.84 31.7C1074.15 31.22 1074.3 30.6667 1074.3 30.04C1074.3 29.36 1074.14 28.7867 1073.82 28.32C1073.51 27.84 1073.07 27.48 1072.5 27.24C1071.94 26.9867 1071.27 26.86 1070.48 26.86C1069.37 26.86 1068.51 27.1533 1067.9 27.74C1067.29 28.3133 1066.98 29.08 1066.98 30.04C1066.98 30.68 1067.13 31.24 1067.42 31.72C1067.71 32.1867 1068.12 32.5533 1068.64 32.82C1069.17 33.0867 1069.79 33.22 1070.48 33.22ZM1074.3 25.06H1076.9V35H1074.48C1074.48 35 1074.46 34.8733 1074.42 34.62C1074.39 34.3533 1074.37 34.02 1074.34 33.62C1074.31 33.22 1074.3 32.8267 1074.3 32.44V25.06ZM1072.22 23C1071.82 23 1071.47 22.94 1071.16 22.82C1070.85 22.7 1070.57 22.56 1070.3 22.4C1070.03 22.2267 1069.77 22.08 1069.5 21.96C1069.23 21.84 1068.94 21.78 1068.62 21.78C1068.34 21.78 1068.11 21.84 1067.94 21.96C1067.78 22.08 1067.65 22.2333 1067.56 22.42C1067.47 22.6067 1067.38 22.7933 1067.3 22.98H1065.46C1065.57 22.4867 1065.74 22.0333 1065.98 21.62C1066.23 21.1933 1066.56 20.8533 1066.96 20.6C1067.36 20.3333 1067.83 20.2 1068.38 20.2C1068.79 20.2 1069.15 20.26 1069.46 20.38C1069.78 20.5 1070.07 20.6467 1070.34 20.82C1070.62 20.98 1070.89 21.12 1071.14 21.24C1071.39 21.36 1071.67 21.42 1071.96 21.42C1072.25 21.42 1072.48 21.36 1072.64 21.24C1072.81 21.1067 1072.95 20.9467 1073.04 20.76C1073.15 20.5733 1073.23 20.3933 1073.3 20.22H1075.16C1075.05 20.7 1074.87 21.1533 1074.62 21.58C1074.38 22.0067 1074.06 22.3533 1073.66 22.62C1073.26 22.8733 1072.78 23 1072.22 23ZM1085.11 35.24C1083.86 35.24 1082.75 35.04 1081.79 34.64C1080.85 34.24 1080.11 33.66 1079.57 32.9C1079.04 32.1267 1078.77 31.18 1078.77 30.06C1078.77 28.94 1079.04 27.9933 1079.57 27.22C1080.11 26.4333 1080.85 25.84 1081.79 25.44C1082.75 25.04 1083.86 24.84 1085.11 24.84C1086.37 24.84 1087.46 25.04 1088.39 25.44C1089.34 25.84 1090.08 26.4333 1090.61 27.22C1091.15 27.9933 1091.41 28.94 1091.41 30.06C1091.41 31.18 1091.15 32.1267 1090.61 32.9C1090.08 33.66 1089.34 34.24 1088.39 34.64C1087.46 35.04 1086.37 35.24 1085.11 35.24ZM1085.11 33.24C1085.81 33.24 1086.43 33.12 1086.97 32.88C1087.53 32.6267 1087.97 32.2667 1088.29 31.8C1088.61 31.32 1088.77 30.74 1088.77 30.06C1088.77 29.38 1088.61 28.8 1088.29 28.32C1087.97 27.8267 1087.54 27.4533 1086.99 27.2C1086.45 26.9467 1085.82 26.82 1085.11 26.82C1084.42 26.82 1083.79 26.9467 1083.23 27.2C1082.67 27.4533 1082.23 27.82 1081.89 28.3C1081.57 28.78 1081.41 29.3667 1081.41 30.06C1081.41 30.74 1081.57 31.32 1081.89 31.8C1082.21 32.2667 1082.65 32.6267 1083.21 32.88C1083.77 33.12 1084.41 33.24 1085.11 33.24Z" fill="black"/>
<path d="M1124.06 22.5345C1124.38 21.6639 1125.62 21.6639 1125.94 22.5345L1127 25.408C1127.1 25.6818 1127.32 25.8976 1127.59 25.9988L1130.47 27.0621C1131.34 27.3843 1131.34 28.6157 1130.47 28.9379L1127.59 30.0012C1127.32 30.1024 1127.1 30.3182 1127 30.592L1125.94 33.4655C1125.62 34.3361 1124.38 34.3361 1124.06 33.4655L1123 30.592C1122.9 30.3182 1122.68 30.1024 1122.41 30.0012L1119.53 28.9379C1118.66 28.6157 1118.66 27.3843 1119.53 27.0621L1122.41 25.9988C1122.68 25.8976 1122.9 25.6818 1123 25.408L1124.06 22.5345Z" fill="black"/>
<path d="M1165.94 22.06C1167.39 22.06 1168.61 22.2333 1169.58 22.58C1170.55 22.9267 1171.33 23.4 1171.9 24C1172.49 24.5867 1172.9 25.2667 1173.14 26.04C1173.39 26.8133 1173.52 27.6267 1173.52 28.48C1173.52 29.3333 1173.38 30.1533 1173.1 30.94C1172.83 31.7267 1172.4 32.4267 1171.8 33.04C1171.21 33.64 1170.43 34.12 1169.46 34.48C1168.5 34.8267 1167.33 35 1165.94 35H1158.54V22.06H1165.94ZM1161.2 32.72H1165.88C1166.84 32.72 1167.63 32.6067 1168.26 32.38C1168.9 32.14 1169.41 31.82 1169.78 31.42C1170.15 31.02 1170.42 30.5667 1170.58 30.06C1170.74 29.5533 1170.82 29.0267 1170.82 28.48C1170.82 27.9333 1170.74 27.4133 1170.58 26.92C1170.42 26.4267 1170.15 25.9867 1169.78 25.6C1169.41 25.2133 1168.9 24.9067 1168.26 24.68C1167.63 24.4533 1166.84 24.34 1165.88 24.34H1161.2V32.72ZM1181.64 35.24C1180.38 35.24 1179.28 35.04 1178.32 34.64C1177.37 34.24 1176.63 33.66 1176.1 32.9C1175.56 32.1267 1175.3 31.18 1175.3 30.06C1175.3 28.94 1175.56 27.9933 1176.1 27.22C1176.63 26.4333 1177.37 25.84 1178.32 25.44C1179.28 25.04 1180.38 24.84 1181.64 24.84C1182.89 24.84 1183.98 25.04 1184.92 25.44C1185.86 25.84 1186.6 26.4333 1187.14 27.22C1187.67 27.9933 1187.94 28.94 1187.94 30.06C1187.94 31.18 1187.67 32.1267 1187.14 32.9C1186.6 33.66 1185.86 34.24 1184.92 34.64C1183.98 35.04 1182.89 35.24 1181.64 35.24ZM1181.64 33.24C1182.33 33.24 1182.95 33.12 1183.5 32.88C1184.06 32.6267 1184.5 32.2667 1184.82 31.8C1185.14 31.32 1185.3 30.74 1185.3 30.06C1185.3 29.38 1185.14 28.8 1184.82 28.32C1184.5 27.8267 1184.06 27.4533 1183.52 27.2C1182.97 26.9467 1182.34 26.82 1181.64 26.82C1180.94 26.82 1180.32 26.9467 1179.76 27.2C1179.2 27.4533 1178.75 27.82 1178.42 28.3C1178.1 28.78 1177.94 29.3667 1177.94 30.06C1177.94 30.74 1178.1 31.32 1178.42 31.8C1178.74 32.2667 1179.18 32.6267 1179.74 32.88C1180.3 33.12 1180.93 33.24 1181.64 33.24ZM1201.66 31.08C1201.59 31.9467 1201.31 32.6933 1200.82 33.32C1200.34 33.9467 1199.67 34.4267 1198.82 34.76C1197.97 35.08 1196.95 35.24 1195.78 35.24C1194.55 35.24 1193.45 35.0467 1192.48 34.66C1191.52 34.26 1190.76 33.68 1190.2 32.92C1189.65 32.1467 1189.38 31.1933 1189.38 30.06C1189.38 28.9267 1189.65 27.9733 1190.2 27.2C1190.76 26.4267 1191.52 25.84 1192.48 25.44C1193.45 25.04 1194.55 24.84 1195.78 24.84C1196.95 24.84 1197.96 25.0067 1198.8 25.34C1199.64 25.66 1200.3 26.1267 1200.78 26.74C1201.27 27.3533 1201.56 28.0933 1201.64 28.96H1199.26C1199.03 28.2933 1198.61 27.7733 1198 27.4C1197.39 27.0267 1196.65 26.84 1195.78 26.84C1195.09 26.84 1194.45 26.96 1193.88 27.2C1193.32 27.44 1192.87 27.8 1192.52 28.28C1192.19 28.7467 1192.02 29.34 1192.02 30.06C1192.02 30.7667 1192.19 31.36 1192.52 31.84C1192.85 32.3067 1193.31 32.66 1193.88 32.9C1194.45 33.1267 1195.09 33.24 1195.78 33.24C1196.71 33.24 1197.47 33.0533 1198.06 32.68C1198.66 32.3067 1199.07 31.7733 1199.28 31.08H1201.66ZM1212.63 31.7H1215.15C1215.04 32.38 1214.76 32.9867 1214.29 33.52C1213.84 34.0533 1213.22 34.4733 1212.43 34.78C1211.64 35.0867 1210.68 35.24 1209.55 35.24C1208.28 35.24 1207.16 35.04 1206.19 34.64C1205.22 34.2267 1204.46 33.6333 1203.91 32.86C1203.36 32.0867 1203.09 31.1533 1203.09 30.06C1203.09 28.9667 1203.36 28.0333 1203.89 27.26C1204.42 26.4733 1205.16 25.8733 1206.11 25.46C1207.07 25.0467 1208.19 24.84 1209.47 24.84C1210.78 24.84 1211.86 25.0467 1212.73 25.46C1213.6 25.8733 1214.24 26.5 1214.65 27.34C1215.08 28.1667 1215.26 29.2267 1215.19 30.52H1205.71C1205.78 31.0267 1205.96 31.4867 1206.27 31.9C1206.59 32.3133 1207.02 32.64 1207.55 32.88C1208.1 33.12 1208.74 33.24 1209.49 33.24C1210.32 33.24 1211 33.1 1211.55 32.82C1212.11 32.5267 1212.47 32.1533 1212.63 31.7ZM1209.35 26.82C1208.39 26.82 1207.61 27.0333 1207.01 27.46C1206.41 27.8733 1206.02 28.3867 1205.85 29H1212.61C1212.54 28.3333 1212.22 27.8067 1211.65 27.42C1211.09 27.02 1210.32 26.82 1209.35 26.82ZM1224.59 30.8V28.68H1230.51C1231.22 28.68 1231.78 28.4933 1232.19 28.12C1232.6 27.7333 1232.81 27.2 1232.81 26.52C1232.81 25.8133 1232.6 25.2733 1232.19 24.9C1231.78 24.5267 1231.22 24.34 1230.51 24.34H1224.91V35H1222.25V22.06H1230.27C1230.99 22.06 1231.66 22.1467 1232.29 22.32C1232.93 22.4933 1233.48 22.76 1233.95 23.12C1234.43 23.48 1234.8 23.94 1235.07 24.5C1235.34 25.06 1235.47 25.7333 1235.47 26.52C1235.47 27.2933 1235.34 27.9533 1235.07 28.5C1234.8 29.0467 1234.43 29.4933 1233.95 29.84C1233.48 30.1733 1232.93 30.42 1232.29 30.58C1231.66 30.7267 1230.99 30.8 1230.27 30.8H1224.59ZM1242.14 35.22C1241.15 35.22 1240.25 35.0067 1239.44 34.58C1238.64 34.14 1238 33.5333 1237.52 32.76C1237.05 31.9733 1236.82 31.0667 1236.82 30.04C1236.82 28.9867 1237.06 28.0733 1237.54 27.3C1238.02 26.5267 1238.67 25.9267 1239.48 25.5C1240.31 25.06 1241.24 24.84 1242.28 24.84C1243.43 24.84 1244.35 25.0733 1245.04 25.54C1245.75 25.9933 1246.26 26.6133 1246.58 27.4C1246.9 28.1867 1247.06 29.0667 1247.06 30.04C1247.06 30.6267 1246.97 31.2267 1246.78 31.84C1246.59 32.44 1246.31 33 1245.92 33.52C1245.53 34.0267 1245.03 34.44 1244.4 34.76C1243.77 35.0667 1243.02 35.22 1242.14 35.22ZM1242.98 33.22C1243.77 33.22 1244.45 33.0867 1245.02 32.82C1245.59 32.5533 1246.03 32.18 1246.34 31.7C1246.65 31.22 1246.8 30.6667 1246.8 30.04C1246.8 29.36 1246.64 28.7867 1246.32 28.32C1246.01 27.84 1245.57 27.48 1245 27.24C1244.44 26.9867 1243.77 26.86 1242.98 26.86C1241.87 26.86 1241.01 27.1533 1240.4 27.74C1239.79 28.3133 1239.48 29.08 1239.48 30.04C1239.48 30.68 1239.63 31.24 1239.92 31.72C1240.21 32.1867 1240.62 32.5533 1241.14 32.82C1241.67 33.0867 1242.29 33.22 1242.98 33.22ZM1246.8 25.06H1249.4V35H1246.98C1246.98 35 1246.96 34.8733 1246.92 34.62C1246.89 34.3533 1246.87 34.02 1246.84 33.62C1246.81 33.22 1246.8 32.8267 1246.8 32.44V25.06ZM1254.73 20.7V22.98H1251.71V20.7H1254.73ZM1251.91 25.06H1254.51V35H1251.91V25.06ZM1268.37 25.06L1263.21 30.6L1259.49 35H1256.31L1261.69 29.18L1265.21 25.06H1268.37ZM1256.31 25.06H1259.49L1263.25 29.14L1268.65 35H1265.47L1261.61 30.66L1256.31 25.06ZM1274.64 35.22C1273.65 35.22 1272.75 35.0067 1271.94 34.58C1271.14 34.14 1270.5 33.5333 1270.02 32.76C1269.55 31.9733 1269.32 31.0667 1269.32 30.04C1269.32 28.9867 1269.56 28.0733 1270.04 27.3C1270.52 26.5267 1271.17 25.9267 1271.98 25.5C1272.81 25.06 1273.74 24.84 1274.78 24.84C1275.93 24.84 1276.85 25.0733 1277.54 25.54C1278.25 25.9933 1278.76 26.6133 1279.08 27.4C1279.4 28.1867 1279.56 29.0667 1279.56 30.04C1279.56 30.6267 1279.47 31.2267 1279.28 31.84C1279.09 32.44 1278.81 33 1278.42 33.52C1278.03 34.0267 1277.53 34.44 1276.9 34.76C1276.27 35.0667 1275.52 35.22 1274.64 35.22ZM1275.48 33.22C1276.27 33.22 1276.95 33.0867 1277.52 32.82C1278.09 32.5533 1278.53 32.18 1278.84 31.7C1279.15 31.22 1279.3 30.6667 1279.3 30.04C1279.3 29.36 1279.14 28.7867 1278.82 28.32C1278.51 27.84 1278.07 27.48 1277.5 27.24C1276.94 26.9867 1276.27 26.86 1275.48 26.86C1274.37 26.86 1273.51 27.1533 1272.9 27.74C1272.29 28.3133 1271.98 29.08 1271.98 30.04C1271.98 30.68 1272.13 31.24 1272.42 31.72C1272.71 32.1867 1273.12 32.5533 1273.64 32.82C1274.17 33.0867 1274.79 33.22 1275.48 33.22ZM1279.3 25.06H1281.9V35H1279.48C1279.48 35 1279.46 34.8733 1279.42 34.62C1279.39 34.3533 1279.37 34.02 1279.34 33.62C1279.31 33.22 1279.3 32.8267 1279.3 32.44V25.06ZM1277.22 23C1276.82 23 1276.47 22.94 1276.16 22.82C1275.85 22.7 1275.57 22.56 1275.3 22.4C1275.03 22.2267 1274.77 22.08 1274.5 21.96C1274.23 21.84 1273.94 21.78 1273.62 21.78C1273.34 21.78 1273.11 21.84 1272.94 21.96C1272.78 22.08 1272.65 22.2333 1272.56 22.42C1272.47 22.6067 1272.38 22.7933 1272.3 22.98H1270.46C1270.57 22.4867 1270.74 22.0333 1270.98 21.62C1271.23 21.1933 1271.56 20.8533 1271.96 20.6C1272.36 20.3333 1272.83 20.2 1273.38 20.2C1273.79 20.2 1274.15 20.26 1274.46 20.38C1274.78 20.5 1275.07 20.6467 1275.34 20.82C1275.62 20.98 1275.89 21.12 1276.14 21.24C1276.39 21.36 1276.67 21.42 1276.96 21.42C1277.25 21.42 1277.48 21.36 1277.64 21.24C1277.81 21.1067 1277.95 20.9467 1278.04 20.76C1278.15 20.5733 1278.23 20.3933 1278.3 20.22H1280.16C1280.05 20.7 1279.87 21.1533 1279.62 21.58C1279.38 22.0067 1279.06 22.3533 1278.66 22.62C1278.26 22.8733 1277.78 23 1277.22 23ZM1290.11 35.24C1288.86 35.24 1287.75 35.04 1286.79 34.64C1285.85 34.24 1285.11 33.66 1284.57 32.9C1284.04 32.1267 1283.77 31.18 1283.77 30.06C1283.77 28.94 1284.04 27.9933 1284.57 27.22C1285.11 26.4333 1285.85 25.84 1286.79 25.44C1287.75 25.04 1288.86 24.84 1290.11 24.84C1291.37 24.84 1292.46 25.04 1293.39 25.44C1294.34 25.84 1295.08 26.4333 1295.61 27.22C1296.15 27.9933 1296.41 28.94 1296.41 30.06C1296.41 31.18 1296.15 32.1267 1295.61 32.9C1295.08 33.66 1294.34 34.24 1293.39 34.64C1292.46 35.04 1291.37 35.24 1290.11 35.24ZM1290.11 33.24C1290.81 33.24 1291.43 33.12 1291.97 32.88C1292.53 32.6267 1292.97 32.2667 1293.29 31.8C1293.61 31.32 1293.77 30.74 1293.77 30.06C1293.77 29.38 1293.61 28.8 1293.29 28.32C1292.97 27.8267 1292.54 27.4533 1291.99 27.2C1291.45 26.9467 1290.82 26.82 1290.11 26.82C1289.42 26.82 1288.79 26.9467 1288.23 27.2C1287.67 27.4533 1287.23 27.82 1286.89 28.3C1286.57 28.78 1286.41 29.3667 1286.41 30.06C1286.41 30.74 1286.57 31.32 1286.89 31.8C1287.21 32.2667 1287.65 32.6267 1288.21 32.88C1288.77 33.12 1289.41 33.24 1290.11 33.24Z" fill="black"/>
</g>
<defs>
<clipPath id="clip0_3119_1545">
<rect width="1280" height="56" fill="white"/>
</clipPath>
</defs>
</svg>
