<svg width="1280" height="56" viewBox="0 0 1280 56" fill="none" xmlns="http://www.w3.org/2000/svg">
<g clip-path="url(#clip0_3119_578)">
<rect width="3103" height="56" transform="translate(-911.5)" fill="#67E8F9"/>
<path d="M29.5621 22.5345C29.8843 21.6639 31.1157 21.6639 31.4379 22.5345L32.5012 25.408C32.6024 25.6818 32.8182 25.8976 33.092 25.9988L35.9655 27.0621C36.8361 27.3843 36.8361 28.6157 35.9655 28.9379L33.092 30.0012C32.8182 30.1024 32.6024 30.3182 32.5012 30.592L31.4379 33.4655C31.1157 34.3361 29.8843 34.3361 29.5621 33.4655L28.4988 30.592C28.3976 30.3182 28.1818 30.1024 27.908 30.0012L25.0345 28.9379C24.1639 28.6157 24.1639 27.3843 25.0345 27.0621L27.908 25.9988C28.1818 25.8976 28.3976 25.6818 28.4988 25.408L29.5621 22.5345Z" fill="black"/>
<path d="M71.44 22.06C72.8933 22.06 74.1067 22.2333 75.08 22.58C76.0533 22.9267 76.8267 23.4 77.4 24C77.9867 24.5867 78.4 25.2667 78.64 26.04C78.8933 26.8133 79.02 27.6267 79.02 28.48C79.02 29.3333 78.88 30.1533 78.6 30.94C78.3333 31.7267 77.9 32.4267 77.3 33.04C76.7133 33.64 75.9333 34.12 74.96 34.48C74 34.8267 72.8267 35 71.44 35H64.04V22.06H71.44ZM66.7 32.72H71.38C72.34 32.72 73.1333 32.6067 73.76 32.38C74.4 32.14 74.9067 31.82 75.28 31.42C75.6533 31.02 75.92 30.5667 76.08 30.06C76.24 29.5533 76.32 29.0267 76.32 28.48C76.32 27.9333 76.24 27.4133 76.08 26.92C75.92 26.4267 75.6533 25.9867 75.28 25.6C74.9067 25.2133 74.4 24.9067 73.76 24.68C73.1333 24.4533 72.34 24.34 71.38 24.34H66.7V32.72ZM87.1381 35.24C85.8848 35.24 84.7781 35.04 83.8181 34.64C82.8715 34.24 82.1315 33.66 81.5981 32.9C81.0648 32.1267 80.7981 31.18 80.7981 30.06C80.7981 28.94 81.0648 27.9933 81.5981 27.22C82.1315 26.4333 82.8715 25.84 83.8181 25.44C84.7781 25.04 85.8848 24.84 87.1381 24.84C88.3915 24.84 89.4848 25.04 90.4181 25.44C91.3648 25.84 92.1048 26.4333 92.6381 27.22C93.1715 27.9933 93.4381 28.94 93.4381 30.06C93.4381 31.18 93.1715 32.1267 92.6381 32.9C92.1048 33.66 91.3648 34.24 90.4181 34.64C89.4848 35.04 88.3915 35.24 87.1381 35.24ZM87.1381 33.24C87.8315 33.24 88.4515 33.12 88.9981 32.88C89.5581 32.6267 89.9981 32.2667 90.3181 31.8C90.6381 31.32 90.7981 30.74 90.7981 30.06C90.7981 29.38 90.6381 28.8 90.3181 28.32C89.9981 27.8267 89.5648 27.4533 89.0181 27.2C88.4715 26.9467 87.8448 26.82 87.1381 26.82C86.4448 26.82 85.8181 26.9467 85.2581 27.2C84.6981 27.4533 84.2515 27.82 83.9181 28.3C83.5981 28.78 83.4381 29.3667 83.4381 30.06C83.4381 30.74 83.5981 31.32 83.9181 31.8C84.2381 32.2667 84.6781 32.6267 85.2381 32.88C85.7981 33.12 86.4315 33.24 87.1381 33.24ZM107.16 31.08C107.093 31.9467 106.813 32.6933 106.32 33.32C105.84 33.9467 105.173 34.4267 104.32 34.76C103.467 35.08 102.453 35.24 101.28 35.24C100.053 35.24 98.9535 35.0467 97.9802 34.66C97.0202 34.26 96.2602 33.68 95.7002 32.92C95.1535 32.1467 94.8802 31.1933 94.8802 30.06C94.8802 28.9267 95.1535 27.9733 95.7002 27.2C96.2602 26.4267 97.0202 25.84 97.9802 25.44C98.9535 25.04 100.053 24.84 101.28 24.84C102.453 24.84 103.46 25.0067 104.3 25.34C105.14 25.66 105.8 26.1267 106.28 26.74C106.773 27.3533 107.06 28.0933 107.14 28.96H104.76C104.533 28.2933 104.113 27.7733 103.5 27.4C102.887 27.0267 102.147 26.84 101.28 26.84C100.587 26.84 99.9535 26.96 99.3802 27.2C98.8202 27.44 98.3668 27.8 98.0202 28.28C97.6868 28.7467 97.5202 29.34 97.5202 30.06C97.5202 30.7667 97.6868 31.36 98.0202 31.84C98.3535 32.3067 98.8068 32.66 99.3802 32.9C99.9535 33.1267 100.587 33.24 101.28 33.24C102.213 33.24 102.973 33.0533 103.56 32.68C104.16 32.3067 104.567 31.7733 104.78 31.08H107.16ZM118.131 31.7H120.651C120.544 32.38 120.258 32.9867 119.791 33.52C119.338 34.0533 118.718 34.4733 117.931 34.78C117.144 35.0867 116.184 35.24 115.051 35.24C113.784 35.24 112.664 35.04 111.691 34.64C110.718 34.2267 109.958 33.6333 109.411 32.86C108.864 32.0867 108.591 31.1533 108.591 30.06C108.591 28.9667 108.858 28.0333 109.391 27.26C109.924 26.4733 110.664 25.8733 111.611 25.46C112.571 25.0467 113.691 24.84 114.971 24.84C116.278 24.84 117.364 25.0467 118.231 25.46C119.098 25.8733 119.738 26.5 120.151 27.34C120.578 28.1667 120.758 29.2267 120.691 30.52H111.211C111.278 31.0267 111.464 31.4867 111.771 31.9C112.091 32.3133 112.518 32.64 113.051 32.88C113.598 33.12 114.244 33.24 114.991 33.24C115.818 33.24 116.504 33.1 117.051 32.82C117.611 32.5267 117.971 32.1533 118.131 31.7ZM114.851 26.82C113.891 26.82 113.111 27.0333 112.511 27.46C111.911 27.8733 111.524 28.3867 111.351 29H118.111C118.044 28.3333 117.724 27.8067 117.151 27.42C116.591 27.02 115.824 26.82 114.851 26.82ZM130.09 30.8V28.68H136.01C136.717 28.68 137.277 28.4933 137.69 28.12C138.103 27.7333 138.31 27.2 138.31 26.52C138.31 25.8133 138.103 25.2733 137.69 24.9C137.277 24.5267 136.717 24.34 136.01 24.34H130.41V35H127.75V22.06H135.77C136.49 22.06 137.163 22.1467 137.79 22.32C138.43 22.4933 138.983 22.76 139.45 23.12C139.93 23.48 140.303 23.94 140.57 24.5C140.837 25.06 140.97 25.7333 140.97 26.52C140.97 27.2933 140.837 27.9533 140.57 28.5C140.303 29.0467 139.93 29.4933 139.45 29.84C138.983 30.1733 138.43 30.42 137.79 30.58C137.163 30.7267 136.49 30.8 135.77 30.8H130.09ZM147.642 35.22C146.655 35.22 145.755 35.0067 144.942 34.58C144.142 34.14 143.502 33.5333 143.022 32.76C142.555 31.9733 142.322 31.0667 142.322 30.04C142.322 28.9867 142.562 28.0733 143.042 27.3C143.522 26.5267 144.168 25.9267 144.982 25.5C145.808 25.06 146.742 24.84 147.782 24.84C148.928 24.84 149.848 25.0733 150.542 25.54C151.248 25.9933 151.762 26.6133 152.082 27.4C152.402 28.1867 152.562 29.0667 152.562 30.04C152.562 30.6267 152.468 31.2267 152.282 31.84C152.095 32.44 151.808 33 151.422 33.52C151.035 34.0267 150.528 34.44 149.902 34.76C149.275 35.0667 148.522 35.22 147.642 35.22ZM148.482 33.22C149.268 33.22 149.948 33.0867 150.522 32.82C151.095 32.5533 151.535 32.18 151.842 31.7C152.148 31.22 152.302 30.6667 152.302 30.04C152.302 29.36 152.142 28.7867 151.822 28.32C151.515 27.84 151.075 27.48 150.502 27.24C149.942 26.9867 149.268 26.86 148.482 26.86C147.375 26.86 146.515 27.1533 145.902 27.74C145.288 28.3133 144.982 29.08 144.982 30.04C144.982 30.68 145.128 31.24 145.422 31.72C145.715 32.1867 146.122 32.5533 146.642 32.82C147.175 33.0867 147.788 33.22 148.482 33.22ZM152.302 25.06H154.902V35H152.482C152.482 35 152.462 34.8733 152.422 34.62C152.395 34.3533 152.368 34.02 152.342 33.62C152.315 33.22 152.302 32.8267 152.302 32.44V25.06ZM160.235 20.7V22.98H157.215V20.7H160.235ZM157.415 25.06H160.015V35H157.415V25.06ZM173.866 25.06L168.706 30.6L164.986 35H161.806L167.186 29.18L170.706 25.06H173.866ZM161.806 25.06H164.986L168.746 29.14L174.146 35H170.966L167.106 30.66L161.806 25.06ZM180.142 35.22C179.155 35.22 178.255 35.0067 177.442 34.58C176.642 34.14 176.002 33.5333 175.522 32.76C175.055 31.9733 174.822 31.0667 174.822 30.04C174.822 28.9867 175.062 28.0733 175.542 27.3C176.022 26.5267 176.668 25.9267 177.482 25.5C178.308 25.06 179.242 24.84 180.282 24.84C181.428 24.84 182.348 25.0733 183.042 25.54C183.748 25.9933 184.262 26.6133 184.582 27.4C184.902 28.1867 185.062 29.0667 185.062 30.04C185.062 30.6267 184.968 31.2267 184.782 31.84C184.595 32.44 184.308 33 183.922 33.52C183.535 34.0267 183.028 34.44 182.402 34.76C181.775 35.0667 181.022 35.22 180.142 35.22ZM180.982 33.22C181.768 33.22 182.448 33.0867 183.022 32.82C183.595 32.5533 184.035 32.18 184.342 31.7C184.648 31.22 184.802 30.6667 184.802 30.04C184.802 29.36 184.642 28.7867 184.322 28.32C184.015 27.84 183.575 27.48 183.002 27.24C182.442 26.9867 181.768 26.86 180.982 26.86C179.875 26.86 179.015 27.1533 178.402 27.74C177.788 28.3133 177.482 29.08 177.482 30.04C177.482 30.68 177.628 31.24 177.922 31.72C178.215 32.1867 178.622 32.5533 179.142 32.82C179.675 33.0867 180.288 33.22 180.982 33.22ZM184.802 25.06H187.402V35H184.982C184.982 35 184.962 34.8733 184.922 34.62C184.895 34.3533 184.868 34.02 184.842 33.62C184.815 33.22 184.802 32.8267 184.802 32.44V25.06ZM182.722 23C182.322 23 181.968 22.94 181.662 22.82C181.355 22.7 181.068 22.56 180.802 22.4C180.535 22.2267 180.268 22.08 180.002 21.96C179.735 21.84 179.442 21.78 179.122 21.78C178.842 21.78 178.615 21.84 178.442 21.96C178.282 22.08 178.155 22.2333 178.062 22.42C177.968 22.6067 177.882 22.7933 177.802 22.98H175.962C176.068 22.4867 176.242 22.0333 176.482 21.62C176.735 21.1933 177.062 20.8533 177.462 20.6C177.862 20.3333 178.335 20.2 178.882 20.2C179.295 20.2 179.655 20.26 179.962 20.38C180.282 20.5 180.575 20.6467 180.842 20.82C181.122 20.98 181.388 21.12 181.642 21.24C181.895 21.36 182.168 21.42 182.462 21.42C182.755 21.42 182.982 21.36 183.142 21.24C183.315 21.1067 183.448 20.9467 183.542 20.76C183.648 20.5733 183.735 20.3933 183.802 20.22H185.662C185.555 20.7 185.375 21.1533 185.122 21.58C184.882 22.0067 184.562 22.3533 184.162 22.62C183.762 22.8733 183.282 23 182.722 23ZM195.615 35.24C194.361 35.24 193.255 35.04 192.295 34.64C191.348 34.24 190.608 33.66 190.075 32.9C189.541 32.1267 189.275 31.18 189.275 30.06C189.275 28.94 189.541 27.9933 190.075 27.22C190.608 26.4333 191.348 25.84 192.295 25.44C193.255 25.04 194.361 24.84 195.615 24.84C196.868 24.84 197.961 25.04 198.895 25.44C199.841 25.84 200.581 26.4333 201.115 27.22C201.648 27.9933 201.915 28.94 201.915 30.06C201.915 31.18 201.648 32.1267 201.115 32.9C200.581 33.66 199.841 34.24 198.895 34.64C197.961 35.04 196.868 35.24 195.615 35.24ZM195.615 33.24C196.308 33.24 196.928 33.12 197.475 32.88C198.035 32.6267 198.475 32.2667 198.795 31.8C199.115 31.32 199.275 30.74 199.275 30.06C199.275 29.38 199.115 28.8 198.795 28.32C198.475 27.8267 198.041 27.4533 197.495 27.2C196.948 26.9467 196.321 26.82 195.615 26.82C194.921 26.82 194.295 26.9467 193.735 27.2C193.175 27.4533 192.728 27.82 192.395 28.3C192.075 28.78 191.915 29.3667 191.915 30.06C191.915 30.74 192.075 31.32 192.395 31.8C192.715 32.2667 193.155 32.6267 193.715 32.88C194.275 33.12 194.908 33.24 195.615 33.24Z" fill="black"/>
<path d="M234.562 22.5345C234.884 21.6639 236.116 21.6639 236.438 22.5345L237.501 25.408C237.602 25.6818 237.818 25.8976 238.092 25.9988L240.965 27.0621C241.836 27.3843 241.836 28.6157 240.965 28.9379L238.092 30.0012C237.818 30.1024 237.602 30.3182 237.501 30.592L236.438 33.4655C236.116 34.3361 234.884 34.3361 234.562 33.4655L233.499 30.592C233.398 30.3182 233.182 30.1024 232.908 30.0012L230.035 28.9379C229.164 28.6157 229.164 27.3843 230.035 27.0621L232.908 25.9988C233.182 25.8976 233.398 25.6818 233.499 25.408L234.562 22.5345Z" fill="black"/>
<path d="M276.44 22.06C277.893 22.06 279.107 22.2333 280.08 22.58C281.053 22.9267 281.827 23.4 282.4 24C282.987 24.5867 283.4 25.2667 283.64 26.04C283.893 26.8133 284.02 27.6267 284.02 28.48C284.02 29.3333 283.88 30.1533 283.6 30.94C283.333 31.7267 282.9 32.4267 282.3 33.04C281.713 33.64 280.933 34.12 279.96 34.48C279 34.8267 277.827 35 276.44 35H269.04V22.06H276.44ZM271.7 32.72H276.38C277.34 32.72 278.133 32.6067 278.76 32.38C279.4 32.14 279.907 31.82 280.28 31.42C280.653 31.02 280.92 30.5667 281.08 30.06C281.24 29.5533 281.32 29.0267 281.32 28.48C281.32 27.9333 281.24 27.4133 281.08 26.92C280.92 26.4267 280.653 25.9867 280.28 25.6C279.907 25.2133 279.4 24.9067 278.76 24.68C278.133 24.4533 277.34 24.34 276.38 24.34H271.7V32.72ZM292.138 35.24C290.885 35.24 289.778 35.04 288.818 34.64C287.871 34.24 287.131 33.66 286.598 32.9C286.065 32.1267 285.798 31.18 285.798 30.06C285.798 28.94 286.065 27.9933 286.598 27.22C287.131 26.4333 287.871 25.84 288.818 25.44C289.778 25.04 290.885 24.84 292.138 24.84C293.391 24.84 294.485 25.04 295.418 25.44C296.365 25.84 297.105 26.4333 297.638 27.22C298.171 27.9933 298.438 28.94 298.438 30.06C298.438 31.18 298.171 32.1267 297.638 32.9C297.105 33.66 296.365 34.24 295.418 34.64C294.485 35.04 293.391 35.24 292.138 35.24ZM292.138 33.24C292.831 33.24 293.451 33.12 293.998 32.88C294.558 32.6267 294.998 32.2667 295.318 31.8C295.638 31.32 295.798 30.74 295.798 30.06C295.798 29.38 295.638 28.8 295.318 28.32C294.998 27.8267 294.565 27.4533 294.018 27.2C293.471 26.9467 292.845 26.82 292.138 26.82C291.445 26.82 290.818 26.9467 290.258 27.2C289.698 27.4533 289.251 27.82 288.918 28.3C288.598 28.78 288.438 29.3667 288.438 30.06C288.438 30.74 288.598 31.32 288.918 31.8C289.238 32.2667 289.678 32.6267 290.238 32.88C290.798 33.12 291.431 33.24 292.138 33.24ZM312.16 31.08C312.093 31.9467 311.813 32.6933 311.32 33.32C310.84 33.9467 310.173 34.4267 309.32 34.76C308.467 35.08 307.453 35.24 306.28 35.24C305.053 35.24 303.953 35.0467 302.98 34.66C302.02 34.26 301.26 33.68 300.7 32.92C300.153 32.1467 299.88 31.1933 299.88 30.06C299.88 28.9267 300.153 27.9733 300.7 27.2C301.26 26.4267 302.02 25.84 302.98 25.44C303.953 25.04 305.053 24.84 306.28 24.84C307.453 24.84 308.46 25.0067 309.3 25.34C310.14 25.66 310.8 26.1267 311.28 26.74C311.773 27.3533 312.06 28.0933 312.14 28.96H309.76C309.533 28.2933 309.113 27.7733 308.5 27.4C307.887 27.0267 307.147 26.84 306.28 26.84C305.587 26.84 304.953 26.96 304.38 27.2C303.82 27.44 303.367 27.8 303.02 28.28C302.687 28.7467 302.52 29.34 302.52 30.06C302.52 30.7667 302.687 31.36 303.02 31.84C303.353 32.3067 303.807 32.66 304.38 32.9C304.953 33.1267 305.587 33.24 306.28 33.24C307.213 33.24 307.973 33.0533 308.56 32.68C309.16 32.3067 309.567 31.7733 309.78 31.08H312.16ZM323.131 31.7H325.651C325.544 32.38 325.258 32.9867 324.791 33.52C324.338 34.0533 323.718 34.4733 322.931 34.78C322.144 35.0867 321.184 35.24 320.051 35.24C318.784 35.24 317.664 35.04 316.691 34.64C315.718 34.2267 314.958 33.6333 314.411 32.86C313.864 32.0867 313.591 31.1533 313.591 30.06C313.591 28.9667 313.858 28.0333 314.391 27.26C314.924 26.4733 315.664 25.8733 316.611 25.46C317.571 25.0467 318.691 24.84 319.971 24.84C321.278 24.84 322.364 25.0467 323.231 25.46C324.098 25.8733 324.738 26.5 325.151 27.34C325.578 28.1667 325.758 29.2267 325.691 30.52H316.211C316.278 31.0267 316.464 31.4867 316.771 31.9C317.091 32.3133 317.518 32.64 318.051 32.88C318.598 33.12 319.244 33.24 319.991 33.24C320.818 33.24 321.504 33.1 322.051 32.82C322.611 32.5267 322.971 32.1533 323.131 31.7ZM319.851 26.82C318.891 26.82 318.111 27.0333 317.511 27.46C316.911 27.8733 316.524 28.3867 316.351 29H323.111C323.044 28.3333 322.724 27.8067 322.151 27.42C321.591 27.02 320.824 26.82 319.851 26.82ZM335.09 30.8V28.68H341.01C341.717 28.68 342.277 28.4933 342.69 28.12C343.103 27.7333 343.31 27.2 343.31 26.52C343.31 25.8133 343.103 25.2733 342.69 24.9C342.277 24.5267 341.717 24.34 341.01 24.34H335.41V35H332.75V22.06H340.77C341.49 22.06 342.163 22.1467 342.79 22.32C343.43 22.4933 343.983 22.76 344.45 23.12C344.93 23.48 345.303 23.94 345.57 24.5C345.837 25.06 345.97 25.7333 345.97 26.52C345.97 27.2933 345.837 27.9533 345.57 28.5C345.303 29.0467 344.93 29.4933 344.45 29.84C343.983 30.1733 343.43 30.42 342.79 30.58C342.163 30.7267 341.49 30.8 340.77 30.8H335.09ZM352.642 35.22C351.655 35.22 350.755 35.0067 349.942 34.58C349.142 34.14 348.502 33.5333 348.022 32.76C347.555 31.9733 347.322 31.0667 347.322 30.04C347.322 28.9867 347.562 28.0733 348.042 27.3C348.522 26.5267 349.168 25.9267 349.982 25.5C350.808 25.06 351.742 24.84 352.782 24.84C353.928 24.84 354.848 25.0733 355.542 25.54C356.248 25.9933 356.762 26.6133 357.082 27.4C357.402 28.1867 357.562 29.0667 357.562 30.04C357.562 30.6267 357.468 31.2267 357.282 31.84C357.095 32.44 356.808 33 356.422 33.52C356.035 34.0267 355.528 34.44 354.902 34.76C354.275 35.0667 353.522 35.22 352.642 35.22ZM353.482 33.22C354.268 33.22 354.948 33.0867 355.522 32.82C356.095 32.5533 356.535 32.18 356.842 31.7C357.148 31.22 357.302 30.6667 357.302 30.04C357.302 29.36 357.142 28.7867 356.822 28.32C356.515 27.84 356.075 27.48 355.502 27.24C354.942 26.9867 354.268 26.86 353.482 26.86C352.375 26.86 351.515 27.1533 350.902 27.74C350.288 28.3133 349.982 29.08 349.982 30.04C349.982 30.68 350.128 31.24 350.422 31.72C350.715 32.1867 351.122 32.5533 351.642 32.82C352.175 33.0867 352.788 33.22 353.482 33.22ZM357.302 25.06H359.902V35H357.482C357.482 35 357.462 34.8733 357.422 34.62C357.395 34.3533 357.368 34.02 357.342 33.62C357.315 33.22 357.302 32.8267 357.302 32.44V25.06ZM365.235 20.7V22.98H362.215V20.7H365.235ZM362.415 25.06H365.015V35H362.415V25.06ZM378.866 25.06L373.706 30.6L369.986 35H366.806L372.186 29.18L375.706 25.06H378.866ZM366.806 25.06H369.986L373.746 29.14L379.146 35H375.966L372.106 30.66L366.806 25.06ZM385.142 35.22C384.155 35.22 383.255 35.0067 382.442 34.58C381.642 34.14 381.002 33.5333 380.522 32.76C380.055 31.9733 379.822 31.0667 379.822 30.04C379.822 28.9867 380.062 28.0733 380.542 27.3C381.022 26.5267 381.668 25.9267 382.482 25.5C383.308 25.06 384.242 24.84 385.282 24.84C386.428 24.84 387.348 25.0733 388.042 25.54C388.748 25.9933 389.262 26.6133 389.582 27.4C389.902 28.1867 390.062 29.0667 390.062 30.04C390.062 30.6267 389.968 31.2267 389.782 31.84C389.595 32.44 389.308 33 388.922 33.52C388.535 34.0267 388.028 34.44 387.402 34.76C386.775 35.0667 386.022 35.22 385.142 35.22ZM385.982 33.22C386.768 33.22 387.448 33.0867 388.022 32.82C388.595 32.5533 389.035 32.18 389.342 31.7C389.648 31.22 389.802 30.6667 389.802 30.04C389.802 29.36 389.642 28.7867 389.322 28.32C389.015 27.84 388.575 27.48 388.002 27.24C387.442 26.9867 386.768 26.86 385.982 26.86C384.875 26.86 384.015 27.1533 383.402 27.74C382.788 28.3133 382.482 29.08 382.482 30.04C382.482 30.68 382.628 31.24 382.922 31.72C383.215 32.1867 383.622 32.5533 384.142 32.82C384.675 33.0867 385.288 33.22 385.982 33.22ZM389.802 25.06H392.402V35H389.982C389.982 35 389.962 34.8733 389.922 34.62C389.895 34.3533 389.868 34.02 389.842 33.62C389.815 33.22 389.802 32.8267 389.802 32.44V25.06ZM387.722 23C387.322 23 386.968 22.94 386.662 22.82C386.355 22.7 386.068 22.56 385.802 22.4C385.535 22.2267 385.268 22.08 385.002 21.96C384.735 21.84 384.442 21.78 384.122 21.78C383.842 21.78 383.615 21.84 383.442 21.96C383.282 22.08 383.155 22.2333 383.062 22.42C382.968 22.6067 382.882 22.7933 382.802 22.98H380.962C381.068 22.4867 381.242 22.0333 381.482 21.62C381.735 21.1933 382.062 20.8533 382.462 20.6C382.862 20.3333 383.335 20.2 383.882 20.2C384.295 20.2 384.655 20.26 384.962 20.38C385.282 20.5 385.575 20.6467 385.842 20.82C386.122 20.98 386.388 21.12 386.642 21.24C386.895 21.36 387.168 21.42 387.462 21.42C387.755 21.42 387.982 21.36 388.142 21.24C388.315 21.1067 388.448 20.9467 388.542 20.76C388.648 20.5733 388.735 20.3933 388.802 20.22H390.662C390.555 20.7 390.375 21.1533 390.122 21.58C389.882 22.0067 389.562 22.3533 389.162 22.62C388.762 22.8733 388.282 23 387.722 23ZM400.615 35.24C399.361 35.24 398.255 35.04 397.295 34.64C396.348 34.24 395.608 33.66 395.075 32.9C394.541 32.1267 394.275 31.18 394.275 30.06C394.275 28.94 394.541 27.9933 395.075 27.22C395.608 26.4333 396.348 25.84 397.295 25.44C398.255 25.04 399.361 24.84 400.615 24.84C401.868 24.84 402.961 25.04 403.895 25.44C404.841 25.84 405.581 26.4333 406.115 27.22C406.648 27.9933 406.915 28.94 406.915 30.06C406.915 31.18 406.648 32.1267 406.115 32.9C405.581 33.66 404.841 34.24 403.895 34.64C402.961 35.04 401.868 35.24 400.615 35.24ZM400.615 33.24C401.308 33.24 401.928 33.12 402.475 32.88C403.035 32.6267 403.475 32.2667 403.795 31.8C404.115 31.32 404.275 30.74 404.275 30.06C404.275 29.38 404.115 28.8 403.795 28.32C403.475 27.8267 403.041 27.4533 402.495 27.2C401.948 26.9467 401.321 26.82 400.615 26.82C399.921 26.82 399.295 26.9467 398.735 27.2C398.175 27.4533 397.728 27.82 397.395 28.3C397.075 28.78 396.915 29.3667 396.915 30.06C396.915 30.74 397.075 31.32 397.395 31.8C397.715 32.2667 398.155 32.6267 398.715 32.88C399.275 33.12 399.908 33.24 400.615 33.24Z" fill="black"/>
<path d="M439.562 22.5345C439.884 21.6639 441.116 21.6639 441.438 22.5345L442.501 25.408C442.602 25.6818 442.818 25.8976 443.092 25.9988L445.965 27.0621C446.836 27.3843 446.836 28.6157 445.965 28.9379L443.092 30.0012C442.818 30.1024 442.602 30.3182 442.501 30.592L441.438 33.4655C441.116 34.3361 439.884 34.3361 439.562 33.4655L438.499 30.592C438.398 30.3182 438.182 30.1024 437.908 30.0012L435.035 28.9379C434.164 28.6157 434.164 27.3843 435.035 27.0621L437.908 25.9988C438.182 25.8976 438.398 25.6818 438.499 25.408L439.562 22.5345Z" fill="black"/>
<path d="M481.44 22.06C482.893 22.06 484.107 22.2333 485.08 22.58C486.053 22.9267 486.827 23.4 487.4 24C487.987 24.5867 488.4 25.2667 488.64 26.04C488.893 26.8133 489.02 27.6267 489.02 28.48C489.02 29.3333 488.88 30.1533 488.6 30.94C488.333 31.7267 487.9 32.4267 487.3 33.04C486.713 33.64 485.933 34.12 484.96 34.48C484 34.8267 482.827 35 481.44 35H474.04V22.06H481.44ZM476.7 32.72H481.38C482.34 32.72 483.133 32.6067 483.76 32.38C484.4 32.14 484.907 31.82 485.28 31.42C485.653 31.02 485.92 30.5667 486.08 30.06C486.24 29.5533 486.32 29.0267 486.32 28.48C486.32 27.9333 486.24 27.4133 486.08 26.92C485.92 26.4267 485.653 25.9867 485.28 25.6C484.907 25.2133 484.4 24.9067 483.76 24.68C483.133 24.4533 482.34 24.34 481.38 24.34H476.7V32.72ZM497.138 35.24C495.885 35.24 494.778 35.04 493.818 34.64C492.871 34.24 492.131 33.66 491.598 32.9C491.065 32.1267 490.798 31.18 490.798 30.06C490.798 28.94 491.065 27.9933 491.598 27.22C492.131 26.4333 492.871 25.84 493.818 25.44C494.778 25.04 495.885 24.84 497.138 24.84C498.391 24.84 499.485 25.04 500.418 25.44C501.365 25.84 502.105 26.4333 502.638 27.22C503.171 27.9933 503.438 28.94 503.438 30.06C503.438 31.18 503.171 32.1267 502.638 32.9C502.105 33.66 501.365 34.24 500.418 34.64C499.485 35.04 498.391 35.24 497.138 35.24ZM497.138 33.24C497.831 33.24 498.451 33.12 498.998 32.88C499.558 32.6267 499.998 32.2667 500.318 31.8C500.638 31.32 500.798 30.74 500.798 30.06C500.798 29.38 500.638 28.8 500.318 28.32C499.998 27.8267 499.565 27.4533 499.018 27.2C498.471 26.9467 497.845 26.82 497.138 26.82C496.445 26.82 495.818 26.9467 495.258 27.2C494.698 27.4533 494.251 27.82 493.918 28.3C493.598 28.78 493.438 29.3667 493.438 30.06C493.438 30.74 493.598 31.32 493.918 31.8C494.238 32.2667 494.678 32.6267 495.238 32.88C495.798 33.12 496.431 33.24 497.138 33.24ZM517.16 31.08C517.093 31.9467 516.813 32.6933 516.32 33.32C515.84 33.9467 515.173 34.4267 514.32 34.76C513.467 35.08 512.453 35.24 511.28 35.24C510.053 35.24 508.953 35.0467 507.98 34.66C507.02 34.26 506.26 33.68 505.7 32.92C505.153 32.1467 504.88 31.1933 504.88 30.06C504.88 28.9267 505.153 27.9733 505.7 27.2C506.26 26.4267 507.02 25.84 507.98 25.44C508.953 25.04 510.053 24.84 511.28 24.84C512.453 24.84 513.46 25.0067 514.3 25.34C515.14 25.66 515.8 26.1267 516.28 26.74C516.773 27.3533 517.06 28.0933 517.14 28.96H514.76C514.533 28.2933 514.113 27.7733 513.5 27.4C512.887 27.0267 512.147 26.84 511.28 26.84C510.587 26.84 509.953 26.96 509.38 27.2C508.82 27.44 508.367 27.8 508.02 28.28C507.687 28.7467 507.52 29.34 507.52 30.06C507.52 30.7667 507.687 31.36 508.02 31.84C508.353 32.3067 508.807 32.66 509.38 32.9C509.953 33.1267 510.587 33.24 511.28 33.24C512.213 33.24 512.973 33.0533 513.56 32.68C514.16 32.3067 514.567 31.7733 514.78 31.08H517.16ZM528.131 31.7H530.651C530.544 32.38 530.258 32.9867 529.791 33.52C529.338 34.0533 528.718 34.4733 527.931 34.78C527.144 35.0867 526.184 35.24 525.051 35.24C523.784 35.24 522.664 35.04 521.691 34.64C520.718 34.2267 519.958 33.6333 519.411 32.86C518.864 32.0867 518.591 31.1533 518.591 30.06C518.591 28.9667 518.858 28.0333 519.391 27.26C519.924 26.4733 520.664 25.8733 521.611 25.46C522.571 25.0467 523.691 24.84 524.971 24.84C526.278 24.84 527.364 25.0467 528.231 25.46C529.098 25.8733 529.738 26.5 530.151 27.34C530.578 28.1667 530.758 29.2267 530.691 30.52H521.211C521.278 31.0267 521.464 31.4867 521.771 31.9C522.091 32.3133 522.518 32.64 523.051 32.88C523.598 33.12 524.244 33.24 524.991 33.24C525.818 33.24 526.504 33.1 527.051 32.82C527.611 32.5267 527.971 32.1533 528.131 31.7ZM524.851 26.82C523.891 26.82 523.111 27.0333 522.511 27.46C521.911 27.8733 521.524 28.3867 521.351 29H528.111C528.044 28.3333 527.724 27.8067 527.151 27.42C526.591 27.02 525.824 26.82 524.851 26.82ZM540.09 30.8V28.68H546.01C546.717 28.68 547.277 28.4933 547.69 28.12C548.103 27.7333 548.31 27.2 548.31 26.52C548.31 25.8133 548.103 25.2733 547.69 24.9C547.277 24.5267 546.717 24.34 546.01 24.34H540.41V35H537.75V22.06H545.77C546.49 22.06 547.163 22.1467 547.79 22.32C548.43 22.4933 548.983 22.76 549.45 23.12C549.93 23.48 550.303 23.94 550.57 24.5C550.837 25.06 550.97 25.7333 550.97 26.52C550.97 27.2933 550.837 27.9533 550.57 28.5C550.303 29.0467 549.93 29.4933 549.45 29.84C548.983 30.1733 548.43 30.42 547.79 30.58C547.163 30.7267 546.49 30.8 545.77 30.8H540.09ZM557.642 35.22C556.655 35.22 555.755 35.0067 554.942 34.58C554.142 34.14 553.502 33.5333 553.022 32.76C552.555 31.9733 552.322 31.0667 552.322 30.04C552.322 28.9867 552.562 28.0733 553.042 27.3C553.522 26.5267 554.168 25.9267 554.982 25.5C555.808 25.06 556.742 24.84 557.782 24.84C558.928 24.84 559.848 25.0733 560.542 25.54C561.248 25.9933 561.762 26.6133 562.082 27.4C562.402 28.1867 562.562 29.0667 562.562 30.04C562.562 30.6267 562.468 31.2267 562.282 31.84C562.095 32.44 561.808 33 561.422 33.52C561.035 34.0267 560.528 34.44 559.902 34.76C559.275 35.0667 558.522 35.22 557.642 35.22ZM558.482 33.22C559.268 33.22 559.948 33.0867 560.522 32.82C561.095 32.5533 561.535 32.18 561.842 31.7C562.148 31.22 562.302 30.6667 562.302 30.04C562.302 29.36 562.142 28.7867 561.822 28.32C561.515 27.84 561.075 27.48 560.502 27.24C559.942 26.9867 559.268 26.86 558.482 26.86C557.375 26.86 556.515 27.1533 555.902 27.74C555.288 28.3133 554.982 29.08 554.982 30.04C554.982 30.68 555.128 31.24 555.422 31.72C555.715 32.1867 556.122 32.5533 556.642 32.82C557.175 33.0867 557.788 33.22 558.482 33.22ZM562.302 25.06H564.902V35H562.482C562.482 35 562.462 34.8733 562.422 34.62C562.395 34.3533 562.368 34.02 562.342 33.62C562.315 33.22 562.302 32.8267 562.302 32.44V25.06ZM570.235 20.7V22.98H567.215V20.7H570.235ZM567.415 25.06H570.015V35H567.415V25.06ZM583.866 25.06L578.706 30.6L574.986 35H571.806L577.186 29.18L580.706 25.06H583.866ZM571.806 25.06H574.986L578.746 29.14L584.146 35H580.966L577.106 30.66L571.806 25.06ZM590.142 35.22C589.155 35.22 588.255 35.0067 587.442 34.58C586.642 34.14 586.002 33.5333 585.522 32.76C585.055 31.9733 584.822 31.0667 584.822 30.04C584.822 28.9867 585.062 28.0733 585.542 27.3C586.022 26.5267 586.668 25.9267 587.482 25.5C588.308 25.06 589.242 24.84 590.282 24.84C591.428 24.84 592.348 25.0733 593.042 25.54C593.748 25.9933 594.262 26.6133 594.582 27.4C594.902 28.1867 595.062 29.0667 595.062 30.04C595.062 30.6267 594.968 31.2267 594.782 31.84C594.595 32.44 594.308 33 593.922 33.52C593.535 34.0267 593.028 34.44 592.402 34.76C591.775 35.0667 591.022 35.22 590.142 35.22ZM590.982 33.22C591.768 33.22 592.448 33.0867 593.022 32.82C593.595 32.5533 594.035 32.18 594.342 31.7C594.648 31.22 594.802 30.6667 594.802 30.04C594.802 29.36 594.642 28.7867 594.322 28.32C594.015 27.84 593.575 27.48 593.002 27.24C592.442 26.9867 591.768 26.86 590.982 26.86C589.875 26.86 589.015 27.1533 588.402 27.74C587.788 28.3133 587.482 29.08 587.482 30.04C587.482 30.68 587.628 31.24 587.922 31.72C588.215 32.1867 588.622 32.5533 589.142 32.82C589.675 33.0867 590.288 33.22 590.982 33.22ZM594.802 25.06H597.402V35H594.982C594.982 35 594.962 34.8733 594.922 34.62C594.895 34.3533 594.868 34.02 594.842 33.62C594.815 33.22 594.802 32.8267 594.802 32.44V25.06ZM592.722 23C592.322 23 591.968 22.94 591.662 22.82C591.355 22.7 591.068 22.56 590.802 22.4C590.535 22.2267 590.268 22.08 590.002 21.96C589.735 21.84 589.442 21.78 589.122 21.78C588.842 21.78 588.615 21.84 588.442 21.96C588.282 22.08 588.155 22.2333 588.062 22.42C587.968 22.6067 587.882 22.7933 587.802 22.98H585.962C586.068 22.4867 586.242 22.0333 586.482 21.62C586.735 21.1933 587.062 20.8533 587.462 20.6C587.862 20.3333 588.335 20.2 588.882 20.2C589.295 20.2 589.655 20.26 589.962 20.38C590.282 20.5 590.575 20.6467 590.842 20.82C591.122 20.98 591.388 21.12 591.642 21.24C591.895 21.36 592.168 21.42 592.462 21.42C592.755 21.42 592.982 21.36 593.142 21.24C593.315 21.1067 593.448 20.9467 593.542 20.76C593.648 20.5733 593.735 20.3933 593.802 20.22H595.662C595.555 20.7 595.375 21.1533 595.122 21.58C594.882 22.0067 594.562 22.3533 594.162 22.62C593.762 22.8733 593.282 23 592.722 23ZM605.615 35.24C604.361 35.24 603.255 35.04 602.295 34.64C601.348 34.24 600.608 33.66 600.075 32.9C599.541 32.1267 599.275 31.18 599.275 30.06C599.275 28.94 599.541 27.9933 600.075 27.22C600.608 26.4333 601.348 25.84 602.295 25.44C603.255 25.04 604.361 24.84 605.615 24.84C606.868 24.84 607.961 25.04 608.895 25.44C609.841 25.84 610.581 26.4333 611.115 27.22C611.648 27.9933 611.915 28.94 611.915 30.06C611.915 31.18 611.648 32.1267 611.115 32.9C610.581 33.66 609.841 34.24 608.895 34.64C607.961 35.04 606.868 35.24 605.615 35.24ZM605.615 33.24C606.308 33.24 606.928 33.12 607.475 32.88C608.035 32.6267 608.475 32.2667 608.795 31.8C609.115 31.32 609.275 30.74 609.275 30.06C609.275 29.38 609.115 28.8 608.795 28.32C608.475 27.8267 608.041 27.4533 607.495 27.2C606.948 26.9467 606.321 26.82 605.615 26.82C604.921 26.82 604.295 26.9467 603.735 27.2C603.175 27.4533 602.728 27.82 602.395 28.3C602.075 28.78 601.915 29.3667 601.915 30.06C601.915 30.74 602.075 31.32 602.395 31.8C602.715 32.2667 603.155 32.6267 603.715 32.88C604.275 33.12 604.908 33.24 605.615 33.24Z" fill="black"/>
<path d="M644.562 22.5345C644.884 21.6639 646.116 21.6639 646.438 22.5345L647.501 25.408C647.602 25.6818 647.818 25.8976 648.092 25.9988L650.965 27.0621C651.836 27.3843 651.836 28.6157 650.965 28.9379L648.092 30.0012C647.818 30.1024 647.602 30.3182 647.501 30.592L646.438 33.4655C646.116 34.3361 644.884 34.3361 644.562 33.4655L643.499 30.592C643.398 30.3182 643.182 30.1024 642.908 30.0012L640.035 28.9379C639.164 28.6157 639.164 27.3843 640.035 27.0621L642.908 25.9988C643.182 25.8976 643.398 25.6818 643.499 25.408L644.562 22.5345Z" fill="black"/>
<path d="M686.44 22.06C687.893 22.06 689.107 22.2333 690.08 22.58C691.053 22.9267 691.827 23.4 692.4 24C692.987 24.5867 693.4 25.2667 693.64 26.04C693.893 26.8133 694.02 27.6267 694.02 28.48C694.02 29.3333 693.88 30.1533 693.6 30.94C693.333 31.7267 692.9 32.4267 692.3 33.04C691.713 33.64 690.933 34.12 689.96 34.48C689 34.8267 687.827 35 686.44 35H679.04V22.06H686.44ZM681.7 32.72H686.38C687.34 32.72 688.133 32.6067 688.76 32.38C689.4 32.14 689.907 31.82 690.28 31.42C690.653 31.02 690.92 30.5667 691.08 30.06C691.24 29.5533 691.32 29.0267 691.32 28.48C691.32 27.9333 691.24 27.4133 691.08 26.92C690.92 26.4267 690.653 25.9867 690.28 25.6C689.907 25.2133 689.4 24.9067 688.76 24.68C688.133 24.4533 687.34 24.34 686.38 24.34H681.7V32.72ZM702.138 35.24C700.885 35.24 699.778 35.04 698.818 34.64C697.871 34.24 697.131 33.66 696.598 32.9C696.065 32.1267 695.798 31.18 695.798 30.06C695.798 28.94 696.065 27.9933 696.598 27.22C697.131 26.4333 697.871 25.84 698.818 25.44C699.778 25.04 700.885 24.84 702.138 24.84C703.391 24.84 704.485 25.04 705.418 25.44C706.365 25.84 707.105 26.4333 707.638 27.22C708.171 27.9933 708.438 28.94 708.438 30.06C708.438 31.18 708.171 32.1267 707.638 32.9C707.105 33.66 706.365 34.24 705.418 34.64C704.485 35.04 703.391 35.24 702.138 35.24ZM702.138 33.24C702.831 33.24 703.451 33.12 703.998 32.88C704.558 32.6267 704.998 32.2667 705.318 31.8C705.638 31.32 705.798 30.74 705.798 30.06C705.798 29.38 705.638 28.8 705.318 28.32C704.998 27.8267 704.565 27.4533 704.018 27.2C703.471 26.9467 702.845 26.82 702.138 26.82C701.445 26.82 700.818 26.9467 700.258 27.2C699.698 27.4533 699.251 27.82 698.918 28.3C698.598 28.78 698.438 29.3667 698.438 30.06C698.438 30.74 698.598 31.32 698.918 31.8C699.238 32.2667 699.678 32.6267 700.238 32.88C700.798 33.12 701.431 33.24 702.138 33.24ZM722.16 31.08C722.093 31.9467 721.813 32.6933 721.32 33.32C720.84 33.9467 720.173 34.4267 719.32 34.76C718.467 35.08 717.453 35.24 716.28 35.24C715.053 35.24 713.953 35.0467 712.98 34.66C712.02 34.26 711.26 33.68 710.7 32.92C710.153 32.1467 709.88 31.1933 709.88 30.06C709.88 28.9267 710.153 27.9733 710.7 27.2C711.26 26.4267 712.02 25.84 712.98 25.44C713.953 25.04 715.053 24.84 716.28 24.84C717.453 24.84 718.46 25.0067 719.3 25.34C720.14 25.66 720.8 26.1267 721.28 26.74C721.773 27.3533 722.06 28.0933 722.14 28.96H719.76C719.533 28.2933 719.113 27.7733 718.5 27.4C717.887 27.0267 717.147 26.84 716.28 26.84C715.587 26.84 714.953 26.96 714.38 27.2C713.82 27.44 713.367 27.8 713.02 28.28C712.687 28.7467 712.52 29.34 712.52 30.06C712.52 30.7667 712.687 31.36 713.02 31.84C713.353 32.3067 713.807 32.66 714.38 32.9C714.953 33.1267 715.587 33.24 716.28 33.24C717.213 33.24 717.973 33.0533 718.56 32.68C719.16 32.3067 719.567 31.7733 719.78 31.08H722.16ZM733.131 31.7H735.651C735.544 32.38 735.258 32.9867 734.791 33.52C734.338 34.0533 733.718 34.4733 732.931 34.78C732.144 35.0867 731.184 35.24 730.051 35.24C728.784 35.24 727.664 35.04 726.691 34.64C725.718 34.2267 724.958 33.6333 724.411 32.86C723.864 32.0867 723.591 31.1533 723.591 30.06C723.591 28.9667 723.858 28.0333 724.391 27.26C724.924 26.4733 725.664 25.8733 726.611 25.46C727.571 25.0467 728.691 24.84 729.971 24.84C731.278 24.84 732.364 25.0467 733.231 25.46C734.098 25.8733 734.738 26.5 735.151 27.34C735.578 28.1667 735.758 29.2267 735.691 30.52H726.211C726.278 31.0267 726.464 31.4867 726.771 31.9C727.091 32.3133 727.518 32.64 728.051 32.88C728.598 33.12 729.244 33.24 729.991 33.24C730.818 33.24 731.504 33.1 732.051 32.82C732.611 32.5267 732.971 32.1533 733.131 31.7ZM729.851 26.82C728.891 26.82 728.111 27.0333 727.511 27.46C726.911 27.8733 726.524 28.3867 726.351 29H733.111C733.044 28.3333 732.724 27.8067 732.151 27.42C731.591 27.02 730.824 26.82 729.851 26.82ZM745.09 30.8V28.68H751.01C751.717 28.68 752.277 28.4933 752.69 28.12C753.103 27.7333 753.31 27.2 753.31 26.52C753.31 25.8133 753.103 25.2733 752.69 24.9C752.277 24.5267 751.717 24.34 751.01 24.34H745.41V35H742.75V22.06H750.77C751.49 22.06 752.163 22.1467 752.79 22.32C753.43 22.4933 753.983 22.76 754.45 23.12C754.93 23.48 755.303 23.94 755.57 24.5C755.837 25.06 755.97 25.7333 755.97 26.52C755.97 27.2933 755.837 27.9533 755.57 28.5C755.303 29.0467 754.93 29.4933 754.45 29.84C753.983 30.1733 753.43 30.42 752.79 30.58C752.163 30.7267 751.49 30.8 750.77 30.8H745.09ZM762.642 35.22C761.655 35.22 760.755 35.0067 759.942 34.58C759.142 34.14 758.502 33.5333 758.022 32.76C757.555 31.9733 757.322 31.0667 757.322 30.04C757.322 28.9867 757.562 28.0733 758.042 27.3C758.522 26.5267 759.168 25.9267 759.982 25.5C760.808 25.06 761.742 24.84 762.782 24.84C763.928 24.84 764.848 25.0733 765.542 25.54C766.248 25.9933 766.762 26.6133 767.082 27.4C767.402 28.1867 767.562 29.0667 767.562 30.04C767.562 30.6267 767.468 31.2267 767.282 31.84C767.095 32.44 766.808 33 766.422 33.52C766.035 34.0267 765.528 34.44 764.902 34.76C764.275 35.0667 763.522 35.22 762.642 35.22ZM763.482 33.22C764.268 33.22 764.948 33.0867 765.522 32.82C766.095 32.5533 766.535 32.18 766.842 31.7C767.148 31.22 767.302 30.6667 767.302 30.04C767.302 29.36 767.142 28.7867 766.822 28.32C766.515 27.84 766.075 27.48 765.502 27.24C764.942 26.9867 764.268 26.86 763.482 26.86C762.375 26.86 761.515 27.1533 760.902 27.74C760.288 28.3133 759.982 29.08 759.982 30.04C759.982 30.68 760.128 31.24 760.422 31.72C760.715 32.1867 761.122 32.5533 761.642 32.82C762.175 33.0867 762.788 33.22 763.482 33.22ZM767.302 25.06H769.902V35H767.482C767.482 35 767.462 34.8733 767.422 34.62C767.395 34.3533 767.368 34.02 767.342 33.62C767.315 33.22 767.302 32.8267 767.302 32.44V25.06ZM775.235 20.7V22.98H772.215V20.7H775.235ZM772.415 25.06H775.015V35H772.415V25.06ZM788.866 25.06L783.706 30.6L779.986 35H776.806L782.186 29.18L785.706 25.06H788.866ZM776.806 25.06H779.986L783.746 29.14L789.146 35H785.966L782.106 30.66L776.806 25.06ZM795.142 35.22C794.155 35.22 793.255 35.0067 792.442 34.58C791.642 34.14 791.002 33.5333 790.522 32.76C790.055 31.9733 789.822 31.0667 789.822 30.04C789.822 28.9867 790.062 28.0733 790.542 27.3C791.022 26.5267 791.668 25.9267 792.482 25.5C793.308 25.06 794.242 24.84 795.282 24.84C796.428 24.84 797.348 25.0733 798.042 25.54C798.748 25.9933 799.262 26.6133 799.582 27.4C799.902 28.1867 800.062 29.0667 800.062 30.04C800.062 30.6267 799.968 31.2267 799.782 31.84C799.595 32.44 799.308 33 798.922 33.52C798.535 34.0267 798.028 34.44 797.402 34.76C796.775 35.0667 796.022 35.22 795.142 35.22ZM795.982 33.22C796.768 33.22 797.448 33.0867 798.022 32.82C798.595 32.5533 799.035 32.18 799.342 31.7C799.648 31.22 799.802 30.6667 799.802 30.04C799.802 29.36 799.642 28.7867 799.322 28.32C799.015 27.84 798.575 27.48 798.002 27.24C797.442 26.9867 796.768 26.86 795.982 26.86C794.875 26.86 794.015 27.1533 793.402 27.74C792.788 28.3133 792.482 29.08 792.482 30.04C792.482 30.68 792.628 31.24 792.922 31.72C793.215 32.1867 793.622 32.5533 794.142 32.82C794.675 33.0867 795.288 33.22 795.982 33.22ZM799.802 25.06H802.402V35H799.982C799.982 35 799.962 34.8733 799.922 34.62C799.895 34.3533 799.868 34.02 799.842 33.62C799.815 33.22 799.802 32.8267 799.802 32.44V25.06ZM797.722 23C797.322 23 796.968 22.94 796.662 22.82C796.355 22.7 796.068 22.56 795.802 22.4C795.535 22.2267 795.268 22.08 795.002 21.96C794.735 21.84 794.442 21.78 794.122 21.78C793.842 21.78 793.615 21.84 793.442 21.96C793.282 22.08 793.155 22.2333 793.062 22.42C792.968 22.6067 792.882 22.7933 792.802 22.98H790.962C791.068 22.4867 791.242 22.0333 791.482 21.62C791.735 21.1933 792.062 20.8533 792.462 20.6C792.862 20.3333 793.335 20.2 793.882 20.2C794.295 20.2 794.655 20.26 794.962 20.38C795.282 20.5 795.575 20.6467 795.842 20.82C796.122 20.98 796.388 21.12 796.642 21.24C796.895 21.36 797.168 21.42 797.462 21.42C797.755 21.42 797.982 21.36 798.142 21.24C798.315 21.1067 798.448 20.9467 798.542 20.76C798.648 20.5733 798.735 20.3933 798.802 20.22H800.662C800.555 20.7 800.375 21.1533 800.122 21.58C799.882 22.0067 799.562 22.3533 799.162 22.62C798.762 22.8733 798.282 23 797.722 23ZM810.615 35.24C809.361 35.24 808.255 35.04 807.295 34.64C806.348 34.24 805.608 33.66 805.075 32.9C804.541 32.1267 804.275 31.18 804.275 30.06C804.275 28.94 804.541 27.9933 805.075 27.22C805.608 26.4333 806.348 25.84 807.295 25.44C808.255 25.04 809.361 24.84 810.615 24.84C811.868 24.84 812.961 25.04 813.895 25.44C814.841 25.84 815.581 26.4333 816.115 27.22C816.648 27.9933 816.915 28.94 816.915 30.06C816.915 31.18 816.648 32.1267 816.115 32.9C815.581 33.66 814.841 34.24 813.895 34.64C812.961 35.04 811.868 35.24 810.615 35.24ZM810.615 33.24C811.308 33.24 811.928 33.12 812.475 32.88C813.035 32.6267 813.475 32.2667 813.795 31.8C814.115 31.32 814.275 30.74 814.275 30.06C814.275 29.38 814.115 28.8 813.795 28.32C813.475 27.8267 813.041 27.4533 812.495 27.2C811.948 26.9467 811.321 26.82 810.615 26.82C809.921 26.82 809.295 26.9467 808.735 27.2C808.175 27.4533 807.728 27.82 807.395 28.3C807.075 28.78 806.915 29.3667 806.915 30.06C806.915 30.74 807.075 31.32 807.395 31.8C807.715 32.2667 808.155 32.6267 808.715 32.88C809.275 33.12 809.908 33.24 810.615 33.24Z" fill="black"/>
<path d="M849.562 22.5345C849.884 21.6639 851.116 21.6639 851.438 22.5345L852.501 25.408C852.602 25.6818 852.818 25.8976 853.092 25.9988L855.965 27.0621C856.836 27.3843 856.836 28.6157 855.965 28.9379L853.092 30.0012C852.818 30.1024 852.602 30.3182 852.501 30.592L851.438 33.4655C851.116 34.3361 849.884 34.3361 849.562 33.4655L848.499 30.592C848.398 30.3182 848.182 30.1024 847.908 30.0012L845.035 28.9379C844.164 28.6157 844.164 27.3843 845.035 27.0621L847.908 25.9988C848.182 25.8976 848.398 25.6818 848.499 25.408L849.562 22.5345Z" fill="black"/>
<path d="M891.44 22.06C892.893 22.06 894.107 22.2333 895.08 22.58C896.053 22.9267 896.827 23.4 897.4 24C897.987 24.5867 898.4 25.2667 898.64 26.04C898.893 26.8133 899.02 27.6267 899.02 28.48C899.02 29.3333 898.88 30.1533 898.6 30.94C898.333 31.7267 897.9 32.4267 897.3 33.04C896.713 33.64 895.933 34.12 894.96 34.48C894 34.8267 892.827 35 891.44 35H884.04V22.06H891.44ZM886.7 32.72H891.38C892.34 32.72 893.133 32.6067 893.76 32.38C894.4 32.14 894.907 31.82 895.28 31.42C895.653 31.02 895.92 30.5667 896.08 30.06C896.24 29.5533 896.32 29.0267 896.32 28.48C896.32 27.9333 896.24 27.4133 896.08 26.92C895.92 26.4267 895.653 25.9867 895.28 25.6C894.907 25.2133 894.4 24.9067 893.76 24.68C893.133 24.4533 892.34 24.34 891.38 24.34H886.7V32.72ZM907.138 35.24C905.885 35.24 904.778 35.04 903.818 34.64C902.871 34.24 902.131 33.66 901.598 32.9C901.065 32.1267 900.798 31.18 900.798 30.06C900.798 28.94 901.065 27.9933 901.598 27.22C902.131 26.4333 902.871 25.84 903.818 25.44C904.778 25.04 905.885 24.84 907.138 24.84C908.391 24.84 909.485 25.04 910.418 25.44C911.365 25.84 912.105 26.4333 912.638 27.22C913.171 27.9933 913.438 28.94 913.438 30.06C913.438 31.18 913.171 32.1267 912.638 32.9C912.105 33.66 911.365 34.24 910.418 34.64C909.485 35.04 908.391 35.24 907.138 35.24ZM907.138 33.24C907.831 33.24 908.451 33.12 908.998 32.88C909.558 32.6267 909.998 32.2667 910.318 31.8C910.638 31.32 910.798 30.74 910.798 30.06C910.798 29.38 910.638 28.8 910.318 28.32C909.998 27.8267 909.565 27.4533 909.018 27.2C908.471 26.9467 907.845 26.82 907.138 26.82C906.445 26.82 905.818 26.9467 905.258 27.2C904.698 27.4533 904.251 27.82 903.918 28.3C903.598 28.78 903.438 29.3667 903.438 30.06C903.438 30.74 903.598 31.32 903.918 31.8C904.238 32.2667 904.678 32.6267 905.238 32.88C905.798 33.12 906.431 33.24 907.138 33.24ZM927.16 31.08C927.093 31.9467 926.813 32.6933 926.32 33.32C925.84 33.9467 925.173 34.4267 924.32 34.76C923.467 35.08 922.453 35.24 921.28 35.24C920.053 35.24 918.953 35.0467 917.98 34.66C917.02 34.26 916.26 33.68 915.7 32.92C915.153 32.1467 914.88 31.1933 914.88 30.06C914.88 28.9267 915.153 27.9733 915.7 27.2C916.26 26.4267 917.02 25.84 917.98 25.44C918.953 25.04 920.053 24.84 921.28 24.84C922.453 24.84 923.46 25.0067 924.3 25.34C925.14 25.66 925.8 26.1267 926.28 26.74C926.773 27.3533 927.06 28.0933 927.14 28.96H924.76C924.533 28.2933 924.113 27.7733 923.5 27.4C922.887 27.0267 922.147 26.84 921.28 26.84C920.587 26.84 919.953 26.96 919.38 27.2C918.82 27.44 918.367 27.8 918.02 28.28C917.687 28.7467 917.52 29.34 917.52 30.06C917.52 30.7667 917.687 31.36 918.02 31.84C918.353 32.3067 918.807 32.66 919.38 32.9C919.953 33.1267 920.587 33.24 921.28 33.24C922.213 33.24 922.973 33.0533 923.56 32.68C924.16 32.3067 924.567 31.7733 924.78 31.08H927.16ZM938.131 31.7H940.651C940.544 32.38 940.258 32.9867 939.791 33.52C939.338 34.0533 938.718 34.4733 937.931 34.78C937.144 35.0867 936.184 35.24 935.051 35.24C933.784 35.24 932.664 35.04 931.691 34.64C930.718 34.2267 929.958 33.6333 929.411 32.86C928.864 32.0867 928.591 31.1533 928.591 30.06C928.591 28.9667 928.858 28.0333 929.391 27.26C929.924 26.4733 930.664 25.8733 931.611 25.46C932.571 25.0467 933.691 24.84 934.971 24.84C936.278 24.84 937.364 25.0467 938.231 25.46C939.098 25.8733 939.738 26.5 940.151 27.34C940.578 28.1667 940.758 29.2267 940.691 30.52H931.211C931.278 31.0267 931.464 31.4867 931.771 31.9C932.091 32.3133 932.518 32.64 933.051 32.88C933.598 33.12 934.244 33.24 934.991 33.24C935.818 33.24 936.504 33.1 937.051 32.82C937.611 32.5267 937.971 32.1533 938.131 31.7ZM934.851 26.82C933.891 26.82 933.111 27.0333 932.511 27.46C931.911 27.8733 931.524 28.3867 931.351 29H938.111C938.044 28.3333 937.724 27.8067 937.151 27.42C936.591 27.02 935.824 26.82 934.851 26.82ZM950.09 30.8V28.68H956.01C956.717 28.68 957.277 28.4933 957.69 28.12C958.103 27.7333 958.31 27.2 958.31 26.52C958.31 25.8133 958.103 25.2733 957.69 24.9C957.277 24.5267 956.717 24.34 956.01 24.34H950.41V35H947.75V22.06H955.77C956.49 22.06 957.163 22.1467 957.79 22.32C958.43 22.4933 958.983 22.76 959.45 23.12C959.93 23.48 960.303 23.94 960.57 24.5C960.837 25.06 960.97 25.7333 960.97 26.52C960.97 27.2933 960.837 27.9533 960.57 28.5C960.303 29.0467 959.93 29.4933 959.45 29.84C958.983 30.1733 958.43 30.42 957.79 30.58C957.163 30.7267 956.49 30.8 955.77 30.8H950.09ZM967.642 35.22C966.655 35.22 965.755 35.0067 964.942 34.58C964.142 34.14 963.502 33.5333 963.022 32.76C962.555 31.9733 962.322 31.0667 962.322 30.04C962.322 28.9867 962.562 28.0733 963.042 27.3C963.522 26.5267 964.168 25.9267 964.982 25.5C965.808 25.06 966.742 24.84 967.782 24.84C968.928 24.84 969.848 25.0733 970.542 25.54C971.248 25.9933 971.762 26.6133 972.082 27.4C972.402 28.1867 972.562 29.0667 972.562 30.04C972.562 30.6267 972.468 31.2267 972.282 31.84C972.095 32.44 971.808 33 971.422 33.52C971.035 34.0267 970.528 34.44 969.902 34.76C969.275 35.0667 968.522 35.22 967.642 35.22ZM968.482 33.22C969.268 33.22 969.948 33.0867 970.522 32.82C971.095 32.5533 971.535 32.18 971.842 31.7C972.148 31.22 972.302 30.6667 972.302 30.04C972.302 29.36 972.142 28.7867 971.822 28.32C971.515 27.84 971.075 27.48 970.502 27.24C969.942 26.9867 969.268 26.86 968.482 26.86C967.375 26.86 966.515 27.1533 965.902 27.74C965.288 28.3133 964.982 29.08 964.982 30.04C964.982 30.68 965.128 31.24 965.422 31.72C965.715 32.1867 966.122 32.5533 966.642 32.82C967.175 33.0867 967.788 33.22 968.482 33.22ZM972.302 25.06H974.902V35H972.482C972.482 35 972.462 34.8733 972.422 34.62C972.395 34.3533 972.368 34.02 972.342 33.62C972.315 33.22 972.302 32.8267 972.302 32.44V25.06ZM980.235 20.7V22.98H977.215V20.7H980.235ZM977.415 25.06H980.015V35H977.415V25.06ZM993.866 25.06L988.706 30.6L984.986 35H981.806L987.186 29.18L990.706 25.06H993.866ZM981.806 25.06H984.986L988.746 29.14L994.146 35H990.966L987.106 30.66L981.806 25.06ZM1000.14 35.22C999.155 35.22 998.255 35.0067 997.442 34.58C996.642 34.14 996.002 33.5333 995.522 32.76C995.055 31.9733 994.822 31.0667 994.822 30.04C994.822 28.9867 995.062 28.0733 995.542 27.3C996.022 26.5267 996.668 25.9267 997.482 25.5C998.308 25.06 999.242 24.84 1000.28 24.84C1001.43 24.84 1002.35 25.0733 1003.04 25.54C1003.75 25.9933 1004.26 26.6133 1004.58 27.4C1004.9 28.1867 1005.06 29.0667 1005.06 30.04C1005.06 30.6267 1004.97 31.2267 1004.78 31.84C1004.59 32.44 1004.31 33 1003.92 33.52C1003.53 34.0267 1003.03 34.44 1002.4 34.76C1001.77 35.0667 1001.02 35.22 1000.14 35.22ZM1000.98 33.22C1001.77 33.22 1002.45 33.0867 1003.02 32.82C1003.59 32.5533 1004.03 32.18 1004.34 31.7C1004.65 31.22 1004.8 30.6667 1004.8 30.04C1004.8 29.36 1004.64 28.7867 1004.32 28.32C1004.01 27.84 1003.57 27.48 1003 27.24C1002.44 26.9867 1001.77 26.86 1000.98 26.86C999.875 26.86 999.015 27.1533 998.402 27.74C997.788 28.3133 997.482 29.08 997.482 30.04C997.482 30.68 997.628 31.24 997.922 31.72C998.215 32.1867 998.622 32.5533 999.142 32.82C999.675 33.0867 1000.29 33.22 1000.98 33.22ZM1004.8 25.06H1007.4V35H1004.98C1004.98 35 1004.96 34.8733 1004.92 34.62C1004.89 34.3533 1004.87 34.02 1004.84 33.62C1004.81 33.22 1004.8 32.8267 1004.8 32.44V25.06ZM1002.72 23C1002.32 23 1001.97 22.94 1001.66 22.82C1001.35 22.7 1001.07 22.56 1000.8 22.4C1000.53 22.2267 1000.27 22.08 1000 21.96C999.735 21.84 999.442 21.78 999.122 21.78C998.842 21.78 998.615 21.84 998.442 21.96C998.282 22.08 998.155 22.2333 998.062 22.42C997.968 22.6067 997.882 22.7933 997.802 22.98H995.962C996.068 22.4867 996.242 22.0333 996.482 21.62C996.735 21.1933 997.062 20.8533 997.462 20.6C997.862 20.3333 998.335 20.2 998.882 20.2C999.295 20.2 999.655 20.26 999.962 20.38C1000.28 20.5 1000.57 20.6467 1000.84 20.82C1001.12 20.98 1001.39 21.12 1001.64 21.24C1001.89 21.36 1002.17 21.42 1002.46 21.42C1002.75 21.42 1002.98 21.36 1003.14 21.24C1003.31 21.1067 1003.45 20.9467 1003.54 20.76C1003.65 20.5733 1003.73 20.3933 1003.8 20.22H1005.66C1005.55 20.7 1005.37 21.1533 1005.12 21.58C1004.88 22.0067 1004.56 22.3533 1004.16 22.62C1003.76 22.8733 1003.28 23 1002.72 23ZM1015.61 35.24C1014.36 35.24 1013.25 35.04 1012.29 34.64C1011.35 34.24 1010.61 33.66 1010.07 32.9C1009.54 32.1267 1009.27 31.18 1009.27 30.06C1009.27 28.94 1009.54 27.9933 1010.07 27.22C1010.61 26.4333 1011.35 25.84 1012.29 25.44C1013.25 25.04 1014.36 24.84 1015.61 24.84C1016.87 24.84 1017.96 25.04 1018.89 25.44C1019.84 25.84 1020.58 26.4333 1021.11 27.22C1021.65 27.9933 1021.91 28.94 1021.91 30.06C1021.91 31.18 1021.65 32.1267 1021.11 32.9C1020.58 33.66 1019.84 34.24 1018.89 34.64C1017.96 35.04 1016.87 35.24 1015.61 35.24ZM1015.61 33.24C1016.31 33.24 1016.93 33.12 1017.47 32.88C1018.03 32.6267 1018.47 32.2667 1018.79 31.8C1019.11 31.32 1019.27 30.74 1019.27 30.06C1019.27 29.38 1019.11 28.8 1018.79 28.32C1018.47 27.8267 1018.04 27.4533 1017.49 27.2C1016.95 26.9467 1016.32 26.82 1015.61 26.82C1014.92 26.82 1014.29 26.9467 1013.73 27.2C1013.17 27.4533 1012.73 27.82 1012.39 28.3C1012.07 28.78 1011.91 29.3667 1011.91 30.06C1011.91 30.74 1012.07 31.32 1012.39 31.8C1012.71 32.2667 1013.15 32.6267 1013.71 32.88C1014.27 33.12 1014.91 33.24 1015.61 33.24Z" fill="black"/>
<path d="M1054.56 22.5345C1054.88 21.6639 1056.12 21.6639 1056.44 22.5345L1057.5 25.408C1057.6 25.6818 1057.82 25.8976 1058.09 25.9988L1060.97 27.0621C1061.84 27.3843 1061.84 28.6157 1060.97 28.9379L1058.09 30.0012C1057.82 30.1024 1057.6 30.3182 1057.5 30.592L1056.44 33.4655C1056.12 34.3361 1054.88 34.3361 1054.56 33.4655L1053.5 30.592C1053.4 30.3182 1053.18 30.1024 1052.91 30.0012L1050.03 28.9379C1049.16 28.6157 1049.16 27.3843 1050.03 27.0621L1052.91 25.9988C1053.18 25.8976 1053.4 25.6818 1053.5 25.408L1054.56 22.5345Z" fill="black"/>
<path d="M1096.44 22.06C1097.89 22.06 1099.11 22.2333 1100.08 22.58C1101.05 22.9267 1101.83 23.4 1102.4 24C1102.99 24.5867 1103.4 25.2667 1103.64 26.04C1103.89 26.8133 1104.02 27.6267 1104.02 28.48C1104.02 29.3333 1103.88 30.1533 1103.6 30.94C1103.33 31.7267 1102.9 32.4267 1102.3 33.04C1101.71 33.64 1100.93 34.12 1099.96 34.48C1099 34.8267 1097.83 35 1096.44 35H1089.04V22.06H1096.44ZM1091.7 32.72H1096.38C1097.34 32.72 1098.13 32.6067 1098.76 32.38C1099.4 32.14 1099.91 31.82 1100.28 31.42C1100.65 31.02 1100.92 30.5667 1101.08 30.06C1101.24 29.5533 1101.32 29.0267 1101.32 28.48C1101.32 27.9333 1101.24 27.4133 1101.08 26.92C1100.92 26.4267 1100.65 25.9867 1100.28 25.6C1099.91 25.2133 1099.4 24.9067 1098.76 24.68C1098.13 24.4533 1097.34 24.34 1096.38 24.34H1091.7V32.72ZM1112.14 35.24C1110.88 35.24 1109.78 35.04 1108.82 34.64C1107.87 34.24 1107.13 33.66 1106.6 32.9C1106.06 32.1267 1105.8 31.18 1105.8 30.06C1105.8 28.94 1106.06 27.9933 1106.6 27.22C1107.13 26.4333 1107.87 25.84 1108.82 25.44C1109.78 25.04 1110.88 24.84 1112.14 24.84C1113.39 24.84 1114.48 25.04 1115.42 25.44C1116.36 25.84 1117.1 26.4333 1117.64 27.22C1118.17 27.9933 1118.44 28.94 1118.44 30.06C1118.44 31.18 1118.17 32.1267 1117.64 32.9C1117.1 33.66 1116.36 34.24 1115.42 34.64C1114.48 35.04 1113.39 35.24 1112.14 35.24ZM1112.14 33.24C1112.83 33.24 1113.45 33.12 1114 32.88C1114.56 32.6267 1115 32.2667 1115.32 31.8C1115.64 31.32 1115.8 30.74 1115.8 30.06C1115.8 29.38 1115.64 28.8 1115.32 28.32C1115 27.8267 1114.56 27.4533 1114.02 27.2C1113.47 26.9467 1112.84 26.82 1112.14 26.82C1111.44 26.82 1110.82 26.9467 1110.26 27.2C1109.7 27.4533 1109.25 27.82 1108.92 28.3C1108.6 28.78 1108.44 29.3667 1108.44 30.06C1108.44 30.74 1108.6 31.32 1108.92 31.8C1109.24 32.2667 1109.68 32.6267 1110.24 32.88C1110.8 33.12 1111.43 33.24 1112.14 33.24ZM1132.16 31.08C1132.09 31.9467 1131.81 32.6933 1131.32 33.32C1130.84 33.9467 1130.17 34.4267 1129.32 34.76C1128.47 35.08 1127.45 35.24 1126.28 35.24C1125.05 35.24 1123.95 35.0467 1122.98 34.66C1122.02 34.26 1121.26 33.68 1120.7 32.92C1120.15 32.1467 1119.88 31.1933 1119.88 30.06C1119.88 28.9267 1120.15 27.9733 1120.7 27.2C1121.26 26.4267 1122.02 25.84 1122.98 25.44C1123.95 25.04 1125.05 24.84 1126.28 24.84C1127.45 24.84 1128.46 25.0067 1129.3 25.34C1130.14 25.66 1130.8 26.1267 1131.28 26.74C1131.77 27.3533 1132.06 28.0933 1132.14 28.96H1129.76C1129.53 28.2933 1129.11 27.7733 1128.5 27.4C1127.89 27.0267 1127.15 26.84 1126.28 26.84C1125.59 26.84 1124.95 26.96 1124.38 27.2C1123.82 27.44 1123.37 27.8 1123.02 28.28C1122.69 28.7467 1122.52 29.34 1122.52 30.06C1122.52 30.7667 1122.69 31.36 1123.02 31.84C1123.35 32.3067 1123.81 32.66 1124.38 32.9C1124.95 33.1267 1125.59 33.24 1126.28 33.24C1127.21 33.24 1127.97 33.0533 1128.56 32.68C1129.16 32.3067 1129.57 31.7733 1129.78 31.08H1132.16ZM1143.13 31.7H1145.65C1145.54 32.38 1145.26 32.9867 1144.79 33.52C1144.34 34.0533 1143.72 34.4733 1142.93 34.78C1142.14 35.0867 1141.18 35.24 1140.05 35.24C1138.78 35.24 1137.66 35.04 1136.69 34.64C1135.72 34.2267 1134.96 33.6333 1134.41 32.86C1133.86 32.0867 1133.59 31.1533 1133.59 30.06C1133.59 28.9667 1133.86 28.0333 1134.39 27.26C1134.92 26.4733 1135.66 25.8733 1136.61 25.46C1137.57 25.0467 1138.69 24.84 1139.97 24.84C1141.28 24.84 1142.36 25.0467 1143.23 25.46C1144.1 25.8733 1144.74 26.5 1145.15 27.34C1145.58 28.1667 1145.76 29.2267 1145.69 30.52H1136.21C1136.28 31.0267 1136.46 31.4867 1136.77 31.9C1137.09 32.3133 1137.52 32.64 1138.05 32.88C1138.6 33.12 1139.24 33.24 1139.99 33.24C1140.82 33.24 1141.5 33.1 1142.05 32.82C1142.61 32.5267 1142.97 32.1533 1143.13 31.7ZM1139.85 26.82C1138.89 26.82 1138.11 27.0333 1137.51 27.46C1136.91 27.8733 1136.52 28.3867 1136.35 29H1143.11C1143.04 28.3333 1142.72 27.8067 1142.15 27.42C1141.59 27.02 1140.82 26.82 1139.85 26.82ZM1155.09 30.8V28.68H1161.01C1161.72 28.68 1162.28 28.4933 1162.69 28.12C1163.1 27.7333 1163.31 27.2 1163.31 26.52C1163.31 25.8133 1163.1 25.2733 1162.69 24.9C1162.28 24.5267 1161.72 24.34 1161.01 24.34H1155.41V35H1152.75V22.06H1160.77C1161.49 22.06 1162.16 22.1467 1162.79 22.32C1163.43 22.4933 1163.98 22.76 1164.45 23.12C1164.93 23.48 1165.3 23.94 1165.57 24.5C1165.84 25.06 1165.97 25.7333 1165.97 26.52C1165.97 27.2933 1165.84 27.9533 1165.57 28.5C1165.3 29.0467 1164.93 29.4933 1164.45 29.84C1163.98 30.1733 1163.43 30.42 1162.79 30.58C1162.16 30.7267 1161.49 30.8 1160.77 30.8H1155.09ZM1172.64 35.22C1171.65 35.22 1170.75 35.0067 1169.94 34.58C1169.14 34.14 1168.5 33.5333 1168.02 32.76C1167.55 31.9733 1167.32 31.0667 1167.32 30.04C1167.32 28.9867 1167.56 28.0733 1168.04 27.3C1168.52 26.5267 1169.17 25.9267 1169.98 25.5C1170.81 25.06 1171.74 24.84 1172.78 24.84C1173.93 24.84 1174.85 25.0733 1175.54 25.54C1176.25 25.9933 1176.76 26.6133 1177.08 27.4C1177.4 28.1867 1177.56 29.0667 1177.56 30.04C1177.56 30.6267 1177.47 31.2267 1177.28 31.84C1177.09 32.44 1176.81 33 1176.42 33.52C1176.03 34.0267 1175.53 34.44 1174.9 34.76C1174.27 35.0667 1173.52 35.22 1172.64 35.22ZM1173.48 33.22C1174.27 33.22 1174.95 33.0867 1175.52 32.82C1176.09 32.5533 1176.53 32.18 1176.84 31.7C1177.15 31.22 1177.3 30.6667 1177.3 30.04C1177.3 29.36 1177.14 28.7867 1176.82 28.32C1176.51 27.84 1176.07 27.48 1175.5 27.24C1174.94 26.9867 1174.27 26.86 1173.48 26.86C1172.37 26.86 1171.51 27.1533 1170.9 27.74C1170.29 28.3133 1169.98 29.08 1169.98 30.04C1169.98 30.68 1170.13 31.24 1170.42 31.72C1170.71 32.1867 1171.12 32.5533 1171.64 32.82C1172.17 33.0867 1172.79 33.22 1173.48 33.22ZM1177.3 25.06H1179.9V35H1177.48C1177.48 35 1177.46 34.8733 1177.42 34.62C1177.39 34.3533 1177.37 34.02 1177.34 33.62C1177.31 33.22 1177.3 32.8267 1177.3 32.44V25.06ZM1185.23 20.7V22.98H1182.21V20.7H1185.23ZM1182.41 25.06H1185.01V35H1182.41V25.06ZM1198.87 25.06L1193.71 30.6L1189.99 35H1186.81L1192.19 29.18L1195.71 25.06H1198.87ZM1186.81 25.06H1189.99L1193.75 29.14L1199.15 35H1195.97L1192.11 30.66L1186.81 25.06ZM1205.14 35.22C1204.15 35.22 1203.25 35.0067 1202.44 34.58C1201.64 34.14 1201 33.5333 1200.52 32.76C1200.05 31.9733 1199.82 31.0667 1199.82 30.04C1199.82 28.9867 1200.06 28.0733 1200.54 27.3C1201.02 26.5267 1201.67 25.9267 1202.48 25.5C1203.31 25.06 1204.24 24.84 1205.28 24.84C1206.43 24.84 1207.35 25.0733 1208.04 25.54C1208.75 25.9933 1209.26 26.6133 1209.58 27.4C1209.9 28.1867 1210.06 29.0667 1210.06 30.04C1210.06 30.6267 1209.97 31.2267 1209.78 31.84C1209.59 32.44 1209.31 33 1208.92 33.52C1208.53 34.0267 1208.03 34.44 1207.4 34.76C1206.77 35.0667 1206.02 35.22 1205.14 35.22ZM1205.98 33.22C1206.77 33.22 1207.45 33.0867 1208.02 32.82C1208.59 32.5533 1209.03 32.18 1209.34 31.7C1209.65 31.22 1209.8 30.6667 1209.8 30.04C1209.8 29.36 1209.64 28.7867 1209.32 28.32C1209.01 27.84 1208.57 27.48 1208 27.24C1207.44 26.9867 1206.77 26.86 1205.98 26.86C1204.87 26.86 1204.01 27.1533 1203.4 27.74C1202.79 28.3133 1202.48 29.08 1202.48 30.04C1202.48 30.68 1202.63 31.24 1202.92 31.72C1203.21 32.1867 1203.62 32.5533 1204.14 32.82C1204.67 33.0867 1205.29 33.22 1205.98 33.22ZM1209.8 25.06H1212.4V35H1209.98C1209.98 35 1209.96 34.8733 1209.92 34.62C1209.89 34.3533 1209.87 34.02 1209.84 33.62C1209.81 33.22 1209.8 32.8267 1209.8 32.44V25.06ZM1207.72 23C1207.32 23 1206.97 22.94 1206.66 22.82C1206.35 22.7 1206.07 22.56 1205.8 22.4C1205.53 22.2267 1205.27 22.08 1205 21.96C1204.73 21.84 1204.44 21.78 1204.12 21.78C1203.84 21.78 1203.61 21.84 1203.44 21.96C1203.28 22.08 1203.15 22.2333 1203.06 22.42C1202.97 22.6067 1202.88 22.7933 1202.8 22.98H1200.96C1201.07 22.4867 1201.24 22.0333 1201.48 21.62C1201.73 21.1933 1202.06 20.8533 1202.46 20.6C1202.86 20.3333 1203.33 20.2 1203.88 20.2C1204.29 20.2 1204.65 20.26 1204.96 20.38C1205.28 20.5 1205.57 20.6467 1205.84 20.82C1206.12 20.98 1206.39 21.12 1206.64 21.24C1206.89 21.36 1207.17 21.42 1207.46 21.42C1207.75 21.42 1207.98 21.36 1208.14 21.24C1208.31 21.1067 1208.45 20.9467 1208.54 20.76C1208.65 20.5733 1208.73 20.3933 1208.8 20.22H1210.66C1210.55 20.7 1210.37 21.1533 1210.12 21.58C1209.88 22.0067 1209.56 22.3533 1209.16 22.62C1208.76 22.8733 1208.28 23 1207.72 23ZM1220.61 35.24C1219.36 35.24 1218.25 35.04 1217.29 34.64C1216.35 34.24 1215.61 33.66 1215.07 32.9C1214.54 32.1267 1214.27 31.18 1214.27 30.06C1214.27 28.94 1214.54 27.9933 1215.07 27.22C1215.61 26.4333 1216.35 25.84 1217.29 25.44C1218.25 25.04 1219.36 24.84 1220.61 24.84C1221.87 24.84 1222.96 25.04 1223.89 25.44C1224.84 25.84 1225.58 26.4333 1226.11 27.22C1226.65 27.9933 1226.91 28.94 1226.91 30.06C1226.91 31.18 1226.65 32.1267 1226.11 32.9C1225.58 33.66 1224.84 34.24 1223.89 34.64C1222.96 35.04 1221.87 35.24 1220.61 35.24ZM1220.61 33.24C1221.31 33.24 1221.93 33.12 1222.47 32.88C1223.03 32.6267 1223.47 32.2667 1223.79 31.8C1224.11 31.32 1224.27 30.74 1224.27 30.06C1224.27 29.38 1224.11 28.8 1223.79 28.32C1223.47 27.8267 1223.04 27.4533 1222.49 27.2C1221.95 26.9467 1221.32 26.82 1220.61 26.82C1219.92 26.82 1219.29 26.9467 1218.73 27.2C1218.17 27.4533 1217.73 27.82 1217.39 28.3C1217.07 28.78 1216.91 29.3667 1216.91 30.06C1216.91 30.74 1217.07 31.32 1217.39 31.8C1217.71 32.2667 1218.15 32.6267 1218.71 32.88C1219.27 33.12 1219.91 33.24 1220.61 33.24Z" fill="black"/>
<path d="M1259.56 22.5345C1259.88 21.6639 1261.12 21.6639 1261.44 22.5345L1262.5 25.408C1262.6 25.6818 1262.82 25.8976 1263.09 25.9988L1265.97 27.0621C1266.84 27.3843 1266.84 28.6157 1265.97 28.9379L1263.09 30.0012C1262.82 30.1024 1262.6 30.3182 1262.5 30.592L1261.44 33.4655C1261.12 34.3361 1259.88 34.3361 1259.56 33.4655L1258.5 30.592C1258.4 30.3182 1258.18 30.1024 1257.91 30.0012L1255.03 28.9379C1254.16 28.6157 1254.16 27.3843 1255.03 27.0621L1257.91 25.9988C1258.18 25.8976 1258.4 25.6818 1258.5 25.408L1259.56 22.5345Z" fill="black"/>
</g>
<defs>
<clipPath id="clip0_3119_578">
<rect width="1280" height="56" fill="white"/>
</clipPath>
</defs>
</svg>
